<?xml version="1.0" encoding="UTF-8"?>
<svg id="_レイヤー_2" data-name="レイヤー 2" xmlns="http://www.w3.org/2000/svg" viewBox="0 0 80 90.59">
  <defs>
    <style>
      .cls-1, .cls-2 {
        stroke-width: 0px;
      }

      .cls-1, .cls-3 {
        fill: #000;
      }

      .cls-2 {
        fill: #eee36e;
      }

      .cls-3 {
        font-family: TsukuARdGothicStd-R-90ms-RKSJ-H, 'FOT-TsukuARdGothic Std';
        font-size: 12.08px;
      }
    </style>
  </defs>
  <g id="SP">
    <g>
      <circle class="cls-2" cx="40" cy="50.26" r="35.09"/>
      <path class="cls-1" d="M39.77,21.7c-.47.04-.9.2-1.29.49-.38.28-.66.59-1.13,1.19-.94,1.22-1.45,2.33-2.22,4.51-.17.48-.17.45-.24.66-.88-.78-2.05-1.2-3.2-1.21-1.24,0-2.45.45-3.24,1.42-1.08,1.32-1.72,3.31-1.85,5.33-.06.99-.08,2.01-.05,3.09.05,1.89.18,3.42.53,6.77.15,1.39.21,1.98.28,2.73.08.84.12,1.52.19,3.06,0,.09,0,.09,0,.17.11,2.28.2,3.42.41,4.75.1.63.17,1.27.22,2.02.02.32.04.6.06,1.14.03.63.04.84.06,1.17,0,.12,0,.23,0,.52,0,.19,0,.29,0,.4,0,.16.03.27.04.4-.18.01-.34.07-.5.18-.07-.58-.37-1.15-.83-1.72-.38-.47-.92-.74-1.56-.76-.21,0-.44.02-.67.07-.14.03-.24.08-.36.12-.04-.03-.06-.06-.11-.08-.45-.17-.96-.67-1.54-1.48-.13-.18-.26-.37-.42-.6-.03-.04-.32-.48-.37-.55-1.26-1.85-1.92-3.81-2.32-6.56-.21-1.47.19-2.98,1.11-3.7.58-.46,1.32-.41,1.76,0,.38.35.33.77-.31,1.18-.26.17-.34.52-.17.79.17.27.52.34.79.17,1.27-.81,1.4-2.11.48-2.97-.42-.39-.98-.61-1.55-.63-.58-.02-1.18.16-1.69.57-1.28,1.01-1.8,2.93-1.53,4.76.42,2.9,1.14,5.03,2.51,7.04.05.07.33.5.36.55.17.25.3.44.44.64.11.15.21.28.32.41-.26-.12-.51-.23-.82-.41-.22-.13-.9-.54-.96-.57-1.93-1.13-3.36-2.63-4.9-4.94-.82-1.24-1.1-2.78-.58-3.82.33-.66,1.02-.94,1.59-.75.49.16.63.56.23,1.2-.17.27-.09.61.18.78.26.17.61.09.78-.18.8-1.27.37-2.5-.84-2.89-.27-.09-.56-.12-.85-.11-.85.05-1.68.55-2.12,1.43-.27.55-.4,1.16-.39,1.8.02,1.06.4,2.19,1.04,3.15,1.62,2.45,3.17,4.07,5.27,5.3.05.03.73.44.97.58.46.27.86.47,1.25.63.37.15.71.23,1.03.28-.09.19-.14.4-.15.63-.02.67.36,1.37.94,1.94.02.02.23.23.28.27.38.34.72.56,1.14.62.23.04.4.03.58,0,.11-.03.44-.15.5-.17.26-.09.49-.2.69-.33.02.6.26,1.25.68,1.95.52.85,1.27,1.68,2.06,2.43.47.44.96.75,1.47.88-.04.18-.06.39-.09.62,0,.11-.02.23-.03.36,0,.05-.03.56-.04.63-.04.38-.06.77-.07,1.14-.05,2.64.61,5.06,2.04,7,.56.75,1.26,1.51,1.91,2.03.57.46,1.24.36,1.77-.13.38-.35.67-.89.71-1.34.02-.25.03-.49.02-.78,0-.12-.03-.66-.04-.75-.02-.4-.05-.79-.11-1.26-.03-.24-.04-.28-.13-.92,0-.04-.01-.08-.02-.12-.22-1.6-.4-2.39-.82-3.3-.83-1.77-1.9-3.31-3.04-4,0-.05.01-.09,0-.14,0-.06-.01-.11-.03-.17-.02-.07-.05-.15-.08-.23-.05-.13-.12-.28-.22-.47.08.03.14.07.23.11.14.06.89.34,1.08.42.12.05.22.09.31.14.37.18.66.34,1.31.69.02,0,.02,0,.04.02,1.04.57,1.54.83,2.18,1.1,1.42.6,2.86,1.08,4.8,1.64,1.6.46,3.3.99,5.19,1.61.09.03.09.03.18.06,2.53.83,3.68,1.16,5.12,1.38,1.94.3,3.69.21,5.39-.36.21-.07.44-.13.89-.22-.02,0,.36-.08.43-.09,1.36-.3,2.13-.69,2.57-1.59.22-.45.25-.81.19-1.43t0-.04c-.02-.22,0-.3,0-.41.08,0,.11-.01.3-.02.09,0,.13,0,.18-.01.59-.08,1.21-.22,1.73-.43.88-.36,1.41-.91,1.31-1.71-.12-.88-.55-1.52-1.27-1.97-.51-.31-1.01-.48-2.01-.73-.03,0-.07-.02-.13-.03-1.01-.25-1.43-.39-1.78-.64-.54-.39-.86-.9-1.38-2.05-.02-.04-.04-.07-.07-.15-.31-.68-.47-1.01-.71-1.37-.26-.4-.56-.77-1.06-1.3-.07-.07-.51-.55-.6-.64-.86-.96-1.9-1.49-3.35-1.8-.7-.15-1.4-.22-2.09-.22-.72,0-1.44.12-2.17.29,1.34-1,2.42-2.2,3.27-3.75,1.99-3.62,1.91-7.03.27-11.88-.09-.26-.34-1-.36-1.06-.71-2.14-1.09-3.17-1.65-4.36-.99-2.12-2.17-3.95-4.28-6.86-.27-.37-1.29-1.88-1.47-2.14-.81-1.15-1.49-1.97-2.25-2.64-.97-.85-2-1.35-3.14-1.47-.17-.02-.33-.02-.49,0ZM40.15,22.83c1.64.17,2.95,1.31,4.57,3.63.17.25,1.2,1.76,1.48,2.15,2.07,2.86,3.21,4.64,4.17,6.68.53,1.14.9,2.14,1.6,4.24.02.05.27.8.36,1.06,1.55,4.58,1.61,7.67-.2,10.96-.89,1.63-2.04,2.84-3.56,3.83-1.23.81-2.5,1.39-4.91,2.34-.56.22-1.04.42-2,.81-.03.01-.03,0-.06.02-3.68,1.5-5.33,2.09-7.47,2.56-.41.09-.71.22-1.34.54-.19.1-.26.13-.36.18-.5.24-.82.32-1.11.27h0c-.01-.17.02-.43.08-.78.02-.09.04-.18.06-.31.14-.65.14-.67.17-.87.1-1.02.19-1.99.34-3.57.01-.14.14-1.46.17-1.83.12-1.29.2-2.64.22-3.9,0-.38.06-.73.18-1.35,0-.03.01-.06.03-.12.09-.45.13-.66.17-.92.07-.53.1-1.07.13-1.85,0-.11.03-1.19.05-1.48.03-.59.12-1.08.36-2.15.14-.61.19-.86.25-1.2.08-.48.11-.87.14-1.69,0-.01.03-.67.05-.91.03-.39.1-.81.2-1.31.06-.27.11-.51.23-.98.17-.7.24-.98.31-1.36.1-.52.16-.91.3-1.85.27-1.85.45-2.68.83-3.67.11-.27.21-.55.33-.89.05-.13.27-.77.3-.86.74-2.08,1.21-3.1,2.05-4.19.78-1.01,1.19-1.31,1.89-1.24ZM31.73,28.48c.93.01,1.89.37,2.57,1.04.06.06.13.1.2.13-.41,1.07-.6,1.96-.88,3.87-.14.92-.2,1.3-.29,1.8-.07.35-.13.62-.29,1.3-.12.48-.18.73-.24,1.02-.12.54-.19,1.01-.23,1.46-.02.26-.03.47-.04.93,0,.01,0,.01,0,.03-.03.77-.06,1.13-.13,1.54-.06.31-.11.56-.24,1.15-.25,1.13-.34,1.66-.38,2.34-.02.3-.03.55-.04,1.1,0,.2-.01.29-.01.4-.02.74-.05,1.24-.12,1.73-.03.24-.07.43-.15.86-.01.06-.02.09-.03.12-.13.68-.19,1.08-.2,1.54-.03,1.23-.1,2.55-.22,3.81-.03.36-.4,4.38-.5,5.4-.01.14-.02.17-.15.74-.03.13-.05.23-.07.33-.02.11-.03.2-.05.3-.02-.02-.03-.03-.04-.05-.11-.12-.19-.2-.31-.31-.07-.07-.14-.11-.21-.17-.01-.03-.02-.06-.04-.08-.12-.16-.18-.44-.18-.9,0-.1,0-.19,0-.37,0-.31,0-.44,0-.6-.02-.32-.1-1.99-.12-2.31-.05-.79-.12-1.46-.23-2.13-.21-1.27-.29-2.39-.4-4.62,0-.09,0-.09,0-.17-.07-1.55-.11-2.24-.19-3.11-.07-.76-.13-1.35-.28-2.75-.35-3.32-.48-4.83-.53-6.68-.03-1.05-.01-2.04.05-2.99.12-1.81.68-3.56,1.59-4.68.56-.69,1.47-1.01,2.4-1ZM52.03,56.7c.61,0,1.23.06,1.85.2,1.23.27,2.05.68,2.74,1.44.09.1.54.59.6.66.45.49.73.81.94,1.14.2.3.34.6.63,1.23.03.08.05.11.07.15.6,1.32,1,1.95,1.75,2.5.52.37,1.02.54,2.18.83.06.02.09.03.13.04,1.73.43,2.29.78,2.42,1.74.04.33-.91.72-2.06.87,0,0-.21.01-.24.01-.08,0-.14,0-.21.01-.18.02-.33.05-.47.1-.26.1-.46.27-.53.57-.07.31-.07.54-.02,1,0,.02,0,.01,0,.03.04.43.03.6-.07.81-.24.49-.75.75-1.79.98-.06.01-.43.09-.42.09-.49.1-.75.17-1.02.26-1.51.51-3.08.59-4.85.32-1.37-.21-2.47-.53-4.94-1.34-.09-.03-.09-.03-.18-.06-1.9-.62-3.62-1.15-5.23-1.61-1.9-.54-3.29-1.01-4.67-1.59-.6-.25-1.07-.5-2.09-1.05-.02,0-1-.54-1.38-.73-.11-.06-.23-.11-.38-.17-.2-.08-.97-.37-1.09-.42-.98-.39-1.47-.73-1.61-1.11.01,0,0,0,.03-.01.19-.08.47-.14.96-.2.06,0,.12-.02.24-.03.65-.09.94-.14,1.21-.27.27-.12.34-.16,1.01-.48,1.29-.62,1.97-.9,2.76-1.04.32-.06.89-.23,1.95-.59.04-.01,1.66-.55,1.87-.6.41-.1.72-.23,1.35-.54.04-.02.07-.03.09-.04.46-.23.71-.33.98-.4.22-.06.41-.12.58-.17.3-.1.53-.21.79-.36.06-.04.4-.24.43-.26,1.98-1.2,3.84-1.84,5.69-1.86ZM25.4,59.16c.33,0,.56.12.74.34.34.43.57.85.6,1.17.03.32-.14.55-.73.75-.13.04-.38.15-.4.15,0,0,0,0-.01,0-.02,0-.06,0-.12-.01-.14-.02-.32-.13-.54-.33-.04-.04-.23-.23-.26-.25-.38-.36-.6-.79-.6-1.08,0-.29.26-.52.98-.68.13-.03.25-.04.36-.04ZM28.46,61.46c.06,0,.16.05.28.13.21.14.41.32.62.56.89.97,1.62,2.03,2.32,3.34,0,.02.25.45.31.57.02.03.03.06.05.09.03.06.05.11.07.16-.03,0-.05.01-.08.02-.48.07-.93-.12-1.44-.6-1.82-1.72-2.89-3.46-2.13-4.26ZM32.46,67.44c.92.33,2.08,1.9,2.91,3.67.36.77.52,1.48.72,2.97,0,.04.11.78.14,1.01.06.44.09.81.1,1.17,0,.09.03.62.03.74,0,.25,0,.45-.01.64-.01.16-.17.44-.35.61-.15.13-.2.14-.28.08-.57-.46-1.2-1.15-1.71-1.83-1.46-1.96-2.02-4.54-1.76-7.36,0-.09.01-.19.02-.35,0-.03.01-.27.02-.32,0-.12.02-.23.03-.33.03-.33.08-.56.13-.71Z"/>
      <g>
        <text class="cls-3" transform="translate(9.02 24.58) rotate(-41.41)"><tspan x="0" y="0">ペ</tspan></text>
        <text class="cls-3" transform="translate(17.63 16.88) rotate(-25.03)"><tspan x="0" y="0">ー</tspan></text>
        <text class="cls-3" transform="translate(28.06 11.93) rotate(-8.51)"><tspan x="0" y="0">ジ</tspan></text>
        <text class="cls-3" transform="translate(39.46 10.15) rotate(7.74)"><tspan x="0" y="0">ト</tspan></text>
        <text class="cls-3" transform="translate(50.9 11.62) rotate(24.24)"><tspan x="0" y="0">ッ</tspan></text>
        <text class="cls-3" transform="translate(61.43 16.28) rotate(40.6)"><tspan x="0" y="0">プ</tspan></text>
      </g>
    </g>
  </g>
</svg>