<?xml version="1.0" encoding="UTF-8"?>
<svg id="_レイヤー_2" data-name="レイヤー 2" xmlns="http://www.w3.org/2000/svg" viewBox="0 0 126 283">
  <defs>
    <style>
      .cls-1 {
        fill: #dfae26;
      }

      .cls-1, .cls-2, .cls-3, .cls-4, .cls-5 {
        stroke-width: 0px;
      }

      .cls-2 {
        fill: #6b5d5d;
      }

      .cls-3 {
        fill: #9c7959;
      }

      .cls-4 {
        fill: #818c49;
      }

      .cls-5 {
        fill: #e9dfd5;
      }
    </style>
  </defs>
  <g id="SP">
    <g>
      <path class="cls-2" d="M53.95,1.69c-1.59-.06-3.31.6-5.59,1.88-.29.17-1.25.71-1.31.74-.49.28-.84.48-1.17.64-.05.02-.09.05-.13.08l-.29.24c-1.61,1.16-3.14,3.71-4.27,6.7-.45-1.17-1.4-2.23-2.82-3.36-.46-.36-1.91-1.43-1.97-1.47-4.3-3.27-8.63-5.2-13.81-6.12-.43-.08-.8-.18-1.63-.44-.91-.29-1.56-.47-2.13-.54-.57-.08-1.06-.04-1.6.09-1.1.27-2.13,1.15-3.46,2.68-.2.23-1.45,1.73-1.74,2.04-.06.07-.06.17-.09.26-2.77,2.05-3.57,3.63-4.32,7.9-.1.57-.19,1.05-.36,1.8-.4,1.85-.49,2.41-.46,3.3.04,1.16.38,2.31,1.16,3.76.43.81,1.34,2.16,2.23,3.21.64.75,1.24,1.35,1.83,1.76-.69.21-1.4.45-2.13.73-3.07,1.18-6.3,2.96-6.85,3.71-.37.49-.56.96-.66,1.53-.02.13-.04.22-.07.46-.17,1.18-.44,1.85-1.52,3.11-1.38,1.62-.82,5.93,1.11,10.46,2.08,4.88,5.21,8.82,8.62,10.24,1.59.66,3.24.89,5.07.76,1.37-.09,2.5-.31,4.79-.85.25-.06.38-.09.5-.12.42-.1.82-.18,1.28-.25.24-.04,1.03-.15,1.14-.17,1.05-.16,1.83-.41,2.52-.84.23.48.6.85,1.11,1.12.49.26.92.39,1.95.63.24.06.34.08.47.11.66.16,1.1.31,1.47.51,1.59.87,3,1.26,4.56,1.31,1.12.04,1.93-.05,4.31-.41.48-.07.88-.06,1.83.03,1.04.09,1.52.1,2.13.01,1.5-.23,2.9-.98,4.21-2.09.02.05,0,.11.03.15.11.15.27.24.43.27.07.16.14.38.21.74.17.88.29,2.22.35,3.84.12,3.1.02,6.82-.23,8.83-.02.16.04.29.12.42-.17.04-.38.05-.53.11-5.62,2.17-8.44,6.67-7.82,12.68.01.13.04.27.07.4.11.54.31,1.04.69,1.85.47.99.52,1.12.62,1.44.33,1.11.43,2.05.52,4.24,0,.04,0,.05,0,.09.09,2.22.2,3.27.57,4.51.55,1.85,1.38,3.61,2.49,5.39-.03.11-.07.22-.03.33.15.51.28,1.95.36,4.07.02.54.04,1.12.06,1.74.03.92.05,2.19.07,3.58-.75-2.04-1.75-4.23-2.67-5.91-2.32-4.28-6.01-7.57-12.26-11.66-1.01-.66-4.51-2.89-4.47-2.86-.49-.31-3.06-1.99-3.44-2.24-1.33-.87-2.29-1.54-3.19-2.21-.17-.12-.31-.27-.64-.65-.65-.75-1.08-1.13-1.61-1.22-.18-.03-.37-.03-.58,0-.41.06-.61.37-.65.73-.02.17-.01.35.02.58.05.32.15.72.31,1.24.02.08.45,1.46.47,1.54,0,.04.02.06.02.08,0,.48,0,.87-.07,1.77,0,.03,0,.04,0,.07-.15,2.09-.1,3.11.38,4.38.32.83.66,1.43,1.48,2.7.01.01.83,1.3,1.08,1.8,1.83,3.63,4.14,7.22,6.83,10.63,5.13,6.52,10.67,9.54,17.86,9.42.43,0,.78-.12,1.1-.29-.07,1.48-.16,3.01-.31,4.85-.04.5-.2,2.34-.28,3.29-2.53.44-4.17,1.58-5,3.39-.88,1.95-.77,4.48.1,7.81.28,1.07.62,2.18,1.1,3.59.14.42.15.44.54,1.57.04.12.07.23.12.48,0,0,0,0,0,.02.11.5.18.72.34,1.01.39.71.8,1.17,1.25,1.48-1,9.01-2.61,18.14-4.78,27.05-.43.18-.78.44-1.03.78-.59-.27-.95-.48-1.74-.81-.63-.26-2.77-1.14-3.14-1.3-.48-.2-.85-.37-1.12-.5-.27-.13-.45-.22-.5-.26-1.72-1.38-3.46-2.19-5.09-2.41-2.43-.32-4.61.72-6.18,3.22-.37-.1-.84-.26-1.2-.34-.19-.06-.75-.23-.87-.26-.25-.08-.71-.16-1.22-.24-.19-.03-.36-.05-.46-.06-.03,0-.05,0-.07,0-.03,0-.03,0-.11,0-.04,0-.04,0-.12.02-.12.02-.13.03-.41.33-.1.3-.09.3-.02.56.1.17.1.16.18.23.1.08.1.08.15.1.1.04.1.04.12.05.02,0,.1.02.14.02.78.14,1.57.33,2.38.53.35.1.57.19.86.28-.23.49-.39.91-.69,1.83-.16.51-.24.73-.34,1-.04.12-.08.23-.13.35-.12.3-.46,1.11-.49,1.19-.17.43-.27.74-.31,1.07-.09.73.09,1.45.61,2.58,1.27,2.77,3.12,3.9,5.46,3.63,1.57-.18,3.03-.84,5.63-2.33,2.05-1.18,2.24-1.28,2.98-1.63.67-.31,1.25-.52,2.56-.94.01,0,1.55-.52,2.14-.76.18-.07.52-.14.78-.21.08.31.18.57.33.73.1.11.22.18.35.23v.07c-.04.15-.05.21-.07.35-2.72,3.5-3.06,3.94-3.82,5-.08.12-.16.23-.25.35-.75,1.05-1.34,1.91-3.42,5.03-.86,1.29-3.3,6-3.97,7.6-.4.95-1.51,3.61-1.64,3.92-3.45,8.24-4.94,11.94-6.61,16.63-4.19,11.84-7.38,23.11-9.14,33.13-.06.35.17.69.53.76s.69-.17.75-.53c1.74-9.94,4.91-21.15,9.08-32.92,1.65-4.66,3.14-8.36,6.58-16.57.13-.32,1.25-2.97,1.64-3.92.64-1.53,3.04-6.16,3.85-7.37,2.07-3.11,2.65-3.97,3.39-5.01.08-.12.17-.23.25-.34.46-.63,1.55-2.02,2.31-3.01-1.31,7.59-2.11,12.6-2.74,17.96-1.15,9.79-1.36,17.87-.41,24.33.14.95.28,2.14.43,3.32-.47,4.41-.95,9.03-1.36,12.52-1.03,8.69-2.07,16.13-3.31,23.16-.68,3.85-1.57,7.68-2.67,11.45-.42,1.45-.91,2.59-2.06,5.06-.13.28-.14.31-.2.43-.15.33-.02.72.31.87.32.16.71.01.86-.31.05-.11.06-.14.2-.43,1.19-2.52,1.69-3.73,2.14-5.26,1.11-3.81,2.02-7.69,2.7-11.59,1.24-7.06,2.29-14.52,3.32-23.23.23-1.93.53-4.94.75-6.93.02.13.07.54.07.58.53,4.62.92,7.5,1.42,10.15.77,4.12,1.67,7.87,3.09,13.05.31,1.14,1.41,5.05,1.55,5.56.62,2.24,1.1,4.03,1.56,5.83.09.35.44.56.79.47.35-.09.56-.44.47-.79-.46-1.81-.95-3.61-1.57-5.86-.14-.52-1.23-4.43-1.54-5.56-1.42-5.15-2.32-8.86-3.08-12.94-.49-2.62-.87-5.47-1.4-10.06-.04-.38-.49-4.28-.57-5-.06-.48-.11-.77-.16-1.2.23-2.14.35-3.1.66-6.04.5-4.77.67-6.48.93-8.92.38-3.56.61-6.42,1.09-12.83.05-.62.11-1.43.12-1.63.16-2.2.28-3.95.52-7.91l.36-5.94c.11-1.97.16-2.84.26-3.93l.26-1.45s.1-.01.15-.03c.38-.17.74-.59,1.08-1.1.04.03.07.06.11.09.22.51.57,1.04.92,1.32.31.25.63.44.97.59.76.94,1.5,2.05,2.37,3.52.11.19.5.85.49.83,1.81,3.07,2.94,4.57,4.84,6,.78.58,2.1.71,3.78.55,1.18-.11,2.49-.38,2.84-.57,2.39-1.32,3.82-4.37,4.02-7.49,2.06.28,4.19.49,6.5.56.1,0,.33.06.68.18.04.02.09.03.15.05.54.19.65.22.83.26.29.05.5.05.74-.17.2-.19.25-.46.2-.69-.03-.12-.08-.22-.15-.32-.73-1.05-2.33-1.61-4.83-1.97-.64-.09-1.29-.17-2.18-.25-1.76-.17-1.74-.17-2.09-.24-.18-1.08-.5-2.12-1.03-3.03-1.19-2.04-3.67-3.56-6.33-4.17-1.59-.36-3.25-.4-4.73-.02-.47.12-3.36.7-3.91.82-1.12.25-2.02.48-2.78.73-.07.02-.12.05-.19.07.02-.23.09-.49.07-.68-.08-.93-.45-1.57-1-1.75,3.66-4.85,7.05-10.32,10.07-16.25.25-.12.38-.16.61-.28,2.3-1.21,3.42-2.05,3.25-3.02-.14-.78-.68-1.5-1.38-1.85,2.55-5.63,4.79-11.58,6.6-17.75.35-1.18.63-2.39.95-3.58.17.21.39.39.64.52.98.48,3.24.36,5.53-.19,2.55-.62,4.39-1.57,4.73-2.8.5-1.79-.77-3.09-2.94-3.64-1.59-.41-3.48-.34-4.96.12,1.55-1.66,3.02-3.13,4.2-4.11,1.02.31,2.02.57,2.97.76,2.8,2.16,6.84,2.31,11.49.81,3.91-1.26,8.04-3.66,10.91-6.2.82-.73,1.57-1.24,3.31-2.33,0,0,2.6-1.67,3.49-2.46.36-.31.56-.62.92-1.28,0-.01,0,0,.01-.02.34-.61.5-.84.75-1.01.06-.04.13-.09.21-.14.23-.13.52-.26.93-.43.19-.08.99-.4,1.18-.48,1.26-.51,2.06-.94,2.67-1.55.84-.84,1.14-1.9.77-3.15-.14-.48-.4-.66-.98-.93-.02,0-.02-.01-.04-.02-.19-.09-.27-.13-.31-.17-.09-.1-.16-.22-.31-.51,0-.02,0-.02-.02-.04-.3-.58-.48-.85-.86-1.09-1.16-.72-2.15-.89-4.24-.98-2.51-.1-3.41-.39-4.33-1.72-.04-.06-.12-.07-.18-.11.41-1.79.6-3.21.46-4.76-.11-1.17-.42-2.25-.94-3.23.09-.1.18-.2.27-.3,1.06-1.37.95-2.84.12-4.95-.06-.15-.36-.86-.43-1.04-.12-.32-.19-.55-.21-.71-.13-.92-.67-1.52-1.52-1.83-.56-.2-1.04-.27-2.26-.34-.18-.01-.28-.02-.38-.03-.83-.06-1.39-.16-1.8-.33.08-.06.18-.1.23-.19.8-1.48,1.56-2.95,2.29-4.42.09-.18.07-.38,0-.55,2.43.04,4.24-.98,5.06-3.4.35-1.03.39-1.86.32-3.74,0,0-.02-.79-.02-1.35.47.5,1.06.81,1.7.76,1.09-.08,2.97-1.35,4.66-2.99,1.89-1.84,2.99-3.59,2.66-4.83-.23-.9-.79-1.46-1.56-1.72-.76-.26-1.74-.22-2.81.1-1.29.38-2.6,1.13-3.6,2.01.52-1.6.98-3.2,1.4-4.79,0,0,0,0,0,0,2.13,1.66,4.83,2.77,7.64,3.2,4.86.74,11.05-1.19,14.3-4.59,1.72-1.8,2.43-2.82,2.65-4.27.19-1.22-.02-2.19-.72-4.16-.17-.48-.21-.61-.28-.83-.05-.15-.1-.29-.14-.42-.03-.09-.18-.61-.21-.7-.37-1.27-.68-1.98-1.28-2.62-1.88-2-4.01-3.18-6.22-3.52-1.32-.21-2.68-.12-4.02.27-3.3.94-6.23,3.62-8.01,7.24-.33.67-.54,1.4-.69,2.23-.11.62-.17,1.14-.25,2.2-.22,2.87-.53,3.86-1.76,4.67-.04,0-.09.02-.18.02-.05,0-.27.01-.33.02-.09,0-.15.03-.21.05.17-.69.38-1.38.53-2.07.03-.13.05-.22.1-.44,1.53-6.92,2.02-10.01,1.98-13.76,2.69.38,5.75-.4,7.6-2.04.87-.77,1.38-1.78,1.89-3.35.08-.24.35-1.13.38-1.24.89-2.89,1.13-7.1.46-10.56-.84-4.36-2.99-7.28-6.49-7.9-1.13-.2-2.07.04-3.79.76-4.75,1.98-6.85,5.29-7.29,10.56-.1-.04-.24-.1-.32-.12-.2-.05-.35-.07-.52-.06-.11,0-.5.08-.61.09-2.6.31-4.66,2.21-5.33,4.79-.65,2.5,3.01,6.14,5.56,5.89,1.05-.1,1.77-.33,2.49-.8.03.07.07.1.12.22.03.06.05.11.08.16.29.57.84,1.1,2.52,2.36.57.43,1.24.72,1.95.94.07,3.61-.4,6.6-1.81,13.04-.14-.29-.31-.58-.57-.95-.21-.31-1.36-1.54-2.27-2.4-1.25-1.19-2.11-1.86-2.79-1.88-.23,0-.43.06-.63.2-.75.54-1.17,1.63-.95,2.52.46,1.9,1.24,3.5,2.37,4.65,1.03,1.04,2.55,1.65,3.9,1.47.03,0,.06-.02.09-.03-.47,1.86-1,3.73-1.61,5.61-.04-.19-.07-.38-.13-.58-.67-2.31-2.16-3.94-4.71-4.89-.63-.23-1.29-.41-1.97-.53-.68-.12-1.39-.18-2.1-.19-4.13-.04-6.67,1.19-7.76,3.59-.88,1.95-.76,4.48.11,7.81.28,1.07.62,2.18,1.1,3.59.14.42.14.44.53,1.57.04.12.07.23.12.48,0,0,0,.01,0,.02.11.5.18.72.33,1.01.63,1.16,1.29,1.7,2.2,1.91.17.04.29.06.58.1.43.06.62.11.86.2.07.03.88.34,1.07.41,1.2.44,2.27.76,3.34.91.05,0,.1.01.14.02-.01.02-.05.02-.06.05-.72,1.45-1.48,2.92-2.26,4.38-.02.03,0,.07,0,.1-1.01-1.04-2.28-1.89-3.62-2.24-1.86-.48-3.67.03-5.28,1.6.39-2.64-.53-4.92-2.41-6.81-.52-.52-1.08-.98-1.69-1.42-.22-.16-.45-.31-.69-.47-.08-.05-.4-.26-.46-.3-.28-.18-.45-.34-1.15-1.08-.76-.81-1.22-1.21-1.82-1.47-.25-.11-2.18-1.01-2.39-1.1-1.71-.78-3.01-1.3-4.05-1.56-1.04-.26-1.81-.25-2.46.04-.38.17-.93.25-2.02.33-.09,0-.77.05-.91.06-2.13.17-3.34.53-4.11,1.57-.59.8-.9,1.29-1.51,2.28,0,0-.85,1.35-1.37,2.06-.02.02,0,.05-.02.08-1.46-.36-2.97-.55-4.25-.45,0,0,.01-.01.01-.02.26-2.09.36-5.89.24-9.05-.07-1.68-.19-3.07-.37-4.03-.1-.56-.23-.98-.39-1.27-.14-.25-.34-.44-.57-.52.52-.55,1.04-1.16,1.53-1.83,1.48-2.03,2.73-4.51,3.76-7.18,1.36-3.52,1.61-8.99.54-13.41.12,0,.24,0,.35-.08.93-.63,1.58-1.49,2.38-2.9.06-.12.39-.7.42-.75.36-.65.72-1.14,1.58-2.24.02-.02.02-.03.03-.05,1.08-1.36,1.55-2.03,1.97-2.96.46-1.01.72-2.25.93-4.05.04-.35.08-.66.14-1.21.15-1.38.2-1.85.3-2.44.04-.21.08-.38.19-.78.25-.91.32-1.34.26-1.93-.28-2.5-2.1-5.37-4.74-8.31-.25-.28-.46-.48-.93-.93,0,0,0-.01-.01-.02-.68-.65-.97-.94-1.25-1.34,0,0,0-.07-.01-.25,0-.03,0-.03,0-.07,0-.28-.02-.42-.08-.59-.1-.32-.3-.58-.63-.69-.52-.18-1.04-.27-1.57-.29ZM46.83,103.92c1.32,1.78,2.87,3.61,4.84,5.63.9.93,1.95,1.6,3.69,2.46.11.05.89.43.97.47.03.01.09.02.12.03.94,1.96,4.09,4.33,7.56,6.25-.25.05-.47.21-.52.48-.44,2.5-.95,4.99-1.52,7.46-1.83,2.08-3.64,4.28-5.23,6.38,0-.03,0-.06-.02-.09-.67-2.31-2.15-3.94-4.7-4.89-.63-.23-1.3-.41-1.98-.53-.68-.12-1.39-.18-2.1-.19-.54,0-.97.07-1.46.11.09-1.02.23-2.61.27-3.08.36-4.46.5-7.68.4-10.61,0-.27-.08-4.34-.12-5.86-.02-.63-.03-1.21-.05-1.76-.04-.91-.08-1.6-.13-2.25ZM64.69,119.14c.16.08.3.18.46.26.8.41,1.76.79,2.78,1.14-1.25,1.1-2.71,2.55-4.27,4.24.38-1.77.78-3.54,1.09-5.33.02-.12-.03-.22-.07-.32ZM61.2,129.58c-.41,1.59-.79,3.18-1.25,4.75-.87,2.95-1.86,5.82-2.9,8.66,0-.35.02-.6,0-1.05,0,0-.04-1.26-.02-1.73,0-.15.03-.58.03-.61.12-2.38.13-3.82-.04-5.07.15-.03.29-.1.39-.23,1.15-1.53,2.45-3.13,3.78-4.72ZM55.03,148.14c-.57,1.37-1.16,2.73-1.77,4.06-1.93-.14-3.73.11-5.27.86-.26.13-.5.3-.74.47.26-.58.4-.9.7-1.57.79-1.74,1.07-2.35,1.45-3.2.34.08.68.17,1.01.22,1.87.28,3.44.03,4.61-.84ZM44.87,147.41c.08.01.14.03.27.05.43.06.62.11.86.2.07.03.88.34,1.07.4.37.14.72.23,1.07.35-.35.78-.62,1.37-1.37,3-1.77,3.88-2.78,6.21-3.68,8.41.72-4.14,1.31-8.29,1.78-12.42ZM50.17,158.5c-2.84,5.41-5.99,10.41-9.38,14.85.39-3.26.86-5.88,1.67-8.23.27-.79.56-1.59.88-2.41.57-1.51,1.13-2.89,1.84-4.54.09.09.13.2.24.28.34.27.77.48,1.28.67.71.27,1.35.18,2.51-.17.11-.03.68-.33.97-.45ZM26.79,172.34c1.07.16,2.23.73,3.43,1.69.23.18.68.39,1.6.78.31.13,2.04.84,2.54,1.05.93.39,1.44.66,2.02.95l-1.23-.22c-.43-.08-.77-.13-1.53-.25,0,0-2.18-.35-2.99-.55-1.71-.41-3.08-.82-6.04-1.76-.64-.2-.9-.29-1.22-.39.95-1.07,2.11-1.5,3.42-1.3ZM53.58,177.5c1.79.41,3.48,1.42,4.25,2.74.12.21.21.45.3.68-.89-.27-1.76-.53-3.11-.97-.44-.14-.68-.23-.94-.32-2.45-.8-4.39-1.32-6.1-1.64.83-.17,2.12-.43,2.44-.51.98-.25,2.09-.22,3.17.02ZM22.41,175.1c.32.17.6.31,1.18.71,0,0,1.35.88,1.94,1.13,2.16.92,4.55,1.44,7.46,1.71.41.04,1.04.05,1.45.07-.3.11-.55.2-1.1.38,0,0-1.61.54-2.22.82-.65.3-.8.38-2.51,1.36-1.97,1.13-3.06,1.62-4.12,1.75-1.39.16-2.41-.47-3.24-2.27-.34-.73-.44-1.12-.39-1.44.02-.15.07-.32.18-.58.02-.05.3-.72.4-.98.04-.1.07-.2.11-.3.09-.24.15-.43.29-.85.25-.78.38-1.12.57-1.51ZM49.4,182.3l9.21,1.63c-.11,2.11-1.04,4.18-2.57,5.03-.03,0-.06.01-.1.02-.11.03-.26.07-.42.1-.39.08-.83.15-1.27.19-1.05.1-1.87.02-2.17-.21-1.34-1-2.15-2.08-3.5-4.38.01.02-.31-.51-.4-.66-.46-.77-.85-1.3-1.26-1.89.13,0,.23.01.38.02,1.09.02,1.56.05,2.1.15ZM38.75,185.78c0,.14-.01.16-.02.31,0,0-.36,5.92-.36,5.92-.24,3.95-.35,5.7-.51,7.89-.02.2-.08,1.02-.12,1.63-.48,6.4-.71,9.25-1.08,12.79-.26,2.44-.44,4.14-.93,8.92-.02.21-.03.22-.05.42-.6-5.95-.37-13.12.65-21.73.57-4.88,1.33-9.68,2.43-16.16Z"/>
      <path class="cls-1" d="M54.25,3.09s-.08.07-.1.13c-.18.69-.45,1.33-.98,2.33-.06.1-.38.7-.44.82-.89,1.69-1.51,3.93-1.77,6.13-.13,1.09-.05,2.05.21,3.65.02.11.02.15.06.41.1.66.15.99.2,1.38.04.37.07.68.12,1.37,0,.04,0,.04,0,.08.06.87.11,1.31.19,1.82.05.3.18,1.14.2,1.22.19,1.12.28,1.71.33,2.39.13,1.77.34,3.17.67,4.45-1.22-2.04-2.88-3.42-4.96-3.95-1.06-.27-2.23-.32-3.51-.13-.46.07-.78.22-1.41.58-.01,0-.01,0-.03.01-.04.02-.04.02-.07.04-.02-.01-.02-.04-.04-.06-2.09-1.14-2.67-4.8-1.69-9.48.92-4.38,3.01-8.57,5-9.97l.04-.03.24-.21c.33-.17.69-.35,1.16-.62.06-.03,1.01-.58,1.3-.74,2.29-1.28,3.87-1.79,5.27-1.61Z"/>
      <path class="cls-1" d="M55.16,4.28s.02.05.03.07c.35.49.67.82,1.41,1.52,0,0,.66.63.88.88,2.46,2.74,4.17,5.42,4.41,7.57.04.36-.01.68-.22,1.43-.12.44-.17.64-.22.9-.11.63-.17,1.11-.32,2.53-.06.54-.09.86-.13,1.19-.2,1.68-.45,2.81-.83,3.66-.36.8-.78,1.41-1.8,2.69-.02.02-.02.02-.04.04-.91,1.15-1.3,1.69-1.7,2.42-.03.05-.36.63-.42.75-.39.69-.73,1.19-1.08,1.61-.06-.1-.11-.17-.18-.33-.08-.18-.28-.74-.28-.73-.63-1.64-.94-3.32-1.12-5.78-.05-.72-.14-1.34-.34-2.5-.01-.08-.16-.9-.2-1.19-.07-.47-.11-.88-.17-1.72,0-.04-.09-1.11-.14-1.51-.05-.41-.09-.75-.2-1.43-.04-.26-.05-.3-.07-.4-.24-1.5-.3-2.36-.19-3.3.24-2.04.81-4.14,1.62-5.67.06-.12.38-.71.44-.82.4-.76.65-1.33.85-1.89Z"/>
      <path class="cls-1" d="M18.75,1.35c.46.07,1.03.22,1.83.47.88.28,1.27.39,1.78.48,4.97.88,9.1,2.73,13.25,5.88.08.06,1.52,1.11,1.96,1.46,1.67,1.32,2.54,2.48,2.63,3.73.03.45-.04.83-.27,1.73-.13.5-.19.73-.24,1.02-.04.21.04.39.18.54-.8,4.36-.3,7.94,1.69,9.68-.3.05-.6.09-1.03.1-.16,0-.27.02-.39.03-.66.07-1.26.34-2.26,1.05-.1.07-.19.16-.3.23,0-.13,0-.27-.07-.39-.16-.24-.34-.42-.66-.66-.03-.02-.13-.1-.15-.12-.08-.07-.14-.11-.19-.16-.92-.85-1.43-1.34-1.94-1.91-.08-.08-.15-.16-.26-.25-.03-.03-.15-.12-.14-.12-.1-.08-.16-.13-.19-.17-.02-.02-.02-.02,0,0-.05-.17-.16-.31-.3-.39-.14-.08-.3-.1-.46-.07.54-1.03.8-1.99.72-2.99-.04-.48-.36-.79-.81-.88-.26-.05-.56-.03-.91.05-.47.11-1.02.32-1.52.56-.8.38-1.34.77-1.7,1.24-.43.56-.54.97-.7,2.15-.04.32-.07.5-.11.71,0,.01-.02.04-.02.05-.14-.57-.44-1.09-1.02-1.42-.26-.15-.53-.21-.79-.19s-.51.13-.74.3c-.29.21-.52.48-.85.94.01-.02-.2.28-.25.35-.11.15-.19.26-.26.33-.02.02-.13.13-.16.16-.65.67-.96,1.13-1.13,1.66-.05-.02-.09-.07-.15-.08-.26-.05-.56-.03-.91.05-.46.1-.99.31-1.48.54-.04-.19-.14-.36-.33-.45-.6-.28-1.27-.45-2.01-.54-1.15-.13-2.47-.03-3.9.26-.11-.08-.24-.14-.39-.13-1.12.07-3.53-2.76-4.66-4.91-.68-1.29-.98-2.26-1.01-3.2-.02-.75.05-1.24.43-2.98.17-.77.27-1.26.37-1.85.72-4.08,1.36-5.33,4-7.24.15-.11.22-.27.24-.45.43-.49,1.45-1.71,1.61-1.89,1.15-1.33,2.05-2.09,2.79-2.27.39-.1.75-.11,1.22-.04Z"/>
      <path class="cls-5" d="M32.59,20.95c-.02,1.12-.58,2.29-1.79,3.88-.82,1.08-1.53,1.63-2.09,1.58.04-.15.09-.3.28-.69.29-.59.39-.84.45-1.16.04-.23.07-.43.12-.77.13-.95.19-1.21.43-1.52.22-.29.6-.55,1.24-.85.43-.2.9-.38,1.26-.46.05-.01.06,0,.11-.01Z"/>
      <path class="cls-1" d="M47.66,26.58c2.71.69,4.6,3.09,5.61,6.8,1.15,4.23.93,9.72-.38,13.1-2.39,6.17-5.59,10.57-9.46,11.15-.48.07-.88.06-1.83-.03-1.05-.09-1.52-.1-2.14-.01-2.29.34-3.06.43-4.08.4-1.35-.04-2.56-.38-3.98-1.15-.49-.26-1.02-.44-1.78-.63-.13-.03-.22-.06-.47-.12-1.67-.39-2.15-.65-2.27-1.32,0-.03.12-.18.17-.25.15-.18.31-.32.47-.53.05-.07.12-.14.17-.22.08-.1.08-.23.09-.35.11-.24.17-.48.15-.74-.05-.64-.28-1.06-.85-1.87-.01-.02-.01-.02-.03-.04-.4-.56-.55-.81-.61-1.1-.25-1.06.38-3.95,1.24-6.77,1.73-5.64,5.59-10.57,10.93-14.34.84-.59,1.26-.78,1.67-.82.08,0,.16-.01.29-.02.83-.03,1.22-.08,2.05-.32.34-.1.57-.22,1.07-.5.01,0,.02-.01.03-.02.49-.28.72-.38.97-.42,1.08-.16,2.08-.12,2.98.1Z"/>
      <path class="cls-1" d="M32.72,24.35c.09.32.27.53.62.81,0,0,.11.08.14.11.06.05.1.09.12.11.55.61,1.08,1.12,2.03,1.99.07.07.16.14.27.22.03.02.13.1.15.12.21.16.31.26.37.35.09.14.24.23.39.27-1.24.95-2.4,1.95-3.47,3.02-.08-.04-.16-.08-.3-.14-.07-.03-.11-.05-.14-.07-.27-.12-.38-.2-.44-.27.12-.18.25-.35.35-.54.76-1.49.73-3.14-.63-3.93-.26-.15-.52-.21-.78-.19-.02,0-.04.02-.05.02.16-.19.33-.37.5-.6.35-.45.63-.87.89-1.28Z"/>
      <path class="cls-5" d="M26.47,24.11c.6.34.62,1.24.13,2.2-.58,1.14-1.5,1.93-2.59,2.06-.01-.04-.03-.06-.03-.15-.03-.29.01-.63.1-1.17.06-.34.3-.67.9-1.27.03-.03.14-.14.16-.16.12-.13.24-.27.39-.47.06-.08.28-.39.26-.37.25-.35.41-.55.55-.65.08-.06.08-.05.13-.03Z"/>
      <path class="cls-5" d="M31.52,27.53c.6.34.61,1.24.12,2.2-.58,1.14-1.5,1.93-2.59,2.06,0-.04-.02-.06-.03-.15-.03-.29.02-.63.11-1.16.06-.34.3-.67.89-1.27.03-.03.14-.14.16-.16.12-.13.24-.27.39-.47.06-.08.28-.39.26-.37.25-.35.42-.54.56-.65.08-.06.08-.06.13-.03Z"/>
      <path class="cls-1" d="M29.78,27.45s-.2.28-.26.35c-.08.1-.12.15-.18.22-.04-.12-.12-.22-.23-.31.23-.04.44-.16.66-.26Z"/>
      <path class="cls-1" d="M27.07,27.97c.17.25.41.41.86.59.06.02.25.09.28.11.11.04.17.08.2.09.09.05.18.03.27.04-.43.5-.72.93-.82,1.45-.11.65-.16,1.06-.12,1.5,0,.1.04.19.06.28-.12-.05-.25-.11-.29-.15-.07-.07-.18-.08-.27-.11.13-.53.22-1.05.17-1.59-.04-.48-.36-.79-.81-.88-.26-.05-.56-.03-.9.05-.47.11-1.02.31-1.52.55-.8.38-1.34.77-1.71,1.24-.43.56-.54.97-.7,2.15-.04.32-.07.51-.1.72-.03.15-.11.35-.34.81-.29.59-.39.84-.45,1.16-.11.62.15,1.15.78,1.35.76.24,1.52.01,2.25-.54.47-.36.89-.82,1.35-1.42.13.09.26.18.49.29.15.07.5.23.51.24.09.05.6.35.66.38.29.17.5.29.72.39.45.22.85.34,1.24.38-1.03,1.74-1.86,3.56-2.45,5.47-.54,1.75-.94,3.42-1.16,4.82-.06,0-.1-.04-.16-.02-.17.05-.38.05-.77-.03-.03,0-.06-.02-.12-.03-.3-.06-.43-.07-.61-.09-.95-.09-1.91-.23-3.27-.47-.23-.04-4.56-.79-5.43-.96-3.98-.78-6.79-1.68-9.27-3.19-.39-.24-1.28-.73-1.31-.75-.18-.11-.32-.19-.44-.29-.25-.21-.49-.5-.88-1.05-.03-.05-.27-.38-.35-.49-.19-.26-.35-.51-.5-.74-.1-.16-.19-.3-.28-.45-.24-.41-.4-.75-.44-.94,0,0,0,0,0,0,.07-.25.17-.45.3-.6,1.25-1.47,1.61-2.35,1.81-3.77.03-.22.04-.31.06-.41.07-.39.18-.66.42-.99.12-.15.91-.69,1.96-1.27,1.28-.71,2.8-1.41,4.32-1.99,3.75-1.44,6.95-1.91,8.95-1.12-.25.19-.47.39-.63.6-.43.56-.54.97-.7,2.15-.04.32-.07.5-.11.71-.03.15-.1.35-.33.81-.29.59-.39.84-.45,1.17-.11.62.14,1.14.78,1.34.77.24,1.52.01,2.25-.54.49-.37.94-.86,1.42-1.5.84-1.11,1.4-2.05,1.74-2.96.21.16.47.26.82.23,1.22-.11,2.24-.77,3.01-1.73Z"/>
      <path class="cls-5" d="M22.27,27.76c-.02,1.12-.58,2.29-1.79,3.88-.82,1.08-1.52,1.62-2.09,1.58.04-.14.09-.3.27-.68.29-.59.39-.84.45-1.16.04-.24.07-.43.12-.77.13-.95.19-1.21.43-1.51.22-.29.61-.56,1.24-.86.43-.2.9-.38,1.26-.46.05-.01.06,0,.11-.01Z"/>
      <path class="cls-5" d="M26.09,30.61c-.02,1.12-.59,2.29-1.8,3.88-.82,1.08-1.52,1.63-2.09,1.59.04-.15.09-.3.28-.69.29-.59.39-.84.45-1.16.04-.24.07-.44.11-.77.13-.95.2-1.21.44-1.52.22-.29.6-.56,1.23-.86.43-.2.89-.37,1.25-.46.06-.01.07,0,.12-.01Z"/>
      <path class="cls-1" d="M31.63,31.87c.19.17.41.31.73.46,0,0,0,0,0,0-.43.48-.84.97-1.24,1.46-.05-.12-.11-.25-.24-.32-.31-.18-.69-.36-1.07-.54.68-.2,1.29-.56,1.81-1.06Z"/>
      <path class="cls-1" d="M26.8,32.95c.18.13.36.26.64.37.08.03.45.17.5.19.54.23.69.3.96.42.54.24.97.46,1.34.68.08.04.16.02.24.03-.33.45-.65.89-.95,1.35-.11-.13-.27-.21-.45-.22-.23-.01-.51-.11-.86-.28-.19-.09-.38-.19-.65-.35-.06-.03-.29-.18-.35-.21-.14-.08-.25-.14-.35-.19-.05-.03-.42-.2-.53-.25-.12-.06-.22-.12-.28-.16-.02-.01-.03-.02-.02-.01.02.01.03.03.05.06.03.05.06.11.08.19,0,.05,0,.1,0,.15.01-.15-.05-.28-.13-.4,0,0-.02-.01-.03-.02.32-.47.59-.92.8-1.36Z"/>
      <path class="cls-1" d="M1.4,40.38c.08.12.15.23.24.35.08.12.31.45.34.49.44.64.76,1.01,1.12,1.31.18.15.36.27.6.41.05.03.93.52,1.29.74,2.64,1.6,5.57,2.55,9.69,3.35.89.17,1.61.3,3.2.57.7.12,2.03.35,2.27.39,1.39.24,2.37.39,3.36.48.12.01.23.03.48.08.06.01.09.02.13.03.41.08.71.09,1,.05-.03.53-.01.99.07,1.35.12.52.33.86.82,1.56.01.02.01.03.02.05.44.62.59.89.62,1.22,0,.03-.02.08-.06.15-.06.1-.13.2-.31.42-.14.17-.19.28-.29.41-.8.84-1.54,1.16-2.9,1.38-.1.02-.89.14-1.14.18-.49.08-.93.16-1.38.27-.13.03-.25.06-.5.12-2.22.53-3.3.74-4.58.82-1.64.11-3.1-.1-4.49-.68-3.04-1.27-5.97-4.95-7.92-9.55-.93-2.18-1.47-4.28-1.67-5.96Z"/>
      <path class="cls-1" d="M65.37,66.03c.94.06,2.46.6,4.69,1.62.2.09,2.14.99,2.39,1.1.39.17.76.49,1.41,1.18.79.83.98,1.02,1.38,1.28.07.05.39.26.46.31.23.15.43.28.64.43.56.4,1.07.82,1.53,1.29,1.98,1.99,2.71,4.35,1.65,7.29-.12.32.05.67.36.81,0,.01,0,.02,0,.03-.63-.58-1.33-1.07-1.91-1.31.48-.22.89-.55,1.15-.95.33-.5.17-1.03-.24-1.54-.28-.34-.69-.68-1.18-1.01-.74-.49-1.56-.89-2.19-1.03-.21-.05-.4-.07-.56-.06-.49.04-.82.08-1.14.18-.56.16-.95.45-1.07.97-.19.86.35,1.8,1.24,2.62.44.41.99.73,1.55.93-.23.13-.42.31-.52.58-.33.83.04,1.86.78,2.83.6.79,1.52,1.43,2.4,1.56,1.03.15,2.11-.22,2.74-.92.1-.11.12-.24.17-.36.11.11.23.19.35.29-.16.03-.32.11-.42.25-.12.16-.71.99-.75,1.05-.76,1.07-1.19,1.62-1.79,2.21-.05.05-.04.12-.07.18-.17-.04-.28-.05-.47-.1-.2-.05-.41-.1-.69-.17-.53-.14-.54-.13-.81-.19.27-.46.73-1.23.98-1.64.19-.31.08-.71-.22-.89-.31-.18-.7-.09-.89.22-.26.44-.79,1.31-1.05,1.74-.05.09-.03.18-.04.27-.05,0-.08.03-.13.03-.39-4.75-2.54-10.28-5.43-13.39-.23-.25-.44-.4-.89-.7-.19-.13-.28-.19-.37-.26-.2-.15-.35-.28-.7-.6-.8-.73-1.19-1.02-1.8-1.24-.22-.08-.44-.12-.65-.15-.64-.07-1.25.09-1.82.46-.53.35-.91.73-1.66,1.61-.04.04-.03.05-.07.09-.97,1.14-1.44,1.53-1.99,1.57-.71.05-1.11-.21-1.87-1.08-.03-.03-.06-.06-.12-.13-.75-.86-1.19-1.24-1.91-1.5-.13-.05-.27-.07-.4-.11.41-.57.73-1.04,1.21-1.81,0,0,.89-1.44,1.46-2.2.47-.63,1.41-.92,3.17-1.05.13-.01.81-.06.9-.06,1.25-.09,1.89-.18,2.45-.44.2-.09.45-.12.77-.1Z"/>
      <path class="cls-1" d="M65.47,72.15c.4.14.7.37,1.37.98.38.35.56.5.8.68.12.09.22.15.43.29.37.24.52.35.65.5,3.08,3.3,5.3,9.7,5.14,14.46-.03,1.02-.2,2.1-.53,3.64-.06.28-.11.52-.22,1-.27,1.22-.38,1.73-.49,2.37-.08.44-.13.79-.26,1.55-.36,2.21-.54,3.15-.86,4.32-.28,1.05-.63,1.99-1.06,2.88-.15.3-.26.56-.48,1.11-.02.05-.02.05-.04.1-.51,1.23-.8,1.78-1.3,2.25-.03.03-.12.05-.41.09-.02,0-.02,0-.03,0-.37.05-.57.1-.8.22-.5.25-.79.56-1.33,1.26,0,.01-.01,0-.02.02-.46.6-.68.82-.97.93-1.13.44-7.38.87-8.17.48-.08-.04-.85-.42-.96-.47-1.62-.8-2.56-1.39-3.34-2.19-4.61-4.76-7.29-8.48-8.51-12.59-.33-1.11-.43-2.09-.52-4.21,0-.04,0-.04,0-.08-.1-2.29-.2-3.32-.57-4.56-.12-.42-.18-.55-.69-1.63-.34-.72-.51-1.15-.6-1.56-.02-.09-.04-.18-.04-.26-.56-5.42,1.91-9.38,6.99-11.34,1.48-.57,4.41-.21,6.73.61.45.16.75.43,1.37,1.13.06.07.09.1.12.13,1.01,1.14,1.71,1.6,2.94,1.51,1.04-.08,1.67-.6,2.88-2.02.04-.04.04-.04.07-.08,1.26-1.48,1.84-1.86,2.71-1.55Z"/>
      <path class="cls-5" d="M75.05,76.75c.09,0,.38.07.73.22.39.16.82.4,1.21.65.4.26.72.53.9.75.03.04.03.05.05.08-.28.34-.8.6-1.36.6-.51,0-1.22-.34-1.72-.81-.55-.51-.85-1.03-.83-1.31.04-.02.07-.04.14-.07.21-.06.47-.1.88-.13Z"/>
      <path class="cls-1" d="M86.15,78.76c1.2.31,2.4,1.14,3.28,2.15.7.8,1.63,1.06,3.29,1.18.11,0,.21,0,.39.02,1.95.12,2.47.31,2.58,1.05.04.28.14.59.29,1,.07.19.37.9.42,1.04.68,1.71.76,2.77.07,3.66,0,0,0,.01-.01.01-.67-.67-1.82-1.24-3.38-1.71-.67-.21-1.39-.39-2.04-.53-.65-.13-1.22-.22-1.59-.24-1.47-.07-2.63.17-4.98.89-.32.1-.37.12-.47.15-1.3-.22-2.74,0-4.1.55.43-.48.84-1,1.42-1.81.04-.06.62-.87.73-1.03.1-.14.14-.31.12-.47.38.2.78.35,1.17.39,1.03.1,2.08-.31,2.66-1.04.37-.46.28-1.01-.07-1.56-.24-.37-.61-.76-1.07-1.14-.91-.76-1.98-1.36-2.62-1.37-.04,0-.05,0-.09,0,1.26-1.2,2.6-1.57,3.99-1.21Z"/>
      <path class="cls-5" d="M82.22,81.27c.09,0,.37.11.7.29.37.2.77.48,1.13.78.36.31.65.61.81.85.03.05.03.07.05.1-.32.32-.86.54-1.42.48-.5-.05-1.17-.45-1.62-.97-.49-.57-.75-1.15-.68-1.44.04-.02.08-.03.16-.05.22-.04.48-.05.89-.04Z"/>
      <path class="cls-5" d="M77.29,81.19c.09,0,.36.13.67.33.36.22.75.52,1.09.84.35.33.62.65.76.9.03.06.04.09.05.13-.34.32-.92.52-1.49.44-.5-.07-1.14-.52-1.56-1.06-.47-.61-.68-1.21-.6-1.51.04-.02.1-.04.19-.05.22-.03.48-.04.89,0Z"/>
      <path class="cls-1" d="M91.06,87.96c1.88.42,4.16,1.26,4.67,2.01.67.97,1.03,2.1,1.15,3.36.13,1.43-.04,2.75-.45,4.5-.01.06-.09.42-.11.52-.04.18-.07.31-.09.42-.31,1.75-.73,3.17-1.39,4.85-.26.66-1.28,3.13-1.49,3.64-.11.26-.21.51-.31.77-.02.07-.26.36-.61.74-.05.05-.09.1-.13.15-.21.23-.8.83-.77.8-.19.2-.41.48-.72.88-.15.19-.73.95-.85,1.11-.17.22-.33.41-.47.59-.52.65-.91,1.07-1.17,1.26-.85.6-1.57.99-3.04,1.68-1.8.85-2.54,1.24-3.58,1.97-2.95,2.08-5.64,3.6-6.84,3.59-2.21-.02-6.55-1.23-9.1-2.54-3.15-1.61-6.27-3.79-7.62-5.52,2.42.08,6.33-.28,7.4-.69.59-.23.92-.56,1.53-1.35,0-.01.01,0,.02-.02.42-.55.62-.76.89-.89.06-.03.16-.06.38-.09.02,0,.02,0,.03,0,.56-.07.83-.15,1.13-.44.68-.64,1.04-1.31,1.62-2.71.02-.05.36-.86.49-1.13.47-.97.83-1.99,1.14-3.12.33-1.22.52-2.19.88-4.44.13-.76.18-1.11.26-1.54.11-.62.21-1.12.48-2.32.11-.49.16-.73.22-1.01.34-1.61.52-2.75.56-3.87,0-.24-.02-.49-.02-.73.34.06.59.13,1.79.43.29.07.49.12.7.17,1.36.34,2.25.5,2.9.49,1.08-.03,2.09-.25,3.62-.71.19-.06.24-.07.71-.21,2.2-.68,3.26-.9,4.53-.84.46.02,1.04.11,1.67.25Z"/>
      <path class="cls-1" d="M97.37,99.5c.57.59,1.24.99,2.01,1.23.76.24,1.35.3,2.77.36,1.88.08,2.7.23,3.61.8.11.07.2.2.39.57,0,.02.01.01.02.03.2.4.31.6.52.81.18.2.36.3.7.46.02,0,.02,0,.04.02.16.08.24.11.28.15.4,1.39-.38,2.17-2.67,3.1-.19.08-.99.39-1.19.48-.46.19-.8.35-1.08.51-.11.07-.23.13-.32.2-.46.33-.7.66-1.13,1.44,0,.01,0,.02-.01.03-.29.53-.43.75-.64.93-.83.73-1.57,1.24-3.31,2.33,0,0-2.59,1.67-3.49,2.46-2.73,2.42-6.71,4.73-10.45,5.93-3,.97-5.65,1.18-7.81.6,1.65-.35,4.02-1.7,6.82-3.68.96-.67,1.65-1.03,3.39-1.85,1.54-.72,2.3-1.14,3.23-1.8.4-.28.86-.77,1.45-1.51.15-.18.29-.38.47-.6.13-.16.71-.93.85-1.12.29-.37.49-.62.64-.77-.04.04.56-.56.78-.81.05-.05.1-.11.14-.16.47-.52.75-.87.86-1.16.1-.25.19-.5.3-.75.2-.49,1.23-2.96,1.5-3.64.62-1.59,1.03-2.99,1.34-4.6Z"/>
      <g>
        <path class="cls-4" d="M107.89,14.03c2.87.51,4.69,2.98,5.44,6.87.62,3.24.39,7.23-.43,9.92-.03.11-.3,1-.37,1.23-.44,1.37-.87,2.2-1.52,2.77-2.25,2-6.81,2.55-9.21.74-1.52-1.14-1.98-1.58-2.14-1.9-.01-.03-.09-.22-.11-.26-.03-.07-.06-.14-.1-.21-.09-.17-.19-.33-.32-.52-.59-.84-.8-1.9-.86-3.67,0-.13-.04-1.3-.04-1.49-.25-6.89,1.45-10.65,6.59-12.79,1.5-.62,2.27-.82,3.07-.68Z"/>
        <path class="cls-4" d="M96.28,25.19c.08,0,.23.04.67.23-.02.69-.03,1.38,0,2.14,0,.18.03,1.36.03,1.49.05,1.59.24,2.7.69,3.65-.56.38-1.09.59-1.98.68-1.7.17-4.59-2.71-4.19-4.27.54-2.08,2.18-3.58,4.24-3.83.17-.02.5-.08.53-.08Z"/>
        <path class="cls-4" d="M116.91,38.71c1.91.31,3.78,1.34,5.46,3.13.42.44.67,1.01.98,2.09.03.09.18.62.2.71.04.15.09.3.15.46.08.23.12.36.29.85.62,1.77.8,2.59.66,3.53-.16,1.09-.77,1.96-2.3,3.56-2.95,3.09-8.7,4.88-13.16,4.21-2.15-.33-4.22-1.11-5.98-2.22.87-.61,1.43-1.42,1.76-2.46.25-.81.34-1.47.46-3.1.08-1.02.12-1.5.22-2.07.13-.72.31-1.34.58-1.88,1.62-3.31,4.27-5.72,7.2-6.56,1.16-.33,2.33-.41,3.48-.23Z"/>
        <path class="cls-4" d="M95.57,46.74c.11.04.23.11.4.22.4.27.9.7,1.47,1.24.47.45.97.95,1.43,1.44.34.37.64.71.68.77.46.64.63.98.63,1.32,0,.38-.02.72-.08.96-.03.11-.06.18-.09.22-.91.11-2.03-.34-2.77-1.09-.94-.96-1.61-2.35-2.02-4.04-.08-.33.1-.77.35-1.03Z"/>
        <path class="cls-4" d="M91.65,55.06c.61.11,1.2.27,1.76.48,2.16.8,3.36,2.11,3.91,4.02.43,1.51.47,2.94.3,6.19,0,.04-.03.46-.03.61-.02.52-.02.93.01,1.84,0,0,.03,2.44-.24,3.27-.72,2.13-2.37,2.8-4.89,2.43-.97-.14-1.97-.43-3.09-.84-.18-.07-.98-.37-1.05-.4-.35-.14-.62-.2-1.14-.28-.25-.04-.35-.05-.47-.08-.53-.13-.9-.42-1.36-1.27-.08-.15-.12-.3-.2-.67,0,0-.11-.45-.17-.63-.39-1.12-.39-1.15-.53-1.57-.46-1.39-.8-2.47-1.07-3.5-.8-3.06-.91-5.34-.18-6.94.85-1.87,2.9-2.86,6.57-2.83.64,0,1.27.06,1.88.17Z"/>
        <path class="cls-4" d="M105.77,59.2c.47.12.78.41.89.86.36,1.36-4.46,6.05-6.18,6.19-.42.03-.92-.43-1.15-1.21-.29-.95-.11-2.07.59-3.04.8-1.1,2.44-2.19,3.99-2.64.77-.23,1.4-.27,1.86-.15Z"/>
        <path class="cls-4" d="M17.74,86.46c.13.12.24.21.43.42.39.45.57.64.84.84.92.69,1.9,1.37,3.25,2.25.38.25,2.95,1.93,3.45,2.25-.04-.02,3.47,2.2,4.47,2.85,6.09,3.98,9.63,7.15,11.83,11.19,1.16,2.14,2.49,5.16,3.18,7.54.44,1.5.62,2.71.52,3.54-.1.76-.4,1.08-1.05,1.09-6.75.12-11.93-2.7-16.82-8.92-2.63-3.35-4.9-6.86-6.68-10.41-.28-.55-.54-.97-1.13-1.88-.01-.01,0-.02-.02-.04-.77-1.2-1.09-1.75-1.36-2.47-.39-1.04-.44-1.91-.3-3.82,0-.03,0-.03,0-.07.07-.96.09-1.38.08-1.93,0-.16-.04-.32-.17-.72-.02-.06-.35-1.12-.37-1.2-.07-.23-.09-.34-.13-.52Z"/>
        <path class="cls-4" d="M69.78,126.28c1.55.4,2.27,1.12,2.01,2.02-.38,1.35-6.89,2.93-8.44,2.17-.38-.19-.57-.84-.38-1.63.23-.97.95-1.83,2.05-2.31,1.24-.54,3.2-.64,4.75-.24Z"/>
        <path class="cls-4" d="M49.79,128.85c.61.11,1.2.27,1.76.48,2.16.8,3.37,2.11,3.92,4.02.43,1.51.47,2.94.3,6.19,0,.04-.03.46-.03.61-.03.52-.01.93.02,1.84,0,0,.03,2.44-.25,3.27-.72,2.13-2.38,2.8-4.89,2.43-.97-.14-1.97-.43-3.09-.84-.18-.07-.98-.37-1.05-.4-.35-.14-.61-.2-1.14-.28-.16-.02-.23-.04-.31-.06.39-3.66.68-7.29.86-10.88.09-1.72.23-3.5.48-6.44.5-.05.98-.11,1.56-.11.64,0,1.26.06,1.87.16Z"/>
        <path class="cls-4" d="M45.05,128.96c-.23,2.72-.38,4.54-.46,6.2-.17,3.32-.44,6.68-.79,10.06-.1-.14-.19-.22-.29-.41-.08-.15-.13-.3-.21-.67,0,0-.1-.45-.16-.63-.38-1.12-.4-1.15-.54-1.57-.47-1.39-.8-2.47-1.07-3.5-.8-3.06-.91-5.34-.18-6.94.59-1.3,1.81-2.15,3.71-2.55Z"/>
        <path class="cls-4" d="M54,153.69c.29.16.56.43.65.78,0,0-.01,0-.02.02-.1.13-.28.29-.53.48-.23.17-.65.39-.98.59.3-.61.58-1.24.87-1.87Z"/>
        <path class="cls-4" d="M52.67,153.47c-.5,1.07-1,2.13-1.53,3.17-.4.2-.79.4-1.2.58-.54.24-1.03.46-1.12.48-.88.26-1.33.32-1.68.19-.4-.15-.72-.31-.94-.48-.19-.15-.22-.22-.21-.27.33-1.17,1.38-2.34,2.57-2.92,1.18-.58,2.58-.8,4.1-.76Z"/>
      </g>
      <g>
        <path class="cls-3" d="M26.18,170.78c.48.07.99.24,1.5.44-.29-.08-.57-.15-.86-.18-1.85-.24-3.54.48-4.81,2.21-.23-.07-.41-.12-.63-.18,1.26-1.79,2.91-2.57,4.79-2.29Z"/>
        <path class="cls-3" d="M54.28,175.94c2.32.53,4.49,1.85,5.49,3.56.36.62.6,1.32.77,2.05-.29-.07-.59-.13-.91-.21-.16-.62-.37-1.23-.68-1.77-.96-1.64-2.95-2.86-5.07-3.35-1.28-.29-2.6-.32-3.79-.02-.37.09-2.64.55-3.07.65-.89.19-1.61.37-2.21.57-.25.08-.44.17-.65.26-.51.02-1.03.04-1.53.12h0c.25-.13.55-.24.93-.37.7-.23,1.57-.45,2.66-.69.52-.11,3.44-.7,3.95-.83,1.28-.33,2.72-.29,4.12.02Z"/>
        <path class="cls-3" d="M41.61,175.18c.05.1.11.24.13.54.03.31-.07.78-.21,1.26-.02.02-.05.03-.07.04.03-.17.08-.34.1-.5.07-.49.05-.91,0-1.29.02-.02.04-.04.06-.06Z"/>
        <path class="cls-3" d="M20.64,174.3c.22.08.4.16.6.24-.22.45-.35.83-.62,1.65-.13.41-.19.59-.27.81-.03.09-.07.19-.11.28-.09.24-.37.9-.4.96-.14.35-.21.62-.25.9-.08.62.07,1.22.5,2.16.78,1.69,1.82,2.64,3.1,2.93-1.68.12-2.95-.69-3.96-2.88-.43-.93-.55-1.43-.49-1.86.03-.2.09-.42.22-.76.03-.07.37-.89.49-1.2.05-.12.1-.25.15-.37.11-.29.18-.53.35-1.05.31-.94.46-1.36.69-1.82Z"/>
        <path class="cls-3" d="M47.33,179.18c1.74.29,3.75.85,6.34,1.7.26.09.5.16.93.31,1.69.56,2.9.93,3.93,1.22,0,.07.02.13.03.2-3.16-.56-7.68-1.36-8.94-1.58-.63-.11-1.15-.14-2.31-.17-.64-.01-.99-.08-1.43-.12-.51-.58-1.04-1.1-1.66-1.59.06-.04.23-.1.3-.14.88-.02,1.79.02,2.8.19Z"/>
        <path class="cls-3" d="M59.87,182.73c.29.07.61.16.88.21,0,0,0,.02,0,.03-.13-.02-.26-.03-.38-.05l-.5-.09s0-.07,0-.1Z"/>
        <path class="cls-3" d="M60.8,184.29c-.15,2.74-1.37,5.43-3.36,6.53-.14.08-1.34.33-2.34.42-1.37.13-2.44.02-2.88-.3-.5-.37-.94-.77-1.35-1.2.14.12.27.25.43.37.65.49,1.71.6,3.07.47.94-.09,2-.31,2.29-.47,1.91-1.05,3.05-3.46,3.22-5.95l.27.05c.21.04.43.05.64.09Z"/>
      </g>
    </g>
  </g>
</svg>