<?xml version="1.0" encoding="UTF-8"?>
<svg id="_レイヤー_2" data-name="レイヤー 2" xmlns="http://www.w3.org/2000/svg" viewBox="0 0 39.4 41.4">
  <defs>
    <style>
      .cls-1 {
        fill: #fff;
      }

      .cls-1, .cls-2, .cls-3, .cls-4 {
        stroke: #000;
        stroke-miterlimit: 10;
        stroke-width: .4px;
      }

      .cls-2 {
        fill: #dead26;
      }

      .cls-3 {
        fill: #e8ded4;
      }

      .cls-4 {
        fill: #6b5d5d;
      }
    </style>
  </defs>
  <g id="PC">
    <g>
      <path class="cls-4" d="M22.57.2c-.39-.02-.73.15-1.01.52-.27.36-.4.76-.43,1.21-.03.34,0,.6.07,1.23,0,.05,0,.08.01.11.07.61.21,1.16.45,1.83.06.17.13.35.22.57.04.09.19.48.23.59.07.18.12.33.23.66,0,0,.2.61.3.84.05.11.09.2.19.38,0,0,0,0,0,0,.12.22.17.33.22.45.51,1.47.67,3.09.52,4.84-.12,1.38-.25,2.31-.48,3.21-.28,1.11-.71,2.05-1.32,2.89-.02.03-.02.06-.02.09-.23-.15-.48-.31-.5-.32-1.26-.81-1.94-1.19-2.77-1.5-.02,0-.49-.18-.56-.21-.62-.24-1.04-.44-1.38-.72-.04-.03-.3-.25-.36-.29-.91-.75-1.39-1.26-1.65-1.89-.46-1.1-2.1-2.11-3.28-2.05-1.08.05-2.15.41-2.93,1.01-.53.41-.92.92-1.13,1.5-.06-.03-.12-.05-.2-.05-.12,0-.26.01-.44.05-.2.04-.42.1-.6.15,0,0-.06.01-.06.01-.02,0-.04,0-.05.01,0,0,0,0,0,0-.11-.44-.27-.91-.5-1.48,0-.01-.12-.29-.14-.34-.21-.52-.4-.89-.64-1.18.02,0,.05,0,.08,0,.37.01.65-.06.85-.26l.04-.04s.07-.07.09-.11c0,0,.01-.02.01-.03.02-.06.03-.13.04-.2,0-.03,0-.06,0-.11,0-.01,0-.01,0-.02-.01-.35-.15-.68-.42-.87-.12-.09-.25-.14-.44-.21-.02,0-.22-.07-.25-.08-.01,0-.03-.01-.05-.02-.01,0-.07-.03-.07-.03-.04-.02-.07-.03-.1-.04,0,0,0-.02,0-.02.03-.05.13-.23.15-.25.12-.22.2-.39.25-.56.05-.2.05-.38-.01-.56,0,0-.02-.05-.02-.07-.02-.06-.04-.1-.08-.14-.05-.05-.11-.09-.18-.12-.02,0-.1-.04-.1-.04-.16-.07-.33-.1-.49-.1-.16,0-.32.04-.45.13-.13.08-.24.18-.4.36-.02.02-.12.14-.14.16-.01.01-.03.03-.05.05,0,0-.05.05-.06.06-.05.05-.08.09-.12.13-.02-.02-.06-.04-.07-.05-.04-.03-.21-.16-.25-.18-.32-.23-.55-.35-.81-.37-.08,0-.17,0-.25.02,0,0-.05.01-.07.02-.06.02-.1.04-.15.07-.06.04-.1.1-.14.18,0,.02-.05.09-.05.09-.17.31-.2.66-.07.96.07.15.15.27.31.44.01.02.12.14.14.16.01.01.02.03.04.05,0,0,.04.06.06.07.01.02.02.03.04.04-.04.02-.28.12-.36.16-.41.19-.65.4-.74.71,0,0-.01.03-.01.04,0,.02,0,.04-.01.06-.01.05-.02.09-.01.14,0,.05.02.09.04.14.02.03.03.07.05.1.01.02.02.04.04.07.18.3.46.52.78.55.11,0,.22,0,.34-.02.07-.01.13-.02.24-.05.1-.02.12-.03.16-.03.02,0,.04,0,.09-.01.06,0,.07,0,.1-.01.03,0,.05-.01.07-.02.01.05.03.12.04.14,0,.04.04.18.04.19.02.08.04.14.05.2.12.42.27.69.55.83,0,0,.03.02.04.02.02.01.04.02.06.03.04.02.08.03.12.03.05,0,.11,0,.17-.03.03,0,.06-.02.09-.03.01,0,.05-.02.06-.02.32-.13.58-.37.67-.69.03-.13.05-.26.04-.42,0-.05,0-.09,0-.18,0-.08,0-.11,0-.15,0-.02,0-.04,0-.11,0-.03,0-.04,0-.06.31.28.52.65.77,1.27.02.05.13.32.14.34.48,1.19.68,1.96.63,2.77-.03.47-.14.92-.37,1.63-.17.51-.3.81-.49,1.11-.06.09-.04.22.06.28s.22.04.28-.06c.21-.33.35-.66.53-1.2.24-.74.36-1.22.39-1.74,0-.16,0-.32-.01-.48.2.16.44.3.64.36,0,0,.02,0,.04.02,0,0,.05.02.07.03.03.01.06.03.09.04.08.03.16.03.23.02.15.89.66,1.59,1.52,2.13.74.47,1.08.77,1.51,1.39.15.22.25.53.31.96.02.14.02.18.06.54.01.13.02.21.03.29.15,1.12.35,2.1.64,2.98.66,2.02,2.03,4.01,3.79,5.65.39.37.78.65,1.5,1.11.04.03.39.25.48.31.11.07.21.14.39.26.04.03.07.05.09.06.52.36.81.54,1.17.7.82.37,1.75.49,2.95.43.38-.02.71-.05,1.34-.11.51-.05.67-.07.91-.09,1.11-.09,2.37.14,3.31.62.8.41,1.35.99,2.13,2.13.1.15.2.26.41.49,0,0,0,0,.01.01.22.24.32.35.41.5.55.87.82,1.29,1.18,1.74.47.58.97,1.05,1.56,1.43.06.04.12.08.22.15.03.02.22.16.26.19.36.26.64.41.92.49.26.07.51.05.74-.07.42-.21.64-.47.68-.88,0,0,.02-.13.02-.17.19.16.43.24.65.14.24-.1.32-.3.34-.58.1.02.19.02.26-.02.24-.12.28-.61.21-.92-.18-.8-.73-1.5-1.69-2.36-.56-.5-1.12-.96-2-1.66-.12-.1-.58-.46-.69-.54-.11-.09-.21-.16-.4-.29-.02-.01-.02-.01-.04-.02-.25-.17-.37-.26-.5-.37-1.1-.98-1.87-1.78-2.44-2.59-.14-.2-.24-.37-.46-.77,0,0,0-.01-.01-.02-.25-.45-.37-.65-.53-.88-.16-.22-.26-.48-.4-.99,0-.03-.01-.05-.03-.11-.11-.4-.17-.6-.27-.8.6.03,1.18,0,1.83-.13.24-.04.48-.1.78-.17.14-.03.84-.2.86-.21,1.56-.37,3.08-1.04,4.43-1.95,1.01-.69,1.79-1.72,2.49-3.13.22-.44.34-.75.42-1.08.1-.46.06-.87-.16-1.22-.12-.18-.28-.21-.48-.18.1-.18.2-.36.28-.52.08-.16.13-.28.24-.57,0,0,.19-.48.28-.65.02-.04.15-.26.16-.28.35-.62.49-.98.44-1.44-.03-.34-.19-.56-.45-.64-.18-.05-.33-.04-.67.01,0,0-.15.02-.17.03-.03,0-.05,0-.07,0,.01-.02.02-.04.03-.05.35-.81.51-1.19.69-1.67.14-.37.21-.68.32-1.33.05-.33.08-.45.12-.63.01-.05.08-.35.09-.4.07-.31.11-.53.14-.76.07-.58,0-1.04-.26-1.41-.27-.39-.68-.46-1.15-.29-.31.11-.58.28-.97.57-.09.06-.16.12-.24.17.04-.26.09-.51.09-.53.04-.5.03-.96-.08-1.34-.15-.55-.47-.89-.99-.96-.44-.06-.91.19-1.37.64-.35.34-.68.8-.88,1.17-.12.23-.19.36-.47.85-.39.69-.57,1.05-.75,1.47-.05.11-.09.22-.14.34-.03.08-.08.23-.11.31-.02-.1-.04-.21-.07-.32-.01-.05-.08-.26-.08-.28-.03-.1-.04-.16-.06-.22-.05-.28-.09-.49-.18-.99-.11-.66-.16-.96-.25-1.33-.05-.22-.1-.43-.16-.63-.01-.05-.09-.33-.1-.36-.04-.16-.08-.28-.12-.41-.19-.6-.42-1-.77-1.23-.42-.26-.99-.13-1.39.23-.01.01-.05.07-.09.12-.02-.08-.05-.17-.05-.22-.01-.07-.02-.13-.03-.27,0,0-.02-.19-.03-.26-.06-.46-.23-1.1-.44-1.64-.29-.73-.63-1.24-1.05-1.41-.54-.22-1.12.16-1.55.77-.02.03-.06.1-.2.4,0,0-.01.02-.01.03,0-.02,0-.04-.01-.05-.02-.06-.03-.1-.06-.21,0,0-.07-.24-.1-.34-.02-.05-.07-.21-.08-.23-.13-.4-.22-.61-.37-.83-.31-.47-.82-.97-1.32-1.23-.25-.13-.5-.21-.73-.22Z"/>
      <path class="cls-1" d="M22.42.62c.21-.03.44.03.7.16.43.23.9.68,1.17,1.09.12.18.2.37.32.73,0,.02.06.19.08.24.03.08.05.15.09.31,0,0,.04.16.06.22,0,.02.01.04.02.09,0,.01.01.05.01.06.02.1.04.17.08.23.06.11.16.19.29.19.1,0,.11-.01.16-.09,0,0,0-.01.01-.02,0,0,.01-.02.02-.03.01-.02.31-.65.32-.67,0-.01.01-.02,0-.02.33-.47.76-.75,1.08-.63.54.22,1.09,1.61,1.24,2.73,0,.06.01.12.02.23,0,0,.02.22.03.31.01.09.05.23.09.38.02.06.04.12.05.17,0,.02.01.04.02.06,0,.01,0,.02.01.03.05.11.06.12.18.12s.16-.05.31-.23c0-.01.02-.02.03-.03.03-.04.1-.14.12-.16.29-.25.67-.34.91-.19.25.16.43.49.6,1,.04.11.07.23.11.39,0,.03.08.31.1.36.05.19.11.39.15.61.08.36.14.66.25,1.31.09.51.12.73.18,1.01.01.07.03.14.06.25,0,.02.07.24.08.28.03.12.06.22.08.33,0,.04.03.16.04.17.01.05.02.08.02.12.01.12,0,.25-.07.6,0,.01,0,.02,0,.04-.36.97-.61,1.55-.97,2.14-.52.84-1.25,1.68-1.96,2.25-.05.04-.09.07-.19.13,0,0,0,0-.01,0-.14.08-.2.13-.27.19-.15.13-.29.27-.48.45-.03.03-.2.2-.23.23-.48.48-.75.72-1.11.96-.24.16-.45.27-.93.49,0,0-.66.31-.9.47-.13.08-.26.15-.52.28-.03.01-.03.01-.06.03-.37.19-.56.3-.75.44-.07.05-.12.08-.19.13-.17-.23-.4-.43-.79-.69,0,0-.04-.03-.05-.03.02-.01.04-.01.05-.03.65-.88,1.09-1.87,1.39-3.03.24-.93.37-1.89.49-3.28.15-1.8-.01-3.48-.54-5.01-.05-.16-.11-.27-.24-.52,0,0-.14-.25-.18-.35-.09-.21-.15-.39-.28-.8,0,0-.17-.5-.24-.69-.04-.11-.2-.5-.23-.59-.09-.22-.15-.4-.22-.56-.23-.64-.37-1.16-.43-1.74,0-.03,0-.06-.01-.11-.07-.6-.09-.85-.06-1.15.03-.39.14-.71.36-1,.15-.21.34-.32.54-.35Z"/>
      <path class="cls-1" d="M35.52,6.93c.61.08.81.79.72,1.87,0,.02-.03.19-.08.46,0,0-.08.47-.08.48,0,0,0,0,0,.01-.01-.01-.01-.01.08.19.07.05.12.05.18.03.02,0,.03,0,.05-.02.02,0,.04-.02.07-.04.04-.03.1-.07.17-.11.11-.08.26-.18.4-.29.78-.58,1.28-.76,1.56-.37.19.27.24.64.18,1.13-.02.21-.06.41-.13.71-.01.05-.08.35-.09.4-.04.18-.06.32-.12.65-.1.63-.17.91-.29,1.25-.18.47-.34.84-.68,1.65,0,.01-.01.02-.03.05,0,0,0,0,0,0-.05.08-.07.13-.08.21-.02.15.05.27.17.33.07.03.15.04.25.04.05,0,.1,0,.15-.02.02,0,.18-.03.18-.03.28-.04.4-.05.5-.02.1.03.15.1.16.28.03.35-.08.65-.39,1.2-.01.02-.14.24-.16.29-.1.18-.16.34-.3.69,0,0-.16.41-.23.55-.11.22-.23.44-.36.69,0,0,0,0,0,0,0,0,0,0,0,0-.03.03-.04.05-.06.09-.04.08-.02.18.05.25.12.13.23.13.45.08.02,0,.04,0,.05,0,.08-.01.09-.01.1,0,.29.44.16.99-.28,1.88-.66,1.35-1.4,2.33-2.35,2.97-1.31.89-2.79,1.54-4.3,1.9-.02,0-.73.17-.86.21-.3.07-.54.12-.77.17-.73.14-1.36.18-2.04.11-.43-.04-.77-.14-1.52-.38-.06-.02-.07-.02-.1-.03-.34-.11-.54-.17-.76-.23-.52-.13-.88-.3-1.6-.7-.04-.02-.04-.02-.07-.04-.83-.47-1.28-.66-1.94-.78-.11-.02-.21.05-.23.17-.02.11.05.21.16.23.6.11,1.01.29,1.81.74.04.02.04.02.07.04.75.42,1.14.6,1.7.75.21.05.41.11.74.22.03,0,.05.02.1.03.75.24,1.11.33,1.55.38-.02.05-.02.11,0,.17.09.19.15.37.26.78.01.05.02.08.03.11.15.56.26.85.47,1.13.15.21.27.4.51.83,0,0,0,0,0,.02.22.4.33.59.48.8.59.84,1.38,1.66,2.5,2.66.14.13.28.23.54.41t.03.02c.19.13.28.19.38.27.11.09.57.45.69.54.87.69,1.43,1.15,1.98,1.64.9.8,1.42,1.45,1.57,2.14.01.05.02.19.01.31,0,.06-.01.11-.02.14-.01,0-.02,0-.04,0-.01,0-.02,0-.03-.01,0-.23-.33-.27-.39-.05,0,0,0,.02,0,.04,0,.02,0,.04,0,.07,0,.01,0,.03.01.04h0s0,.24,0,.28c0,.15-.03.21-.09.24-.17.07-.46-.24-.46-.46h0s0-.02,0-.04c0-.01,0-.01-.01-.03-.01-.03,0-.03-.09-.11h-.04s-.09-.02-.09-.02l-.07.03-.03.02h-.01c-.03.06-.03.06-.04.08-.01.06-.01.06-.01.06h0v.02s0,.03,0,.05c0,0,0-.01,0-.02,0-.02,0-.03,0-.03,0,.04-.02.42-.02.44,0,0,0,.08-.02.16,0,.01-.02.15-.02.2-.02.25-.15.4-.46.55-.14.07-.29.08-.47.04-.22-.06-.46-.19-.79-.42-.04-.03-.23-.17-.26-.19-.1-.07-.17-.12-.24-.17-.55-.36-1.02-.79-1.46-1.35-.35-.43-.62-.83-1.16-1.69-.11-.18-.22-.31-.46-.57,0,0,0,0,0,0-.2-.22-.29-.32-.38-.45-.81-1.19-1.41-1.81-2.28-2.26-1.01-.51-2.34-.75-3.52-.66-.25.02-.4.03-.92.08-.62.06-.95.09-1.32.11-1.14.06-2.01-.05-2.77-.39-.34-.15-.61-.32-1.11-.67-.02-.01-.37-.26-.49-.33-.08-.05-.43-.28-.48-.31-.7-.45-1.07-.72-1.44-1.06-1.71-1.6-3.04-3.52-3.68-5.48-.28-.85-.48-1.81-.62-2.91,0-.07-.02-.16-.03-.28-.04-.37-.04-.4-.06-.55-.07-.5-.18-.86-.38-1.14-.47-.66-.84-1-1.63-1.5-.88-.56-1.33-1.25-1.37-2.21-.05-.97.36-1.78,1.15-2.39.72-.55,1.71-.88,2.71-.93,1.02-.05,2.5.87,2.9,1.81.3.71.81,1.26,1.77,2.05.05.04.32.26.36.29.38.31.83.53,1.49.79.08.03.55.2.57.21.8.29,1.45.67,2.69,1.46.03.02.8.51.84.54.34.22.54.4.68.57-.2.12-.39.21-.56.25-.54.13-1.08.14-1.86.07-.14-.01-.25-.02-.49-.05-.66-.06-.96-.09-1.33-.09-.11,0-.2.09-.2.2s.09.2.2.2c.36,0,.64.02,1.29.08.25.02.36.03.5.05.82.07,1.4.06,1.98-.08.37-.09.76-.32,1.23-.68.17-.13.34-.23.69-.41t.06-.03c.27-.14.4-.21.55-.31.22-.14.41-.24.85-.44,0,0,0,0,0,0,.5-.23.72-.35.99-.53.38-.26.67-.52,1.17-1.01.03-.03.19-.19.23-.23.18-.18.32-.31.47-.44.05-.04.1-.08.21-.14,0,0,0,0,.02-.01.12-.07.18-.11.24-.16.74-.6,1.49-1.47,2.04-2.35.43-.68.68-1.27,1.13-2.52.2-.56.27-.75.38-1.02.04-.11.09-.22.14-.33.17-.4.35-.75.73-1.43.28-.49.35-.63.47-.86.44-.84,1.29-1.68,1.85-1.61Z"/>
      <path class="cls-3" d="M3.86,8.86c.1,0,.21.02.32.07,0,0,.07.03.08.04.04.02.06.03.06.03,0,0,0,0,0,.01,0,.01.02.06.02.06.03.09.03.19,0,.31-.03.13-.1.27-.21.47-.01.03-.12.21-.15.26-.01.02-.04.09-.06.11-.04.07-.07.12-.09.16-.04.06-.03.12,0,.18h0s0,0,.01.01c.02.03.03.07.06.09,0,0,.01,0,.02,0,.05.03.11.05.17.03,0,0,.03,0,.07.01.03,0,.06.02.11.04,0,0,.06.02.07.03.03.01.05.02.08.03.03.01.23.08.25.08.16.05.26.1.34.16.15.1.24.31.24.55,0,.01,0,.09,0,.11,0,.03,0,.05,0,.05,0,0,0,0-.02.02,0,0-.03.03-.04.04-.11.11-.29.15-.56.14-.09,0-.17-.01-.32-.03-.01,0-.17-.02-.2-.02-.02,0-.13-.01-.14-.01-.07,0-.12,0-.16-.02-.11-.02-.21.06-.23.17,0,0,0,.02,0,.03,0,.04,0,.08.03.12,0,0,0,0,0,0,0,0,0,.02,0,.03,0,.01.02.05.01.13,0,.02-.01.19-.01.23,0,.05,0,.29,0,.33,0,.13,0,.23-.03.32-.05.18-.21.33-.42.42,0,0-.05.02-.06.02-.02,0-.04.02-.06.02-.02,0-.03,0-.04,0,0,0,0,0,0,0,0,0-.02,0-.03-.01,0,0-.03-.02-.04-.02-.15-.07-.26-.26-.34-.57-.02-.06-.03-.11-.05-.19,0,0-.05-.22-.06-.24,0-.03-.05-.19-.06-.23,0,0,0,0,0,0,.01-.07,0-.14-.05-.19-.06-.05-.13-.05-.2-.03,0,0,0,0,0,0,0,0-.01.01-.02.01-.02.01-.05.01-.06.03-.01.01-.06.03-.14.04-.02,0-.03,0-.09.01-.06,0-.09,0-.12.02-.05,0-.06.01-.17.03-.1.02-.16.03-.22.04-.1.01-.17.02-.24.01-.18-.02-.36-.15-.48-.35-.02-.03-.03-.04-.04-.06-.01-.02-.02-.04-.03-.06,0-.01,0-.03,0-.03,0,0,0,0,0,0,0,0,.02-.06.02-.07.05-.17.22-.31.52-.46.08-.04.33-.15.36-.17.02-.01.04-.02.09-.04.09-.04.13-.06.18-.08.1-.04.16-.16.12-.26,0-.02-.02-.02-.03-.03,0-.02-.02-.02-.03-.04-.02-.02-.04-.03-.06-.04-.01,0-.02-.02-.03-.02-.02,0-.06-.04-.12-.13-.01-.01-.05-.07-.05-.07-.02-.03-.04-.05-.06-.08-.02-.03-.13-.15-.14-.17-.13-.15-.2-.25-.25-.35-.08-.17-.05-.39.06-.6,0,0,.04-.07.04-.08.02-.04.04-.06.04-.06,0,0,0,0,.01,0,.01,0,.06-.01.06-.01.04-.01.08-.01.12-.01.16.01.34.1.6.29.03.02.2.15.25.19.02.01.08.05.1.07.07.05.11.08.15.11.07.06.16.04.23,0,.01,0,.02-.01.04-.02,0,0,.01,0,.02,0,.01-.01,0-.03.01-.05.01-.02.03-.04.04-.07,0-.02.04-.06.11-.13.01-.01.06-.05.06-.06.03-.03.05-.04.07-.07.02-.02.14-.15.15-.17.13-.15.21-.22.3-.28.08-.05.17-.07.27-.07Z"/>
      <path class="cls-4" d="M3.02,10.4c-.34,0-.7.26-.69.65,0,.19.08.29.25.43,0,0,.02.02.02.02.49.41,1.22-.14.93-.77-.11-.23-.3-.33-.51-.34Z"/>
      <path class="cls-2" d="M2.95,10.82s.08,0,.11,0c.05.01.08.04.11.09.11.23-.14.43-.31.28,0,0-.02-.02-.02-.02-.08-.07-.1-.09-.1-.12,0-.12.11-.21.22-.23Z"/>
      <path class="cls-2" d="M6.93,15.53s.05,0,.07,0c0,.06,0,.1,0,.14,0,0,0,.03,0,.04,0,.04,0,.08-.01.12,0,.03,0,.05,0,.12,0,.13,0,.18,0,.25,0,.08-.01.14-.02.19-.02,0-.04-.01-.07-.03-.01,0-.06-.02-.06-.03-.03-.01-.05-.02-.07-.03-.28-.09-.71-.42-.79-.59.02,0,.05-.01.06-.01.02,0,.04,0,.05-.01.16-.05.37-.11.55-.14.12-.02.22-.04.3-.04Z"/>
    </g>
  </g>
</svg>