<?xml version="1.0" encoding="UTF-8"?>
<svg id="_レイヤー_2" data-name="レイヤー 2" xmlns="http://www.w3.org/2000/svg" viewBox="0 0 202.46 174.77">
  <defs>
    <style>
      .cls-1 {
        fill: #6b5d5d;
      }

      .cls-1, .cls-2, .cls-3 {
        stroke-width: 0px;
      }

      .cls-2 {
        fill: #fff;
      }

      .cls-3 {
        fill: #d1a026;
      }
    </style>
  </defs>
  <g id="PC">
    <g>
      <path class="cls-1" d="M156.18,0c-5.12.04-9.86,1.61-13.32,4.81-2.28,2.11-4.09,4.67-6.49,8.76-.32.55-1.71,2.94-2.07,3.55-.26.45-.5.85-.73,1.23-.23.38-.5.79-.89,1.33-.19.26-.95,1.29-1.13,1.54-1.55,2.15-2.47,3.75-2.89,5.34-.54-.49-.91-.86-1.69-1.54.06.05-1.63-1.39-1.91-1.64-.89-.78-4.65-4.26-5.62-5.12-6.98-6.21-12.44-9.45-18.1-9.51-.81-.01-1.62.05-2.44.17-.06.01-.75.1-.87.12-.31.04-.57.08-.82.12-.95.17-1.69.39-2.31.77-1,.61-1.91,1.57-2.92,2.93-.21.29-.42.59-.67.94-.13.19-.54.8-.56.84-4.04,5.89-5.6,12.74-3.59,18.7,1.06,3.12,2.68,5.83,5.8,10.16.23.32,1.18,1.62,1.42,1.95.53.74.95,1.33,1.33,1.9,0,0,.58.87.97,1.55-.05-.09.82,1.44,1.08,1.88,1.37,2.32,2.59,3.87,4.03,4.83-.66.58-1.22,1.04-2.2,1.97-.58.55-1.59,1.5-1.79,1.69-.83.76-4.87,4.31-5.98,5.33-7.66,7.02-11.42,12.62-11.15,19.15,0,.12.04,1.39.07,1.78.07.93.21,1.67.51,2.31.51,1.09,1.4,2.11,2.7,3.29.25.23.51.45.82.72.16.14.68.59.73.63,5.44,4.64,12.06,6.89,18.2,5.51,3.25-.73,6.11-2.07,10.88-4.8.21-.12,1.61-.93,2.01-1.16.76-.43,1.35-.76,1.93-1.08.25-.14.55-.28.89-.44.47-.22,2.43-1.08,2.87-1.28,1.94-.89,3.35-1.75,4.42-2.75.12.58.23,1.1.46,2.08.27,1.17.35,1.56.48,2.14.11.49.22,1.03.34,1.64.13.66.68,3.39.82,4.08.34,1.68.63,3.05.96,4.37,2.11,8.68,5.1,14.23,10.41,17.04.14.07.8.44.99.55.42.22.79.41,1.14.56.6.25,1.14.41,1.67.46.87.08,1.85-.05,2.95-.32.6-.15,1.22-.33,1.95-.58.2-.07,1.12-.4,1.25-.45,6.75-2.36,12.05-6.94,13.95-12.94.81-2.55,1.18-5.35,1.3-9,.03-1.08.04-1.92.05-3.82.01-1.79.02-2.59.05-3.53.02-.66.06-1.09.26-2.79.12-1.02.18-1.63.22-2.31.11-1.54.06-2.85-.17-4.01.57-.02,1.05,0,1.74-.03.42-.02,3.01-.16,3.59-.19.94-.04,1.81-.07,3.55-.1,3.93-.09,5.58-.13,7.79-.31,8.3-.66,14.02-2.7,17.55-7.26.08-.1.62-.77.79-.99.39-.5.68-.92.92-1.35.22-.39.38-.78.48-1.16.25-.92.3-1.99.19-3.26-.06-.63-.16-1.27-.29-2.08-.03-.21-.14-.85-.15-.92-1.16-7.05-4.77-13.08-10.35-15.98-2.55-1.33-5.42-2.17-9.46-2.97-.91-.18-.98-.19-3.41-.63-1.34-.24-2.15-.4-2.99-.58-.68-.14-.71-.14-2.97-.8-1.09-.32-1.85-.53-2.63-.7-1.26-.27-2.4-.42-3.43-.38-.27.01-.51.07-.77.1.21-.64.39-1.11.65-1.96.04-.15.68-2.25.84-2.75.23-.74.48-1.52.85-2.63.1-.32.81-2.42.96-2.85,1.16-3.54,1.9-6.14,2.42-8.73,1.28-6.34.9-11.45-1.72-15.57-.04-.05-.57-.93-.77-1.23-.6-.92-1.13-1.57-1.78-2.02-.88-.61-2-1.02-3.45-1.37-.42-.1-.86-.2-1.37-.29-.19-.04-1.12-.19-1.2-.21-1.76-.32-3.5-.48-5.21-.46Z"/>
      <path class="cls-2" d="M156.3,2.73c1.51-.01,3.05.13,4.61.41.08.02.98.19,1.16.22.46.09.87.16,1.25.25,1.14.27,1.99.58,2.53.96.28.19.62.6,1.04,1.25.17.26.7,1.13.75,1.21,2.18,3.41,2.51,7.85,1.35,13.55-.5,2.46-1.21,4.97-2.34,8.41-.14.43-1.59,4.77-1.83,5.53-.16.51-.79,2.62-.84,2.76-.53,1.78-.91,2.92-1.33,4.05-.27.7.1,1.49.8,1.76.17.07.34-.01.51-.02.35.14.73.15,1.09-.02,1.07-.51,2.52-.52,4.51-.08.7.15,1.39.34,2.42.65,2.38.7,2.4.7,3.19.87.86.18,1.71.33,3.07.58,2.41.44,2.47.46,3.36.63,3.81.75,6.45,1.53,8.72,2.72,4.73,2.46,7.88,7.73,8.91,14,.01.08.12.72.15.92.12.75.21,1.32.26,1.88.09.98.06,1.76-.09,2.32-.04.14-.12.32-.24.52-.16.3-.39.61-.7,1.01-.15.19-.67.86-.77.99-2.94,3.8-8.01,5.59-15.62,6.2-2.13.17-3.76.23-7.63.31-1.76.04-2.62.06-3.59.1-.59.02-3.19.16-3.6.19-1.09.05-1.9.07-2.73.07-.02-.03-.03-.07-.05-.1-.22-.31-.54-.49-.89-.55-.34-.06-.7.02-1.01.23-.61.44-.76,1.28-.32,1.9.76,1.07,1,2.67.84,5.04-.04.62-.11,1.19-.22,2.17-.2,1.78-.25,2.26-.27,3.02-.03.98-.04,1.79-.05,3.61-.01,1.88-.02,2.71-.05,3.75-.11,3.42-.44,6-1.16,8.27-1.61,5.08-6.26,9.08-12.26,11.18-.13.04-1.04.38-1.23.45-.66.22-1.21.38-1.72.51-.84.21-1.51.29-2.03.24-.21-.02-.51-.1-.87-.26-.27-.11-.55-.25-.9-.44-.17-.09-.85-.46-1.01-.55-4.43-2.35-7.11-7.3-9.05-15.28-.31-1.28-.59-2.62-.92-4.27-.14-.69-.68-3.41-.82-4.08-.13-.62-.23-1.16-.34-1.67-.13-.59-.92-4.01-1.08-4.73-.17-.82-.3-1.57-.41-2.27-.12-.74-.83-1.24-1.57-1.13-.42.07-.73.34-.92.68-.16.13-.35.22-.44.43-.6,1.35-2.08,2.43-4.76,3.66-.41.19-2.37,1.04-2.89,1.28-.38.19-.72.35-1.02.51-.6.33-1.23.67-2,1.11-.41.23-1.81,1.04-2.01,1.16-4.54,2.6-7.2,3.85-10.11,4.51-5.2,1.17-11.01-.81-15.84-4.93-.06-.05-.56-.48-.72-.62-.29-.25-.52-.46-.75-.67-1.05-.96-1.75-1.76-2.07-2.44-.13-.26-.23-.7-.27-1.33-.02-.32-.02-.56-.03-1.18,0-.24-.01-.37-.02-.51-.23-5.47,3.16-10.53,10.26-17.03,1.08-.99,5.12-4.56,5.98-5.35.21-.19,1.23-1.14,1.81-1.69,1.58-1.48,2.48-2.29,3.48-3.11.58-.48.66-1.34.19-1.93,0-.01-.03,0-.03-.02-.16-.31-.43-.56-.79-.68-1.42-.46-2.66-1.82-4.2-4.44-.25-.42-1.1-1.93-1.06-1.86-.43-.74-.74-1.26-1.06-1.73,0,0-.84-1.19-1.38-1.94-.24-.34-1.19-1.65-1.42-1.96-2.97-4.12-4.5-6.64-5.45-9.42-1.71-5.05-.35-11.05,3.24-16.29.03-.04.44-.63.56-.82.23-.33.44-.61.63-.87.81-1.1,1.51-1.84,2.13-2.22.26-.16.72-.29,1.37-.41.21-.04.43-.07.7-.1.11-.02.86-.13.92-.14,5.5-.81,10.9,2.1,18.3,8.69.94.84,4.73,4.31,5.65,5.12.29.25,1.98,1.71,1.91,1.66,1.6,1.38,2.5,2.19,3.41,3.09.54.53,1.4.54,1.93,0,.07-.07.05-.16.1-.24.33-.28.56-.64.51-1.11-.02-.2-.01-.42,0-.63.1-1.44.9-2.99,2.63-5.39.17-.23.91-1.26,1.11-1.54.43-.6.75-1.06,1.02-1.5.24-.39.48-.8.75-1.26.37-.63,1.75-3.02,2.07-3.55,2.27-3.88,3.96-6.24,5.99-8.13,2.93-2.72,7.06-4.07,11.58-4.1Z"/>
      <path class="cls-1" d="M135.61,44.27c-.69.05-1.41.15-2.13.32-11.35,2.66-9.8,20.17,1.11,22.32,3.03.6,4.94-.29,8.23-2.92.24-.19.51-.4.55-.43,3.99-3.16,5.04-8.53,2.97-13.07-1.89-4.15-5.87-6.58-10.72-6.22Z"/>
      <path class="cls-3" d="M137.3,46.99c3,.24,5.34,1.95,6.56,4.63,1.56,3.44.78,7.47-2.19,9.82-.04.03-.33.25-.56.44-2.7,2.16-4,2.75-5.99,2.35-3.67-.72-6.32-4.21-6.69-8.38-.37-4.23,1.7-7.65,5.69-8.59,1.13-.26,2.19-.36,3.19-.27Z"/>
      <g>
        <path class="cls-1" d="M51.35,84.24c-5.3-.35-10.27,1.24-13.33,4.81-1.47,1.72-2.59,3.73-3.94,6.8-.24.54-1.5,3.44-1.69,3.86-.13.27-.29.57-.51.97-.12.22-.59,1.05-.65,1.16-.69,1.23-1.11,2.09-1.42,3-.16.48-.24.94-.31,1.4-.45-.14-.78-.27-1.37-.44-.18-.05-1.63-.48-2-.58-.54-.16-2.2-.68-2.41-.75-.25-.08-1.26-.42-1.57-.51-2.57-.82-4.43-1.34-6.32-1.7-1.19-.23-2.32-.39-3.4-.46-3.23-.21-5.97.35-8.3,1.86-.04.02-.69.42-.91.56-.7.46-1.2.9-1.55,1.42-.47.69-.78,1.54-1.02,2.63-.07.31-.14.65-.2,1.02-.03.14-.14.78-.15.87-.9,5.23.18,10.34,3.41,13.76,1.58,1.68,3.47,3,6.49,4.73.42.24,2.14,1.21,2.56,1.45.34.2.65.38.94.55.26.16.55.36.94.63.19.14.95.68,1.13.8,1.3.92,2.31,1.46,3.29,1.82-.22.21-.33.28-.6.53-.41.39-1.15,1.09-1.3,1.23-.6.56-3.5,3.17-4.3,3.91-5.62,5.22-8.38,9.39-8.14,14.29,0,.09.03,1.03.05,1.32.06.72.18,1.3.43,1.81.4.84,1.08,1.61,2.07,2.5.19.16,1.11.94,1.14.97,4.06,3.41,9.02,5.08,13.61,4.01,2.41-.56,4.51-1.56,7.99-3.58.16-.09,1.16-.69,1.45-.85.55-.32.98-.57,1.4-.8.17-.09.37-.2.6-.31.35-.17,1.79-.81,2.1-.96,1.19-.55,2.12-1.09,2.87-1.69.3.46.49.79.94,1.47.65.97.69,1.05.94,1.43.39.6,2.66,4.23,3.38,5.33,4.04,6.14,7.65,9.48,12.41,10.07.07.01.48.06.55.07.34.04.59.08.85.1.67.05,1.22.03,1.74-.12.38-.1.78-.26,1.18-.48.56-.31,1.12-.7,1.76-1.21.18-.14.99-.82,1.04-.87,4.07-3.41,6.54-8.02,6.28-12.72-.04-.8-.14-1.6-.31-2.44-.36-1.81-.89-3.44-1.93-6.23-.04-.11-.47-1.27-.55-1.49-.2-.55-.37-.99-.51-1.42-.11-.33-.21-.72-.36-1.28-.04-.17-.39-1.48-.46-1.75-.39-1.41-.85-2.5-1.42-3.38.4-.09.74-.16,1.4-.33.86-.21,1.14-.29,1.55-.39.3-.08,3.63-.79,4-.87,1.26-.28,2.27-.53,3.24-.78,6.42-1.68,10.54-3.97,12.58-8.01.05-.1.3-.6.38-.73.16-.32.28-.57.39-.84.2-.48.31-.94.34-1.38.05-.67-.06-1.39-.27-2.22-.12-.45-.25-.92-.44-1.45-.05-.15-.33-.83-.36-.92-1.85-4.98-5.34-8.87-9.85-10.21-1.88-.56-3.93-.78-6.57-.82-.8-.01-1.45-.02-2.85,0-1.33.02-1.9.03-2.6.02-.46,0-.8-.04-1.98-.15-.75-.07-1.18-.11-1.67-.14-1.08-.06-2,0-2.83.15.05-.26.1-.42.15-.72.04-.21.32-1.78.39-2.17.1-.51.68-3.31.75-3.67.51-2.45.82-4.14,1.02-5.87.62-5.33-.01-9.42-2.51-12.49-.04-.05-.49-.6-.65-.79-.55-.67-1.02-1.13-1.59-1.44-.71-.38-1.58-.6-2.65-.73-.33-.04-.66-.08-1.04-.1-.15-.01-.93-.05-.96-.05Z"/>
        <path class="cls-2" d="M51.18,86.96s1.35.09,1.83.15c.77.09,1.35.23,1.71.43.17.09.43.36.77.76.13.16.55.69.61.77,1.93,2.38,2.47,5.8,1.93,10.47-.19,1.64-.48,3.26-.97,5.63-.07.36-.67,3.2-.77,3.72-.08.4-.36,1.98-.39,2.19-.22,1.25-.39,2.09-.6,2.9-.18.73.26,1.48.99,1.66.07.02.13-.04.2-.04.4.12.82.11,1.18-.15.68-.5,1.78-.68,3.45-.6.44.02.84.07,1.55.14,1.27.12,1.63.15,2.2.15.72.01,1.31,0,2.66-.02,1.37-.02,2.01-.01,2.78,0,2.42.03,4.24.22,5.84.7,3.59,1.07,6.49,4.3,8.06,8.53.03.09.29.76.34.91.17.47.3.87.39,1.23.15.56.21,1.01.19,1.33,0,.11-.06.31-.15.55-.07.18-.18.38-.31.63-.06.12-.31.6-.38.72-1.59,3.15-5.09,5.12-10.82,6.62-.94.25-1.91.46-3.14.74-.36.08-3.73.82-4.05.9-.43.1-3.05.74-3.62.87-.52.11-.99.21-1.43.29-.74.13-1.24.84-1.11,1.58.02.14.15.21.2.33.07.36.26.69.58.9.77.52,1.32,1.6,1.84,3.49.07.25.4,1.54.44,1.73.16.63.29,1.07.43,1.48.15.45.69,1.92.8,2.22.07.19.23.62.27.73.99,2.66,1.49,4.2,1.81,5.82.14.73.22,1.4.26,2.07.21,3.74-1.85,7.57-5.31,10.48-.06.05-.83.69-.99.82-.52.42-.97.73-1.37.94-.23.13-.43.21-.6.26-.14.04-.41.05-.79.02-.2-.02-.41-.03-.7-.07-.06-.01-.5-.08-.58-.09-3.72-.46-6.84-3.35-10.47-8.86-.7-1.06-2.97-4.69-3.38-5.33-.25-.39-.3-.47-.96-1.45-.72-1.08-1.08-1.66-1.47-2.31.18-.64-.07-1.34-.7-1.62-.69-.31-1.51.01-1.81.7-.39.87-1.39,1.62-3.26,2.49-.28.13-1.73.79-2.12.98-.27.13-.52.25-.73.37-.44.24-.89.49-1.45.82-.29.17-1.31.76-1.47.85-3.25,1.9-5.16,2.82-7.22,3.3-3.65.85-7.77-.52-11.23-3.43-.04-.04-.91-.78-1.08-.92-.74-.66-1.23-1.22-1.43-1.66-.07-.15-.12-.43-.15-.84-.02-.22-.02-.39-.03-.85,0-.16-.01-.26-.02-.36-.19-3.85,2.2-7.46,7.27-12.18.77-.72,3.67-3.32,4.3-3.91.15-.14.92-.85,1.33-1.25,1.13-1.08,1.78-1.66,2.49-2.26.58-.48.65-1.35.17-1.93-.14-.17-.34-.2-.53-.29,0,0-.01,0-.02,0-.13-.06-.23-.19-.38-.21-.05,0-.1.05-.15.05-.16-.04-.29-.16-.46-.14-.18.02-.37.02-.56,0-.94-.11-1.96-.67-3.57-1.81-.16-.11-.92-.66-1.13-.8-.44-.31-.79-.54-1.13-.74-.3-.18-.63-.37-.99-.58-.44-.25-2.15-1.22-2.56-1.45-2.8-1.6-4.5-2.8-5.86-4.23-2.57-2.73-3.47-6.97-2.7-11.42.02-.09.13-.73.15-.85.06-.34.11-.62.17-.89.18-.79.4-1.38.63-1.73.1-.15.37-.38.8-.66.18-.12.8-.5.87-.55,2.4-1.56,5.56-1.82,9.68-1.01,1.76.35,3.55.85,6.03,1.64.31.1,3.45,1.1,4.01,1.27.38.11,1.85.54,2.03.6,1.28.37,2.11.62,2.92.92.71.26,1.5-.1,1.76-.8.02-.07-.03-.13-.02-.19.11-.25.22-.51.15-.8-.11-.51-.06-1.13.19-1.86.23-.71.6-1.44,1.21-2.53.06-.1.53-.92.67-1.16.25-.45.44-.82.6-1.16.2-.44.4-.9.65-1.46.03-.07.82-1.91,1.06-2.44,1.26-2.84,2.26-4.63,3.52-6.1,2.44-2.84,6.59-4.19,11.1-3.89Z"/>
        <path class="cls-1" d="M43.5,119.84c-5.52-.14-11.09,5.74-8.96,11.73.79,2.21,2.14,3.16,4.97,4.23.07.03.51.21.6.24,3.62,1.39,7.56-.01,9.73-3.13,2.27-3.26,2-7.45-1.13-10.7-1.54-1.61-3.37-2.33-5.21-2.38Z"/>
        <path class="cls-3" d="M43.4,122.53c1.21.04,2.38.55,3.35,1.55,2.21,2.31,2.39,5.06.85,7.26-1.48,2.12-4.12,3.05-6.52,2.13-.09-.03-.53-.19-.6-.22-2.13-.81-2.94-1.38-3.38-2.62-.85-2.39.29-5.18,2.65-6.88,1.18-.85,2.44-1.27,3.65-1.23Z"/>
      </g>
    </g>
  </g>
</svg>