<?xml version="1.0" encoding="UTF-8"?>
<svg id="_レイヤー_2" data-name="レイヤー 2" xmlns="http://www.w3.org/2000/svg" viewBox="0 0 137 94">
  <defs>
    <style>
      .cls-1 {
        fill: #333;
        stroke-width: 0px;
      }
    </style>
  </defs>
  <g id="PC">
    <path class="cls-1" d="M87.61,0c-.17,0-.31.08-.43.19-.07.07-.12.13-.2.25,0,0,0,0-.01.01-.05.07-.07.11-.1.13-.11.11-.2.2-.38.41,0,0-.13.14-.18.2-.08.08-.28.29-.28.29-.29.3-.41.44-.57.62-.42.5-.74.92-1.42,1.85-.01.01-.77,1.05-1.07,1.42-.18.22-.39.45-.75.8-.03.03-.31.3-.36.35-.14.13-.25.24-.34.35-.03.04-.69.74-.71.76-.32.35-.53.59-.63.74-.19.28-.32.51-.59,1.03,0,0-.33.62-.47.84-.97,1.51-1.73,3.15-2.37,5.05-.5,1.48-.87,2.88-1.45,5.33-.05.2-.2.87-.23.97-.27,1.15-.53,2.06-1.15,4.09-.01.04-.02.04-.03.09-.52,1.72-.76,2.55-1.02,3.56-.1.4-.18.75-.35,1.43-.02.08-.06.28-.08.33-.52,2.21-.85,3.37-1.36,4.62-.22.54-.5.97-1.14,1.85-.03.04-.03.04-.06.09-.9,1.24-1.27,1.88-1.43,2.76-.05.24,0,.45.25.56.03.01.05,0,.08,0-12.79,11.42-23.23,22.9-31.54,35.11-4.2.43-8.2.65-12.06.65-4.25,0-8.6-.35-13-1.05-2.37-.38-4.77-1.09-7.79-2.24-.6-.23-1.04-.5-2.02-1.19-.51-.36-.74-.51-1.03-.7-.17-.1-.39-.05-.5.12-.05.08-.07.18-.05.27.02.09.08.17.16.22.28.17.5.33,1,.68,1.03.73,1.51,1.02,2.18,1.28,3.06,1.17,5.5,1.9,7.93,2.28,4.44.7,8.83,1.06,13.12,1.06,3.4,0,6.91-.19,10.56-.51-3.49,1.21-6.53,2.16-9.52,2.98-4.89,1.33-9.54,2.35-14.06,3.04-2.16.33-3.92.45-7.87.6-1.28.05-1.84.07-2.55.11-.22.01-.41,0-.84-.06-.23-.03-.33-.04-.47-.06-.2-.02-.38.13-.39.33s.13.37.33.39c.12.01.21.02.43.05.47.06.69.08.97.07.7-.04,1.26-.06,2.54-.11,3.98-.15,5.76-.27,7.96-.61,4.55-.7,9.22-1.72,14.13-3.06,3.1-.85,6.22-1.84,9.86-3.1-2.52,3.78-4.13,6.34-5.64,9.02-.7,1.25-1.2,2.28-2.25,4.61-.52,1.16-.76,1.67-1.07,2.31-.09.18,0,.4.17.48.18.09.39.01.48-.17.31-.64.54-1.16,1.07-2.33,1.05-2.32,1.53-3.33,2.22-4.56,1.53-2.71,3.15-5.27,5.74-9.17.13-.2.27-.4.41-.6.44-.16.93-.33,1.39-.5.76-.08,1.51-.16,2.29-.26,5.71-.72,11.08-1.69,16.17-2.96,4.45-1.11,8.85-2.55,14.91-4.79,4.59-1.69,9.16-3.62,13.69-5.76,1.9-.9,3.78-1.87,5.96-3.06.93-.27,1.91-.45,3-.54.52-.04,1.02,0,1.76.15.07.01.89.18,1.08.21.64.11,1.16.21,2.31.45.01,0,.65.14.9.19.2.04.48.08.92.13.04,0,.99.12,1.16.14.14.02.97.17,1.06.18.91.16,1.54.24,2.19.29.01,0,.03,0,.04,0,.22.02.39.02.78.03.66.01.95.03,1.31.1,2.28.45,4.18.97,5.8,1.61.35.14.62.27,1.22.59,0,0,.76.4,1.07.54.39.17.78.32,1.21.46.21.07.42.13.69.21-.05-.02.7.2.92.27,1.86.56,3.42,1.15,6.54,2.42.07.03,1.77.72,1.98.8.72.29,1.43.64,2.16,1.08,0,0,.03.02.08.08,0,0,0,0,.02.02.09.09.14.14.23.19.17.1.37.1.54-.03.14-.11.19-.27.16-.42,0-.05-.02-.1-.04-.15-.04-.08-.07-.13-.17-.24-.05-.06-.07-.09-.07-.09-.01-.02-.73-1.6-1.45-3.16-1.28-2.8-3.14-5.23-5.4-6.91-1.93-1.44-4.34-2.49-7.62-3.52-2.83-.89-5.91-1.1-9.18-.71-1.09.13-2.2.33-3.33.58-2.44.56-3.96.96-5.44,1.49,2.08-1.18,4.21-2.48,6.71-4.09,1.96-1.26,3.52-2.33,6.92-4.71.1-.07.1-.07.19-.13,1.24-.87,2.23-1.59,3.15-2.33,0,0,.51-.38.71-.54.14-.11.27-.22.37-.32.29-.28.46-.5.48-.74,0-.06,0-.11,0-.16-.03-.15-.14-.28-.3-.35-.14-.07-.32-.09-.54-.08-.2,0-.36.17-.35.37,0,.18.14.32.31.34-.03.03-.05.06-.09.1-.09.09-.21.18-.33.28-.19.15-.71.54-.71.54-.91.73-1.88,1.44-3.11,2.3-.1.07-.09.07-.19.13-3.39,2.37-4.95,3.44-6.9,4.69-2.65,1.71-4.9,3.08-7.1,4.32-.01,0-.29.16-.75.42-1.87,1.05-3.07,1.7-4.4,2.42-.59.26-1.08.47-1.54.67-.02,0-.1.05-.13.06-.86.32-1.68.73-2.51,1.24-.06.04-.09.06-.12.08-.03.03-.06.05-.09.1-.02.04-.02.04-.04.11,0,.05,0,.08,0,.11-.78.39-1.54.77-2.34,1.15-4.51,2.14-9.07,4.05-13.63,5.73-6.04,2.23-10.42,3.66-14.84,4.76-4.82,1.2-9.9,2.13-15.28,2.83,4.59-1.69,8.92-3.44,13.03-5.29,3.75-1.68,7.5-3.57,12.48-6.22,1.85-.98,3.69-2.11,5.99-3.62.39-.26,1.61-1.06,1.68-1.1,3.91-2.56,5.79-3.85,7.91-5.53,3.1-2.45,5.51-4.5,10.88-9.17,0,0,3.88-3.37,5.38-4.64.15-.13.17-.36.04-.51-.1-.11-.25-.15-.38-.11-.04.01-.09.04-.12.07-1.51,1.28-2.7,2.31-5.38,4.65,0,0-7.76,6.71-10.85,9.15-2.1,1.66-3.97,2.95-7.86,5.5-.07.05-1.29.84-1.68,1.1-2.28,1.5-4.11,2.61-5.93,3.59-4.97,2.65-8.7,4.53-12.44,6.2-4.35,1.95-8.93,3.79-13.81,5.57-.74.27-1.4.5-2.09.75-.15.02-.3.03-.44.05,8.86-12.9,20.11-24.99,34.04-37.08,4.54-3.94,9.2-7.56,13.95-10.82,3.88-2.66,6.68-4.46,9.55-6.08,3.55-2,6.9-3.52,10.27-4.59.19-.06.29-.26.23-.45-.06-.19-.26-.3-.45-.24-3.42,1.09-6.81,2.62-10.4,4.65-2.89,1.63-5.7,3.44-9.6,6.12-4.78,3.28-9.46,6.91-14.02,10.87-.08.07-.15.14-.23.21.05-.05.22-.23.21-.23,1.77-1.86,2.61-2.79,3.52-3.98.5-.65.98-1.18,1.93-2.16.04-.04.32-.34.38-.39.25-.26.45-.47.64-.67.97-1.04,1.93-2.19,3.13-3.72.57-.73,1.03-1.48,1.72-2.77.05-.09.3-.56.37-.69.15-.28.27-.5.39-.71.75-1.32,1.22-2.35,2.25-4.77.21-.49.23-.53.31-.72.64-1.51.99-2.51,1.24-3.62.13-.57.24-1.16.38-1.95.04-.25.22-1.32.24-1.42.04-.26.08-.52.12-.78.22-1.74.23-3.15.12-6.17-.02-.59-.03-.73-.04-1-.03-.86-.09-1.54-.22-2.22-.02-.08-.06-.2-.11-.29-.1-.19-.24-.32-.47-.32ZM87.51.93c.02.1.03.2.04.3-.03-.02-.05-.04-.09-.05-.05-.01-.1-.02-.14-.01,0,0,0,0-.01,0,.02-.02.05-.05.07-.07.05-.05.09-.1.13-.17ZM86.99,1.5c-.2.73-.38,1.32-.78,2.63-.01.04-.54,1.75-.72,2.4-.07.25-.16.46-.35.86-.02.03-.01.03-.03.06-.13.27-.2.42-.27.59-.19.46-.32.84-.6,1.69,0,0-.31.93-.44,1.27-.2.55-.35.99-.66,1.97,0,.02,0,.02-.01.05-.35,1.1-.52,1.61-.76,2.21-.24.62-.47,1.11-.99,2.19,0,0-.61,1.27-.82,1.77-.3.7-.53,1.28-1.02,2.55-.01.03-.01.03-.02.07-.69,1.78-1.02,2.6-1.48,3.57-.81,1.74-1.76,3.34-3.38,5.79-.44.66-.77,1.22-1.45,2.42-.02.03-.02.03-.03.06-.65,1.15-1.06,1.8-1.46,2.4,0-.02.02-.04.03-.06.53-1.29.87-2.48,1.4-4.72.01-.05.32-1.36.42-1.75.25-.99.49-1.81,1.01-3.52.01-.04.01-.05.03-.09.62-2.04.88-2.97,1.16-4.13.02-.11.18-.78.23-.98.58-2.43.94-3.81,1.43-5.27.62-1.84,1.36-3.43,2.3-4.89.16-.24.26-.44.5-.89,0,0,.39-.72.55-.96.08-.11.28-.34.57-.66.02-.02.67-.72.7-.76.09-.1.19-.2.32-.33.05-.05.33-.32.36-.35.38-.37.61-.61.81-.87.31-.39.55-.71,1.07-1.42,0-.01.01-.01.02-.03.67-.92.98-1.33,1.39-1.81.14-.17.26-.3.54-.58,0,0,.21-.21.29-.3.05-.05.15-.16.17-.19ZM87.63,1.89c.03.3.05.61.06.95,0,.27.01.41.04,1,.11,2.98.1,4.36-.11,6.05-.03.25-.07.51-.11.75-.02.1-.19,1.17-.24,1.42-.13.78-.24,1.36-.37,1.91-.24,1.05-.59,2.03-1.21,3.5-.08.19-.09.23-.3.72-1.02,2.4-1.49,3.4-2.22,4.69-.12.21-.25.44-.4.73-.07.13-.33.6-.37.69-.68,1.26-1.12,1.98-1.66,2.67-1.18,1.51-2.13,2.64-3.08,3.67-.19.2-.38.4-.63.66-.06.06-.34.35-.38.39-.97,1-1.47,1.55-1.99,2.22-.75.97-1.57,1.88-2.81,3.2.6-.83,1.04-1.55,1.94-3.12.02-.03.02-.03.03-.06.68-1.18,1-1.73,1.43-2.38,1.63-2.47,2.61-4.11,3.43-5.88.46-.99.8-1.82,1.5-3.62.01-.03.74-1.9,1.04-2.6.2-.48.39-.87.8-1.72,0,0,.77-1.61,1.02-2.26.24-.63.42-1.15.77-2.26,0-.02.47-1.45.67-1.98.13-.35.23-.64.44-1.28,0,0,.41-1.22.59-1.66.06-.15.12-.29.25-.54.02-.03.02-.03.03-.06.21-.44.31-.68.4-.98.18-.65.35-1.19.69-2.3.01-.04.5-1.65.76-2.53ZM121.11.79c-.11.01-.21.04-.32.07-.08.02-.34.11-.36.12-.07.02-.14.04-.22.06-.14.04-.27.06-.53.11,0,0,0,0-.01,0-.36.07-.52.1-.73.16-.24.07-.49.16-.76.28-.29.12-.56.25-.98.46-.05.03-.46.23-.54.27-1.77.86-3.24,1.77-4.58,2.85-.14.12-.26.21-.53.4,0,0-.7.53-.95.77-.43.41-.66.82-1.02,1.64,0,.02-.11.26-.13.3-.03.07-.06.13-.09.19-.18.39-.38.7-.82,1.32-.03.04-.03.04-.05.07-.31.44-.47.67-.64.96-.28.48-.49.95-.81,1.77-.04.1-.07.17-.15.35-.16.37-.22.54-.29.77-.01.05-.03.09-.06.17,0,.01,0,.02-.01.04-.13.34-.17.51-.15.75.03.27.27.39.49.34.04,0,.08-.02.12-.04.02,0,.08-.04.08-.04,0,0,0,0,.01,0,.09,0,.19,0,.28,0-.1.38-.14.76-.09,1.14.04.38.16.74.36,1.09.07.13.22.2.36.18.05,0,.1-.02.14-.04.17-.1.23-.32.14-.49-.29-.52-.36-1.1-.2-1.68.01-.05.02-.1.01-.14,0,0-.01-.02-.01-.03.25.02.52.03.85.07.07,0,.06,0,.13.03.12.05.22.05.41.03,1.04-.12,2.03-.53,3.05-1.19.4-.26.78-.46,1.54-.81.03-.01.05-.02.11-.05.57-.27.84-.4,1.16-.58.32-.18.57-.33,1.1-.68t.06-.04c.41-.27.63-.41.89-.56.48-.27.9-.45,1.83-.8.01,0,.01,0,.02,0,.79-.3,1.13-.44,1.56-.65.93-.46,1.49-1.05,2.49-2.41,0,0,.15-.2.18-.24.11-.15.25-.26.58-.47.01,0,.01,0,.02-.02.26-.16.39-.26.53-.39.43-.4.75-.8,1.14-1.4.07-.12.28-.43.36-.56.02.09.07.17.15.22.24.16.46.25.93.43.02,0,.02.01.05.02.7.27.98.43,1.19.73.44.63.55,1.47.34,2.3-.03.1-.06.18-.14.37t0,.02c-.1.24-.15.36-.18.52-.06.27-.04.46.05.88,0,.05.01.07.02.1.04.22.05.36.03.48-.11.68-1.21,1.94-1.8,2.07-.08.02-.14.07-.19.12-.35.04-.53.05-1.05.12-.75.1-1.09.15-1.5.2-.19.02-.34.05-.67.11-.09.02-.13.02-.18.03-.33.06-.55.09-.78.09-.26,0-.45.02-.9.07-.37.04-.53.05-.73.06-.31.02-.58.02-1.11.03-.42,0-.58,0-.79.01-.48.01-.9.04-1.29.09-.39.05-.75.12-1.11.22-.08.02-.88.24-.99.27-.5.14-.88.27-1.24.41-.18.08-.32.15-.6.32,0,0-.26.16-.36.21-.17.09-.31.15-.64.28-.01,0-.01,0-.02,0-.34.13-.5.21-.7.31-.56.29-.99.54-1.95,1.12-.01,0-.92.55-1.27.75-.13.07-.2.22-.18.36,0,.05.02.09.04.14.1.17.32.24.49.14.36-.2.65-.37,1.27-.74.01,0,1.4-.83,1.94-1.11.17-.09.32-.15.63-.28.01,0,.01,0,.02,0,.35-.14.51-.21.71-.31.12-.06.21-.11.4-.23h0c.24-.15.36-.22.49-.27.32-.13.69-.25,1.16-.39.11-.03.9-.25.98-.27.66-.18,1.33-.26,2.24-.29.21,0,.37,0,.78-.02.55,0,.82-.01,1.14-.03.22-.01.39-.03.76-.06.43-.04.62-.06.85-.07.27,0,.52-.04.88-.1.05,0,.09-.02.18-.03.31-.06.45-.08.62-.1.42-.05.76-.1,1.52-.2,1.31-.18,1.89-.25,2.62-.31.14-.01.26-.03.53-.07.17-.03.26-.04.36-.05.45-.06.74-.03.95.09.26.16.27.49.05.95-.35.73-1,1.25-1.86,1.55-.29.1-.53.17-1.07.32-.01,0-.01,0-.02,0-.96.26-1.4.41-1.92.67-.34.17-.61.34-1.14.7-.02.01-.03.01-.05.03-.63.42-.92.6-1.3.77-.21.09-.41.15-.81.25-.02,0-.44.11-.6.16-.05.02-.29.09-.33.11-.97.31-1.49.46-2.08.6-.49.11-.94.19-1.37.24-.42.04-.77.06-1.54.07-.12,0-.18,0-.24,0-.48,0-.81.02-1.14.05-.6.05-1.17,0-1.93-.16-.14-.03-.28-.06-.46-.1-.09-.02-.51-.11-.53-.12-.08-.02-.14-.02-.27-.04,0,0,0,0-.01,0-.16-.02-.23-.03-.29-.06-.07-.03-.12-.07-.26-.17,0,0,0,0,0,0-.21-.16-.32-.23-.49-.29-.07-.02-.13-.04-.21-.07-.03,0-.15-.04-.17-.05-.26-.07-.34-.13-.45-.32-.1-.17-.32-.24-.49-.14-.17.1-.23.32-.14.5.21.38.46.54.88.66.03,0,.14.04.17.05.07.02.12.03.17.05.07.02.14.06.29.18,0,0,0,0,0,0,.18.14.28.2.42.26.14.06.26.08.48.11,0,0,.17.02.22.03.03,0,.44.1.53.12.18.04.33.07.48.1.82.16,1.46.22,2.13.16.31-.03.63-.04,1.09-.05.07,0,.12,0,.24,0,.79-.02,1.15-.03,1.6-.08.46-.05.95-.13,1.46-.25.61-.14,1.14-.3,2.13-.61.04-.01.28-.09.33-.1.14-.04.26-.07.53-.14.02,0,.02,0,.03,0,.45-.11.67-.18.93-.3.43-.19.74-.38,1.41-.83.02-.01.02-.02.04-.03.5-.34.76-.49,1.07-.65.47-.23.88-.37,1.79-.62.01,0,.83-.23,1.14-.34,1.03-.36,1.83-1.01,2.27-1.92.18-.38.27-.75.23-1.07-.04-.33-.22-.61-.55-.81-.38-.23-.81-.26-1.41-.19-.11.01-.2.03-.38.05-.26.04-.36.06-.48.07-.02,0-.06,0-.08.01.58-.56,1.08-1.32,1.17-1.89.04-.23.02-.44-.03-.74,0-.03-.01-.05-.02-.11-.06-.32-.08-.45-.05-.59.02-.1.06-.19.14-.39t0-.02c.1-.22.14-.33.17-.48.13-.51.16-1.03.08-1.53-.07-.5-.25-.96-.53-1.37-.32-.46-.7-.68-1.53-.99-.02,0-.02,0-.05-.02-.42-.16-.61-.25-.79-.37-.08-.05-.18-.07-.27-.05,0,0,0,0-.01,0,.21-.35.36-.63.44-.93.17-.6.09-1.13-.32-1.58-.22-.23-.42-.29-.82-.34-.02,0-.02,0-.04,0-.08,0-.12-.01-.17-.02-.48-.1-.89-.09-1.61-.02-.03,0-.05,0-.1.01-.65.07-.94.09-1.28.04-.17-.02-.21-.03-.37-.1-.17-.07-.32-.09-.59-.09-.13,0-.25,0-.36.02ZM121,1.55c.14-.04.27-.06.47-.06.19,0,.25.01.34.04,0,0,.06.02.08.03.04.01.08.03.12.04.1.03.21.05.35.07.42.05.74.04,1.45-.04.05,0,.07,0,.1-.01.66-.07,1.01-.07,1.39,0,.07.01.13.02.23.03.02,0,.02,0,.04,0,.24.03.31.05.37.11.4.43.25.94-.4,1.96-.04.06-.33.53-.42.66-.36.55-.64.91-1.02,1.26-.1.1-.21.17-.43.31-.01,0-.01,0-.03.02-.41.26-.58.4-.77.65-.03.04-.18.24-.18.25-.93,1.27-1.43,1.8-2.22,2.19-.4.2-.73.33-1.49.62t-.02,0c-.97.37-1.42.56-1.94.85-.27.15-.5.3-.93.58t-.06.04c-.51.34-.75.49-1.05.65-.3.16-.56.29-1.12.55-.05.03-.08.04-.11.05-.78.37-1.19.58-1.63.86-.94.61-1.83.97-2.74,1.07-.04,0-.06,0-.07,0,0,0,0,0,0,0-.03-.01-.05-.02-.08-.03-.06-.02-.13-.03-.22-.04-.78-.08-1.3-.11-1.8-.08,0-.01,0-.02,0-.03,0-.02.01-.03.02-.04.03-.09.06-.15.08-.22.06-.19.11-.34.26-.69.08-.18.11-.26.16-.37.31-.79.5-1.23.76-1.67.15-.26.3-.48.6-.91.03-.04.02-.03.05-.07.46-.65.68-.99.89-1.43.03-.06.21-.49.22-.51.32-.74.52-1.08.86-1.41.22-.21.41-.36.87-.7,0,0,.41-.3.57-.43,1.3-1.05,2.73-1.93,4.45-2.77.08-.04.49-.24.54-.27.41-.2.67-.33.94-.44.25-.1.47-.19.68-.25.17-.05.32-.08.65-.15,0,0,.43-.08.6-.13.09-.02.17-.04.25-.07.04-.01.28-.09.34-.11ZM109.36,20.04c-.42.11-.81.35-1.37.79-.33.26-.38.3-.52.39-.07.05-.15.09-.24.12-.07.03-.13.04-.26.08-.18.05-.26.07-.37.11-.17.06-.28.13-.51.27,0,0,0,0-.01,0-.21.13-.3.19-.42.22-.05.02-.11.03-.18.04-.05,0-.09,0-.18.02-.3.02-.44.05-.62.12-.08.03-.15.06-.21.09-.12.06-.22.12-.32.19-.04.03-.15.12-.16.13-.07.05-.13.1-.21.15-.1.06-.2.11-.38.18-.02,0-.03.01-.06.02-.33.12-.48.19-.66.34-.29.22-.48.44-.84.92-.02.02-.02.02-.03.04-.18.23-.27.34-.38.47-.12.13-.22.24-.44.45-.02.02-.02.02-.04.04-.38.37-.56.57-.75.82-1.01,1.35-1.68,2.86-2.15,4.75-.15.59-.21,1.07-.27,1.92-.02.23-.03.41-.08.82,0,.04,0,.04,0,.07-.07.58-.1.89-.1,1.26,0,.01,0,.21,0,.26,0,.21,0,.39.03.57.07.61.26,1.03.71,1.13.05,0,.1,0,.14,0,.14-.03.25-.13.28-.28.04-.2-.08-.39-.28-.43,0,0-.02-.02-.05-.08-.04-.1-.08-.24-.1-.41-.02-.15-.02-.31-.02-.49,0-.04,0-.24,0-.25,0-.33.03-.62.09-1.18,0-.03.08-.68.1-.92.06-.81.11-1.25.25-1.79.46-1.81,1.08-3.24,2.03-4.5.16-.22.33-.39.68-.74.02-.02.02-.02.04-.04.23-.23.34-.34.47-.48.13-.14.23-.27.41-.51l.03-.04c.33-.43.5-.61.72-.79.11-.08.21-.13.47-.23.03-.01.04-.02.06-.02.23-.09.38-.16.53-.26.09-.06.17-.12.25-.18.02-.01.13-.1.16-.12.06-.05.12-.08.2-.12.04-.02.1-.05.16-.07.1-.04.19-.05.41-.07.1,0,.15-.01.21-.02.11-.01.21-.03.3-.06.2-.06.34-.13.6-.3,0,0,0,0,.01,0,.18-.12.26-.16.37-.2.08-.03.15-.05.31-.09.15-.04.23-.07.32-.1.15-.05.28-.12.4-.2.15-.1.21-.15.56-.42.64-.5.98-.68,1.39-.7,1.07-.04,1.69.49,1.49,1.42-.04.2.08.39.28.43.05,0,.1,0,.14,0-.03.02-.05.03-.08.05-.01,0-.02.01-.04.03-.1.07-.16.1-.21.14-.22.12-.42.22-.82.42-.03.02-.49.24-.66.33-.33.17-.64.32-1.2.58t-.1.04c-.84.38-1.21.56-1.67.82-2.54,1.42-5.24,3.87-6.64,6.14-.01.02-.02.04-.04.06-.05.08-.1.15-.17.25-.02.04-.13.2-.17.25-.28.43-.44.71-.58,1.08-.19.54-.3,1.18-.35,1.98-.02.37-.03.62-.05,1.31,0,.13,0,.24.03.35.06.34.23.66.54,1.14.2.31.27.42.34.57,0,0,.09.2.16.4,0,0,.15.38.22.53.02.03.07.16.08.17.13.28.21.43.36.59.22.23.51.3.86.26-.06.07-.08.16-.07.25,0,.09.05.18.13.25.52.43,1.27.54,2.28.45.32-.03.59-.07,1.08-.15.27-.04.35-.05.46-.07.4-.06.72-.12,1.42-.28.14-.03.2-.05.28-.06.48-.11.81-.17,1.14-.22.1-.01.42-.05.46-.06,1.09-.14,1.63-.23,2.26-.39.83-.21,1.54-.51,2.18-.93.11-.07.25-.19.41-.35.03-.02.06-.05.08-.08.1-.1.38-.38.37-.37.14-.14.14-.37,0-.51-.07-.07-.16-.11-.25-.11-.09,0-.18.03-.26.1,0,0-.27.27-.37.36-.03.03-.05.05-.08.07-.14.13-.25.23-.32.27-1.02.68-1.99.93-4.14,1.21-.04,0-.35.05-.46.06-.36.05-.7.12-1.2.23-.08.02-.14.03-.28.06-.68.16-.98.22-1.36.27-.12.02-.19.03-.47.07-.48.08-.74.11-1.04.14-.83.07-1.42-.01-1.75-.29-.01-.01-.03-.02-.05-.02.14-.04.29-.09.47-.15.06-.02.25-.09.25-.09.08-.03.13-.05.17-.06.18-.05.34-.09.68-.16.12-.03.16-.04.22-.05.45-.1.75-.18,1.03-.3.32-.13.57-.26,1.09-.58.04-.03.07-.04.09-.06.27-.16.43-.25.6-.34.33-.17.6-.3,1.2-.58.01,0,.01,0,.02-.01,1.97-.93,2.85-1.42,3.83-2.23.38-.32.64-.63,1.09-1.28.01-.02.23-.34.3-.43.1-.13.19-.24.37-.47.01-.02.01-.02.03-.04.33-.4.48-.6.64-.86.21-.34.3-.62.45-1.22.02-.06.02-.07.02-.1.09-.35.15-.55.24-.75.13-.27.27-.53.49-.91.02-.04.28-.47.33-.55.37-.64.57-1.1.67-1.61.06-.32.06-.64.01-.97s-.15-.67-.32-1.01c-.55-1.16-.9-1.74-1.43-2.19-.15-.13-.26-.2-.39-.25-.05-.02-.09-.03-.14-.04-.02,0-.1-.03-.13-.03-.05-.01-.1-.02-.15-.04-.08-.03-.12-.04-.3-.11-.52-.2-.79-.26-1.16-.19-.14.03-.27.08-.4.15.04-.05.08-.1.1-.17.3-1.44-.73-2.35-2.23-2.29-.15,0-.3.02-.44.06ZM112.47,22.99c.18-.04.36,0,.75.16.2.08.24.09.34.12.07.02.14.04.2.06.03,0,.11.03.13.03.03,0,.04.01.06.02.04.02.09.05.18.13.42.36.74.88,1.24,1.95.48,1.02.35,1.73-.33,2.91-.05.08-.3.5-.32.54-.24.4-.39.68-.53.98-.12.26-.19.49-.29.88,0,.03,0,.04-.02.1-.13.53-.21.76-.37,1.02-.14.22-.27.4-.58.78-.01.02-.32.39-.42.53-.07.09-.3.42-.31.44-.42.6-.65.88-.97,1.14-.92.76-1.75,1.22-3.67,2.13-.01,0-.91.43-1.24.6-.19.1-.37.2-.65.37-.02.01-.04.03-.09.05-.49.29-.71.41-.99.53-.24.1-.5.17-.92.27-.06.01-.1.02-.22.05-.36.08-.53.12-.73.18-.06.02-.12.04-.22.07,0,0-.19.07-.25.09-.16.06-.29.1-.42.13-.34.09-.55.08-.62.02-.07-.08-.13-.18-.23-.39,0-.01-.07-.14-.08-.18-.06-.12-.1-.23-.2-.48,0,0-.12-.31-.17-.43,0,0,0,0,0-.01-.09-.2-.16-.32-.39-.67-.34-.52-.45-.77-.45-1.08.01-.69.02-.93.04-1.28.05-.73.14-1.31.31-1.78.11-.3.24-.54.5-.92.03-.05.14-.21.17-.25.07-.1.12-.19.17-.27.01-.02.03-.04.04-.07,1.33-2.15,3.94-4.52,6.37-5.88.44-.24.8-.42,1.62-.79.05-.02.05-.02.1-.05.57-.26.89-.41,1.23-.59.16-.08.3-.15.58-.29.03-.02.69-.34.92-.47.08-.05.15-.09.27-.17.02-.01.03-.02.04-.03.19-.13.29-.18.4-.2ZM127.84,23.72c-.08.01-.48.08-.56.09-.52.09-.88.2-1.21.43-.17.11-.29.21-.56.43,0,0-.41.34-.57.44-.19.12-.36.2-.76.35,0,0,0,0-.02,0-.41.16-.61.25-.84.39-.3.18-.51.36-.96.77-.03.03-.05.04-.07.06-.25.23-.39.35-.55.47-.16.12-.32.24-.56.41-.02.01-.11.08-.14.1-.69.49-1.02.73-1.39,1.08-.18.17-.31.31-.62.62,0,0-.52.53-.72.72-.15.14-.29.25-.6.46-.01,0-.01,0-.03.02-.38.27-.55.4-.75.59-1.03,1-1.65,2.59-1.69,4.11,0,0-.01.37-.03.71-.04.97-.05,1.52.01,2.01.02.16.05.32.08.49.19.91.63,1.63,1.4,2.2.08.06.18.08.27.07.05,0,.09-.02.13-.05.28.58.66,1.11,1.24,1.72.04.04.14.15.15.17.15.17.26.28.37.37-.08.1-.11.23-.06.36.73,1.89,2.7,3.21,4.63,2.91.42-.06.73-.17,1.36-.41.01,0,.01,0,.03,0,.53-.2.76-.28,1.07-.34.12-.03.24-.04.47-.06.02,0,.02,0,.03,0,.32-.02.47-.04.66-.08.31-.07.64-.21.99-.41.31-.18.63-.39,1.02-.67.09-.07.54-.4.58-.43.44-.33.71-.66,1.25-1.41t.01-.02c.55-.77.83-1.08,1.25-1.35.11-.07.23-.11.51-.18.02,0,.02,0,.04,0,.34-.08.52-.14.72-.27.94-.6,1.77-1.52,2.19-2.46.06-.13.12-.3.2-.5.01-.04.4-1.13.4-1.13.15-.43.22-.62.3-.86.28-.89.56-2.47.43-3.02-.11-.48-.48-.74-.96-.79-.05,0-.1,0-.14.02-.13.04-.24.16-.25.31-.02.2.13.37.33.39.2.02.29.09.33.23.09.37-.18,1.87-.42,2.63-.07.23-.14.41-.29.83,0,0-.38,1.09-.4,1.13-.07.19-.13.34-.18.46-.35.81-1.08,1.62-1.91,2.15-.11.07-.24.11-.5.18-.02,0-.02,0-.04,0-.36.09-.53.14-.73.27-.53.33-.85.69-1.46,1.54,0,0,0,0,0,.02-.5.69-.74.98-1.1,1.25-.04.03-.49.37-.58.43-.36.26-.66.46-.94.62-.3.17-.56.28-.81.33-.14.03-.26.05-.54.07-.02,0-.02,0-.03,0-.26.02-.41.03-.57.07-.35.07-.61.16-1.17.38-.01,0-.01,0-.03,0-.58.22-.86.31-1.22.37-1.47.23-3.01-.74-3.71-2.17.49.13,1.12.13,1.93.06.32-.03.57-.06,1.12-.13.46-.06.64-.08.83-.1.3-.02.59-.05.87-.09,1.99-.27,3.71-.95,5-2.09.69-.61,1.09-1.2,1.86-2.55,0-.01.37-.64.52-.87.12-.2.48-.77.53-.84.44-.7.66-1.06.92-1.49.13-.21.26-.43.45-.71.06-.09.47-.72.55-.85.52-.82.8-1.44.92-2.1.15-.82,0-1.62-.49-2.46-.25-.43-.58-.85-1.03-1.34-1.02-1.11-2.18-1.64-3.45-1.52-.42.04-.86.15-1.3.33-.46.19-.78.42-1.43.97,0,0,0,0,0,.01-.51.43-.74.61-1.04.77-.23.12-.43.22-.86.43-.04.02-.04.02-.08.04-.53.26-.81.4-1.12.58-.29.16-.5.33-.91.72-.09.08-.09.08-.12.11-.18.17-.3.28-.43.37-.13.09-.26.19-.44.31-.04.03-.06.04-.16.11-.45.31-.66.47-.91.68-1.18.98-2.19,1.99-2.97,3.05-.99,1.34-1.56,2.67-1.62,3.99,0,.03,0,.15,0,.19,0,.18,0,.31,0,.44,0,.12,0,.23.02.34,0,.04.02.07.02.1-.4-.4-.65-.87-.78-1.46-.12-.59-.13-1.09-.08-2.32.02-.34.02-.51.03-.71,0,0,0,0,0-.01.03-1.34.58-2.75,1.47-3.61.16-.16.31-.27.66-.52.01,0,.01,0,.02-.02.33-.23.49-.35.67-.52.22-.2.39-.37.75-.75,0,0,.43-.44.6-.6.33-.32.64-.55,1.3-1.02.04-.03.12-.08.15-.1.25-.17.42-.3.58-.42.18-.14.34-.27.6-.52.02-.02.03-.03.07-.06.41-.38.61-.54.85-.69.18-.11.35-.19.72-.33,0,0,0,0,.02,0,.44-.17.64-.26.88-.41.2-.12.34-.23.65-.49,0,0,.36-.3.5-.39.23-.15.5-.24.93-.32.07-.01.48-.07.56-.09.65-.12,1.17-.13,1.52-.02.38.12.52.37.43.93-.03.2.1.38.3.42.2.03.38-.1.42-.29.04-.23.04-.43.02-.62-.07-.56-.4-.94-.94-1.11-.49-.16-1.11-.14-1.86,0ZM117.63,27.21c-.17.02-.36.06-.59.14-.19.06-.29.27-.23.46.06.19.26.29.45.23.59-.19.57-.19.81.29.07.14.15.37.19.55.01.07,0,.11,0,.15-.13.07-.21.22-.18.38.04.2.23.32.42.29.24-.05.4-.22.46-.45.04-.15.03-.32,0-.5-.05-.25-.15-.54-.25-.74-.31-.63-.58-.85-1.09-.8ZM130.21,26.98c1.05-.1,1.99.34,2.86,1.29.42.46.72.84.94,1.21.74,1.27.56,2.24-.42,3.81-.08.12-.49.75-.55.84-.19.29-.33.52-.46.74-.25.42-.47.78-.9,1.47-.04.07-.4.65-.53.85-.15.24-.27.44-.52.88,0,.01,0,.01-.01.02-.73,1.29-1.1,1.83-1.71,2.37-1.33,1.18-3.23,1.83-5.45,2-.2.02-.4.04-.87.1-.53.07-.78.1-1.09.13-.98.09-1.65.05-2-.16-.13-.08-.24-.18-.45-.41-.01-.01-.13-.14-.17-.18-.73-.77-1.12-1.36-1.36-2.14-.03-.11-.05-.26-.06-.45,0-.11,0-.23,0-.39,0-.03,0-.16,0-.19.09-2.15,1.74-4.36,4.33-6.52.23-.19.43-.34.86-.64.1-.07.12-.08.16-.11.18-.13.32-.23.45-.33.15-.11.29-.24.49-.42.03-.03.03-.03.12-.11.37-.35.55-.49.77-.62.3-.17.57-.31,1.08-.56.04-.02.72-.35.96-.48.36-.19.62-.39,1.17-.85,0,0,0,0,.01-.01.59-.5.87-.7,1.23-.85.37-.15.73-.25,1.08-.28ZM69.83,38.96s0,0,0,.01c.05.06.11.09.17.11-.02.03-.07.07-.08.09-.02.02-.16.18-.22.24-.1.11-.2.21-.29.31.11-.23.24-.48.42-.76ZM107.07,54.91c3.18-.38,6.16-.18,8.89.68,3.21,1,5.56,2.04,7.41,3.41,2.16,1.61,3.94,3.94,5.18,6.63.01.02,0,.03.02.05-.03-.05-.06-.08-.09-.13-.05-.07-.4-.56-.51-.71-.82-1.14-1.39-1.84-2.05-2.47-.37-.35-.75-.66-1.4-1.16-.05-.04-.58-.44-.68-.52-1.5-1.18-2.98-2.07-4.69-2.81-.2-.09-.37-.17-.7-.32-.06-.03-.1-.05-.13-.06-.9-.42-1.39-.62-1.98-.77-.51-.13-.97-.19-1.82-.26-.04,0-.06,0-.14-.01-.55-.05-.8-.07-1.1-.11-1.95-.28-3.64-.35-5.82-.26-.13,0-1.21.05-1.49.06-1.51.07-2.65.15-3.71.3-.35.05-.7.1-1.04.16-.39.07-.7.16-1.36.38-.04.02-.37.12-.48.16-.56.17-1.01.29-2.03.56-.04,0-1.5.4-2.06.57-.14.04-.23.16-.25.3-.1,0-.2,0-.3,0-.12.01-.23.02-.35.04,1.51-.66,2.54-1.09,3.58-1.49,1.61-.61,3.17-1.03,5.86-1.64,1.1-.25,2.19-.44,3.25-.57ZM101.32,57.31c1.34-.24,2.67-.36,4.66-.45.28-.01,1.35-.06,1.48-.06,2.14-.09,3.79-.02,5.69.26.32.05.58.07,1.14.12.09,0,.1,0,.14.01.81.07,1.25.13,1.71.25.54.14.99.32,1.86.73.03.01.64.3.85.39,1.65.72,3.08,1.57,4.54,2.72.1.08.64.5.69.53.63.48.99.78,1.35,1.11.62.59,1.16,1.25,1.96,2.36.1.14.46.64.51.71.17.24.31.43.45.61.05.06.08.11.17.22.16.21.23.3.3.41.03.04.23.32.3.42.06.09.11.16.15.24.04.06.05.1.07.15-.44-.23-.88-.45-1.32-.62-.21-.09-1.9-.77-1.98-.8-3.14-1.28-4.72-1.88-6.6-2.45-.22-.07-.98-.29-.93-.27-.26-.08-.47-.14-.66-.2-.41-.13-.78-.27-1.15-.43-.29-.13-.51-.24-1.01-.51,0,0-.92-.48-1.3-.63-1.66-.66-3.61-1.18-5.92-1.64-.41-.08-.73-.1-1.43-.11-.38,0-.54-.01-.75-.03-.01,0-.02,0-.04,0-.63-.05-1.24-.13-2.13-.29-.09-.01-.92-.16-1.06-.18-.19-.03-.17-.03-1.07-.13-.05,0-.09-.01-.13-.02-.42-.05-.69-.08-.86-.12-.24-.05-.88-.18-.89-.18-1.16-.24-1.68-.35-2.34-.46-.18-.03-.34-.06-.61-.12-.03,0-.38-.08-.45-.09-.09-.02-.15-.02-.23-.03.31-.09.51-.15.99-.28.04,0,1.56-.41,2.12-.59.12-.04.45-.15.5-.16.63-.21.91-.29,1.26-.35Z"/>
  </g>
</svg>