<?xml version="1.0" encoding="UTF-8"?>
<svg id="_レイヤー_2" data-name="レイヤー 2" xmlns="http://www.w3.org/2000/svg" viewBox="0 0 79 123">
  <defs>
    <style>
      .cls-1 {
        fill: #333;
        stroke-width: 0px;
      }
    </style>
  </defs>
  <g id="SP">
    <path class="cls-1" d="M74.25.99c-.11-.03-.23-.03-.36,0-.17.04-.29.1-.54.25-.02.01-.03.02-.04.03-.22.14-.33.17-.4.16,0,0,0,0-.01-.01-.02-.03-.04-.08-.07-.14,0-.01-.05-.13-.06-.15-.03-.06-.05-.11-.08-.16-.16-.22-.42-.26-.71-.18-.18.05-.39.15-.53.25-.37.26-.59.57-.93,1.19,0,.02-.02.03-.04.07-.12.23-.18.33-.26.45-.1.15-.17.26-.37.56-.17.26-.28.44-.4.62,0-.82-.11-1.6-.34-2.28-.14-.4-.24-.65-.39-.91-.18-.31-.38-.53-.62-.64-.08-.04-.16-.06-.25-.07-.22-.02-.42.05-.56.21-.1.1-.16.22-.24.41,0,.02-.01.02-.03.06,0,0,0,0,0,0-.03-.06-.09-.15-.14-.21-.38-.45-.9-.65-1.34-.35-.43.29-.68.75-.85,1.4-.05.19-.09.36-.14.65,0,.02-.06.3-.07.35-.25,1.22-.2,2.29.1,3.64.07.3.18.72.3,1.18-.11-.14-.3-.41-.3-.41-.32-.44-.51-.69-.73-.96-.18-.23-.32-.45-.6-.92,0-.01,0-.02-.02-.03-.45-.76-.68-1.1-1.07-1.44-.25-.22-.56-.39-.98-.53-.14-.05-.26-.08-.5-.15-.15-.04-.2-.06-.27-.08,0,0,0,0-.08-.03-.07-.03-.12-.05-.17-.06-.08-.03-.16-.04-.23-.05-.13,0-.24.02-.34.12-.13.14-.17.3-.14.48.02.11.05.18.12.34,0,.01,0,.01,0,.02.02.04.02.05.03.08-.01,0-.02,0-.04-.02-.13-.06-.16-.07-.23-.08-.67-.1-1.14.2-1.22.89-.04.34.1.67.36,1.04.07.1.12.16.24.31s.25.32.4.53c.08.12.38.52.42.58.33.45.59.8.85,1.09-.41-.16-.78-.29-1.15-.4-.92-.27-1.79-.38-2.65-.32-.02,0-.42.02-.57.03-.3.03-.54.08-.72.19-.28.16-.4.44-.31.78.04.13.11.25.21.38-.03.01-.02.02-.07.03-.01,0-.1.04-.1.04-.29.1-.43.17-.55.3-.09.1-.15.19-.19.3-.12.31-.02.64.23.96.21.27.51.51.87.75.26.17.54.28.97.4.05.01.09.03.18.05.32.09.52.16.69.23,0,0-.02,0-.02,0-.49.07-1.13.23-1.67.44-.76.3-1.28.68-1.43,1.18-.09.28-.03.54.16.73.14.14.35.24.61.3.34.09.77.11,1.13.09-.04.09-.07.18-.07.27.02.28.23.45.58.57.12.04.25.07.39.1.41.08.87.09,1.08.03.26-.07.49-.12.97-.22.03,0,.03,0,.05-.01,1.02-.21,1.5-.35,2.06-.65.3-.17.61-.35.93-.56-.63.59-1.02,1.06-1.22,1.57-.2.52-.28,1.13-.18,1.65.12.66.51,1.15,1.18,1.37l.2.07c.14.05.23.08.28.08.12,0,.23-.04.36-.12.05-.03.11-.07.17-.11,0,0,.05-.04.09-.07.04.06.07.12.1.15.02.03.04.06.06.09.13.19.23.3.34.37.55.32,1.08.11,1.5-.45.22-.28.4-.65.52-.98,0-.02.01-.04.02-.06.14.52.39.92.76,1.12.09.05.18.09.28.12.14.05.25.07.5.13.14.03.21.05.29.07,0,0,.2.05.24.06.11.03.21.05.31.06.28.05.52.05.72-.02.33-.11.46-.27.57-.56.06.02.11.02.18,0,.12-.04.35-.21.43-.3.26-.29.45-.61.56-.96.11-.35.16-.72.14-1.11-.02-.34-.09-.68-.18-1.05.02.03.15.19.2.25.32.4.55.66.83.88.36.29.74.46,1.15.5.8.08,1.82-.45,2.33-1.19.09-.12.12-.22.18-.41,0,0,0,0,0-.02.03-.11.05-.16.09-.22.04-.07.09-.13.17-.24.13-.17.17-.22.23-.32.14-.24.2-.48.15-.75-.11-.6-.61-1.32-1.19-1.89-.47-.46-1.03-.85-1.54-1.05-.1-.04-.16-.06-.38-.16-.01,0-.01,0-.03-.01.08,0,.17-.01.25-.02.31-.04.61-.15,1.06-.36.07-.03.29-.13.28-.13.11-.05.18-.08.26-.12.73-.31,1.32-.66,2.38-1.33.06-.04.71-.46.79-.5.38-.24.71-.51,1.16-.95,0,0,.03-.02.08-.06.02-.01.03-.02.04-.03.07-.05.12-.09.16-.15.04-.05.07-.11.08-.17.01-.06.01-.12,0-.19-.03-.12-.11-.21-.21-.26-.06-.03-.11-.04-.19-.06,0-.03,0-.05,0-.09,0-.04.01-.06.03-.14.05-.22.06-.33.03-.47-.05-.2-.19-.35-.43-.47-.05-.03-.11-.05-.16-.06-.17-.04-.34-.03-.53.03-.17.05-.31.13-.57.27,0,0-.13.07-.15.09-.15.09-.26.14-.35.16-.28.08-.52.1-1.06.11-.05,0-.07,0-.09,0-.22,0-.36,0-.51.02-.8.06-1.74.47-2.75,1.08-.99.6-1.7,1.12-2.24,1.69-.11.12-.2.24-.32.43-.01.02-.02.04-.05.08-.14.22-.21.31-.3.41-.03.03-.04.06-.06.09-.02.05-.02.1-.01.15-.03-.01-.06-.02-.09-.03-.06,0-.12,0-.18.01-.11.03-.23.09-.36.19,0-.01.01-.02.02-.03.06-.21.09-.38.15-.74,0-.02.03-.22.04-.3.07-.44.17-.89.3-1.49.03-.14.24-1.03.28-1.23.05-.23.09-.45.12-.68.05-.13.09-.26.14-.38.16-.4.36-.73.8-1.4.2-.3.27-.41.37-.57.08-.13.15-.24.28-.49.02-.03.03-.05.04-.07.3-.55.48-.8.76-1,.09-.07.24-.14.36-.17.06-.02.11-.02.14-.02.01,0,.01,0,0,0,.01.02.01.01.08.2.09.23.16.35.31.44.03.01.05.03.08.03.27.08.47,0,.84-.22.01,0,.02-.01.04-.03.35-.22.46-.24.58-.12.5.49.54,1.16.19,2.01-.28.67-.79,1.4-1.36,2.01-.1.11-.1.28,0,.38.11.1.27.1.37-.01.61-.65,1.16-1.43,1.47-2.18.43-1.03.37-1.94-.31-2.61-.1-.1-.21-.16-.32-.19ZM67.92.6c.24.12.47.55.71,1.23.34.99.38,2.23.2,3.47v.02c-.07.19-.13.4-.2.64-.03.1-.25.89-.31,1.09-.09.3-.19.58-.35,1.06-.01.03-.02.05-.04.1-.2.58-.29.84-.4,1.18-.04.14.03.3.17.34.09.03.19,0,.26-.07-.04.14.04.29.17.33.03,0,.06.01.1,0,0,0-.02.02-.03.02-.02.02-.04.02-.05.04-.1-.12-.19-.18-.33-.2-.53-.08-.99.13-1.3.58-.09.12-.06.29.06.38.12.09.29.06.37-.07.2-.29.46-.41.78-.36,0,0,.02.01.04.04,0,0,.03.04.04.04.02.02.04.04.06.06.14.11.31.13.48.03.05-.03.1-.06.16-.11.03-.02.14-.11.15-.12.11-.08.17-.11.22-.13,0,.02,0,.03.01.05.02.15.16.25.3.22.11-.02.19-.1.22-.21,0-.03,0-.07,0-.11-.01-.07-.02-.13-.04-.18-.01-.04-.03-.07-.05-.1.08,0,.15-.02.21-.08.12-.13.2-.25.36-.49.03-.04.04-.06.05-.08.1-.16.17-.26.26-.35.5-.53,1.16-1.02,2.12-1.6.95-.58,1.82-.95,2.52-1.01.14-.01.27-.01.47-.02.02,0,.04,0,.09,0,.58,0,.86-.03,1.2-.13.14-.04.27-.11.46-.21.02-.01.15-.09.15-.09.42-.24.61-.3.77-.22.17.08.17.09.11.33-.02.08-.03.12-.04.17-.02.1-.02.18-.02.27.01.15.08.27.19.35.02.01.05.02.07.03-.01.01-.04.02-.05.04-.43.41-.73.67-1.07.88-.08.05-.74.47-.79.51-1.03.66-1.61.99-2.3,1.29-.08.03-.16.07-.27.12,0,0-.22.1-.28.13-.4.19-.67.28-.91.32-.44.06-.9.09-1.55.11-.04,0-.07.01-.1.03-.25-.02-.49,0-.72.07-.14.04-.23.19-.19.33.04.14.18.23.32.19.35-.1.74-.06,1.21.1.19.06.35.12.65.25.23.1.29.12.39.16.43.17.93.52,1.36.94.52.51.95,1.14,1.04,1.61.02.13,0,.23-.08.36-.04.07-.08.12-.19.27-.1.12-.15.19-.21.28-.07.11-.1.2-.15.36,0,0,0,0,0,.02-.04.14-.06.19-.1.25-.4.58-1.23,1.02-1.83.96-.56-.06-1-.41-1.62-1.19-.05-.06-.23-.29-.22-.28-.09-.11-.15-.19-.22-.27-.09-.11-.52-.54-.58-.6-.08-.08-.14-.16-.2-.23,0,0-.01-.02-.02-.03-.1-.14-.15-.22-.19-.32-.02-.04-.03-.08-.06-.15,0-.02-.03-.08-.03-.09h0s0-.08,0-.11c.05-.14-.01-.3-.15-.35-.04-.01-.07-.02-.11-.02-.06-.07-.14-.13-.23-.18-.13-.07-.29-.01-.36.12-.07.14-.01.3.12.36.08.04.13.13.19.27.02.14.07.29.14.43.07.12.16.25.27.38,0,0,0,0,0,.01.14.21.2.31.25.44.27.75.4,1.26.42,1.77.03.65-.14,1.2-.56,1.68,0,0-.05.04-.1.08-.01,0-.02.02-.03.02-.02-.01-.04-.02-.07-.03-.1-.03-.21-.02-.3.06-.11.09-.15.17-.22.34-.06.15-.08.19-.24.24-.1.03-.26.03-.47,0-.15-.02-.22-.04-.5-.12-.09-.02-.16-.04-.32-.07-.23-.05-.33-.07-.44-.11-.07-.03-.14-.05-.2-.09-.49-.26-.72-1.27-.6-2.1.11-.78.36-1.59.67-2.02.09-.12.07-.29-.05-.38-.12-.09-.28-.06-.37.06-.19.26-.35.61-.48,1.01,0-.06-.01-.15-.01-.18-.02-.3,0-.5.05-.71.04-.14-.04-.29-.18-.33-.14-.04-.29.05-.33.19-.08.28-.09.53-.07.9,0,.04.01.22.01.24.01.17.02.27.02.39,0,.03,0,.21,0,.24,0,.82-.02,1.25-.12,1.72-.06.3-.27.76-.5,1.07-.28.36-.54.47-.82.31-.02-.01-.09-.09-.17-.21-.02-.03-.04-.05-.06-.08-.03-.05-.14-.22-.15-.24-.03-.04-.05-.07-.07-.1-.01-.02-.02-.03-.04-.05-.03-.04-.07-.06-.12-.08-.1-.03-.16-.01-.24.03-.03.02-.07.04-.11.06-.04.03-.19.14-.2.15-.05.04-.1.07-.13.09-.03.02-.04.03-.06.03-.07-.02-.32-.1-.34-.11-.47-.15-.74-.49-.83-.96-.08-.41-.01-.92.15-1.35.19-.49.61-.97,1.38-1.64.07-.06.14-.12.25-.23.01-.01.09-.08.1-.1.51-.48.81-.68,1.21-.8.14-.04.23-.19.19-.33,0-.01-.02-.02-.02-.03.06-.05.11-.12.11-.2.04-.6.41-1.21.94-1.57,0,0,.05,0,.17.01,0,0,.01,0,.03,0,.17.03.24.04.35.02.11-.02.19-.1.22-.21,0-.02,0-.03,0-.05.06-.04.1-.09.12-.16.02-.07.02-.14-.02-.21-.04-.08-.08-.18-.12-.27.07-.1.08-.24,0-.33-.22-.28-.37-.66-.52-1.28,0-.02-.14-.61-.19-.77-.33-1.25-.33-1.23-.42-1.65-.29-1.28-.33-2.27-.1-3.41.01-.05.07-.34.07-.36.05-.28.08-.44.13-.61.14-.53.33-.88.62-1.08.17-.11.42-.01.65.26.04.04.06.09.12.19,0,0,.08.15.12.2,0,0,.02.04.03.05.03.04.06.08.1.11.1.07.23.08.34,0,.14-.11.2-.22.32-.49.01-.03.02-.04.02-.05.1-.24.15-.3.26-.29.04,0,.07.01.11.03ZM61.03,3.58c.36.12.61.25.8.42.33.29.54.6.96,1.32,0,.01,0,.02.02.03.29.49.44.72.64.98.21.27.4.51.72.95,0,0,.31.43.37.51.06.08.12.14.23.27,0,0,0,.01.02.02.16.17.23.26.29.37.13.26.22.5.38,1.02,0,.02,0,.01,0,.03.14.44.23.69.34.92-.01,0,0,0-.02,0-.01,0-.02,0-.03,0-.25-.05-.39-.04-.55.07-.51.34-.89.86-1.08,1.42-.06.18-.1.37-.11.57-.06-.1-.18-.16-.3-.12-.26.08-.45.2-.79.45-.01.01-.13.1-.15.11-.72.53-1.32.92-1.9,1.24-.49.27-.94.39-1.9.59-.03,0-.03,0-.05.01-.5.1-.73.15-1.01.23-.11.03-.51.02-.84-.04-.19-.03-.34-.08-.45-.14-.03-.02-.05-.03-.07-.05,0-.01.01-.03.02-.04.05-.07.13-.15.21-.24.03-.02.05-.04.08-.06.05-.01.11-.02.15-.04.06-.03.13-.06.18-.1.05-.04.09-.07.13-.12.11-.17.02-.38-.15-.43-.16-.05-.35.04-.56.21-.02,0-.02,0-.04,0-.01,0-.05,0-.05,0-.15.03-.29.04-.43.05-.33.02-.73,0-1.03-.08-.34-.09-.45-.19-.4-.35.17-.56,1.47-1.07,2.66-1.24.56-.08,1.05-.19,1.97-.43.03,0,.34-.09.4-.11.34-.09.65-.15,1.24-.25.02,0,.05,0,.09-.02.51-.08.75-.13,1.04-.19.14-.03.24-.18.21-.32-.02-.11-.11-.19-.21-.21-.03,0-.07,0-.11,0-.28.06-.51.11-1.01.19-.05,0-.07.01-.09.02-.61.1-.93.16-1.29.26-.06.02-.38.1-.4.11-.48.13-.84.21-1.15.28-.02-.05-.05-.09-.09-.13-.3-.22-.57-.32-1.19-.49-.09-.02-.13-.03-.18-.05-.38-.11-.61-.2-.82-.34-.32-.21-.58-.42-.75-.63-.19-.24-.2-.39-.07-.54.04-.05.13-.09.34-.16,0,0,.09-.03.1-.04.27-.1.42-.19.52-.36.08-.13.05-.28-.05-.37-.03-.03-.05-.05-.1-.07-.1-.12-.17-.22-.19-.29-.03-.09-.02-.11.05-.15.1-.06.27-.09.5-.11.13-.01.53-.02.56-.03.8-.06,1.6.05,2.47.3.7.2,1.38.47,2.39.93.13.06.23.11.46.21,1.36.62,1.96.87,2.73,1.11.14.04.29-.04.33-.18.04-.14-.03-.3-.17-.34-.75-.23-1.33-.48-2.67-1.09-.21-.1-.31-.14-.43-.2-.02-.06-.05-.11-.1-.14-.1-.07-.2-.16-.31-.25-.41-.37-.78-.82-1.34-1.59-.04-.06-.34-.47-.42-.59-.16-.22-.29-.39-.42-.55-.11-.14-.16-.2-.22-.29-.19-.27-.29-.5-.27-.67.04-.35.21-.46.6-.4,0,0,.03.01.1.04.04.02.06.02.08.03.09.03.17.06.24.07.13.01.26-.02.35-.12.12-.13.16-.29.14-.46-.02-.1-.05-.19-.11-.33,0-.01,0-.01-.01-.02-.03-.07-.04-.09-.05-.12.04.01.07.03.12.05,0,0,.05.02.06.02.02,0,.04.02.06.02.07.02.13.04.27.08.23.07.34.1.47.15ZM69.81,10.4c-.14-.04-.29.04-.33.18-.01.04-.06.21-.07.24-.05.16-.1.25-.17.3-.08.06-.08.06-.41.24-.46.25-.69.44-.79.76-.04.14.03.29.17.34.14.04.29-.04.33-.18.04-.13.19-.25.53-.43.03-.01.2-.11.24-.13.09-.05.17-.1.23-.15.19-.14.29-.32.37-.58.01-.04.06-.21.07-.24.04-.14-.03-.3-.17-.34ZM67.04,12.66s-.07-.01-.1,0c-.09.02-.18.03-.3.05-.05,0-.25.04-.28.04-.16.02-.27.04-.39.07-.23.04-.43.09-.64.16-.14.04-.22.2-.18.34.04.14.19.22.33.18.19-.06.37-.1.58-.14.11-.02.22-.04.37-.06.04,0,.23-.04.29-.05.11-.02.21-.03.3-.05.14-.03.24-.17.22-.31-.02-.11-.1-.19-.2-.22ZM44.75,9.59c-.06-.02-.12-.02-.19-.01-.31.04-.6.33-.91.8-.09.14-.18.28-.27.44-.05.09-.17.3-.17.3-.03.06-.12.21-.13.22-.2.34-.29.5-.39.7-.32.65-.58,1.26-.78,1.86-.07.2-.12.39-.17.59-.27,1.04-.29,1.94.02,2.67.07.16.14.3.23.41.14.17.31.27.51.24-.32.13-.59.43-.86.86-.05.07-.09.15-.15.24-.02.03-.1.18-.13.22-.03.05-.06.1-.08.14-.2.32-.32.51-.74,1.17-.83,1.31-1.24,1.96-1.67,2.75-.09.17-.18.33-.26.49-.02.03-.03.06-.04.09.05-.24.09-.5.1-.81,0-.13.01-.26.02-.46.01-.5.01-.63.04-.83.06-.58.09-1.17.11-1.77,0-.03,0-.17,0-.18.01-.36,0-.57-.05-.8-.07-.33-.38-.75-.73-1.02-.11-.09-.23-.16-.34-.2-.35-.15-.68-.11-.94.19-.67.75-.96,1.63-.95,2.64.01.78.19,1.57.55,2.67.02.07.04.13.07.25,0,0,0,0,0,.02.1.38.17.56.31.75.03.04.15.21.17.24.05.07.1.13.14.19.11.14.22.24.33.3.18.09.37.09.54-.04.05-.04.1-.09.14-.13-.32.69-.64,1.41-.97,2.23-.32.79-.53,1.37-1.09,2.86-.01.03-.01.03-.02.06-1.74,4.65-2.58,8.1-2.65,11.73,0,.15.11.27.26.27.15,0,.27-.12.27-.27.06-3.55.89-6.94,2.61-11.54.01-.03.8-2.13,1.11-2.91.5-1.25.97-2.31,1.46-3.26.08-.16.17-.32.26-.48.42-.77.82-1.42,1.65-2.72.05-.08.05-.08.09-.15.03.04.05.09.09.13.35.36.76.61,1.19.75,1.3.42,2.84-.14,3.87-1.46.14-.18.26-.38.41-.67.07-.15.13-.26.24-.52.05-.13.07-.18.1-.25,0,0,0-.01.02-.04.02-.04.04-.08.06-.12.04-.08.07-.17.11-.25.12-.3.15-.49.03-.66-.06-.09-.15-.15-.26-.2-.12-.05-.26-.08-.43-.1-.22-.03-.47-.04-.56-.03-.6.1-1.18.32-1.77.65-.45.25-.82.49-1.53,1.01,0,0-.39.28-.5.36-.04.03-.2.13-.3.19.03-.06.1-.17.11-.2.05-.09.09-.16.14-.23.29-.46.53-.68.79-.69.11,0,.2-.08.24-.18.01-.03.02-.07.02-.11,0-.11-.08-.2-.17-.24-.03-.01-.07-.02-.1-.02-.07,0-.14.03-.21.05.16-.06.28-.18.36-.34.07-.13.11-.26.16-.48,0-.02,0-.03.01-.06.04-.18.06-.25.09-.32.09-.24.17-.43.35-.85.03-.07.04-.11.06-.15.24-.58.38-.93.5-1.32.24-.77.43-1.48.75-2.72.01-.05.06-.24.07-.26.09-.35.14-.56.17-.8.01-.1-.01-.3-.06-.46-.07-.21-.17-.36-.34-.41ZM44.57,10.14s.01.02.02.03c.01.05.02.1.03.15,0,.02,0,.04,0,.06,0,0,0,.01,0,0-.03.2-.07.4-.15.72,0,.02-.06.22-.07.27-.32,1.23-.51,1.94-.74,2.7-.11.37-.24.7-.48,1.27-.02.04-.03.07-.06.15-.18.43-.26.63-.35.87-.04.1-.06.19-.11.39,0,.03,0,.04-.01.06-.07.3-.13.41-.19.44-.01,0-.03-.02-.05-.05-.05-.07-.11-.17-.16-.29-.25-.59-.23-1.38,0-2.31.19-.73.5-1.5.92-2.34.09-.19.17-.34.37-.67,0-.01.1-.16.13-.22,0,0,.12-.22.17-.3.09-.15.17-.28.25-.4.19-.29.37-.47.48-.53ZM67.88,19.65c-.05-.02-.11-.02-.17-.01-.15.02-.25.15-.24.3.01.1.08.19.17.22,0,0,0,0,0,.01.02.12.02.31,0,.58-.05.55-.2,1.36-.44,2.41-.45,2.01-1.22,4.81-2.19,7.99-1.99,6.58-4.42,13.45-5.99,16.89-2.35,5.16-4.61,9.48-7.25,13.87-.23.27-.42.52-.52.74-.02.05-.03.1-.02.15-2.18,3.56-4.64,7.21-7.67,11.43-.24.33-.5.66-.74.99.61-1.29,1.25-2.57,2.49-4.93.06-.12.09-.17.12-.23,1.98-3.8,2.91-5.7,3.84-8.01,1.87-4.64,3.32-9.55,4.16-14.22.23-1.28.29-2.32.35-4.61,0-.17,0-.23,0-.31.02-.88.04-1.42.07-1.99,0-.11-.05-.21-.15-.26-.03-.02-.07-.03-.1-.03-.15,0-.27.11-.28.26-.04.58-.06,1.13-.08,2.01,0,.08,0,.14,0,.31-.05,2.26-.11,3.28-.34,4.52-.39,2.17-.92,4.38-1.55,6.6.08-.84.12-1.29.16-1.79.24-3.06.07-5.22-.75-7.22-.11-.27-.23-.47-.5-.89,0,0,0,0,0-.01-.28-.43-.39-.62-.49-.88-.03-.07-.08-.12-.14-.15-.06-.03-.14-.03-.2,0-.14.06-.21.21-.15.35.11.31.24.53.54.99,0,0,0,0,0,.01.25.39.36.57.45.8.79,1.9.95,3.98.71,6.96-.04.54-.08.94-.18,1.96-.01.15.09.28.24.29.08,0,.16-.03.21-.09-.7,2.41-1.54,4.82-2.48,7.17-.92,2.29-1.85,4.18-3.82,7.96-.03.06-.06.12-.12.23-.82,1.58-1.38,2.66-1.85,3.61.82-2.12,1.44-4.38,1.73-6.4.22-1.56-.44-3.32-1.62-4.35-.07-.06-.35-.26-.58-.4-.15-.1-.29-.17-.4-.23-.21-.1-.35-.12-.49-.02-.17.12-.29.31-.38.57s-.15.58-.19.96c-.02.19-.03.39-.04.62,0,.1-.02.77-.03.88-.15,1.83-.15,3.75-.02,5.78,0,.04.06.96.08,1.14.08,1.04.19,1.81.37,2.53.03.13.09.28.21.55-.06.17-.11.31-.14.44-.04.19-.04.34.01.47.07.16.2.24.37.26-3.3,4.18-7.31,8.19-12.25,12.39-3.34,2.84-6.56,5.4-9.72,7.76.51-1.51.9-2.75,1.19-3.95.09-.36.16-.68.27-1.24.11-.54.13-.66.18-.89.18-.8.36-1.41.63-2.02.06-.14,0-.3-.13-.36-.03-.01-.06-.02-.09-.02.98-.85,1.5-1.62,1.69-2.72,0-.05.02-.1.04-.2.02-.09.02-.11.03-.15.1-.46.09-.76-.12-1.01-.13-.16-.3-.26-.49-.3-.19-.04-.41-.02-.63.05-.34.1-.69.32-.89.54-.65.73-1.18,2.05-1.17,2.99,0,.53.12.91.38,1.1.25.18.56.13.88-.09-.27.63-.46,1.26-.64,2.07-.05.24-.08.36-.19.9-.11.55-.18.86-.27,1.22-.33,1.37-.77,2.74-1.42,4.64-6.38,4.69-12.55,8.48-18.98,11.58-.13.06-.19.23-.13.36.03.07.09.12.15.14.06.02.13.02.2,0,6.26-3.02,12.26-6.67,18.46-11.18-.06.18-.09.26-.15.45-2.02,5.75-4.4,11.39-7.06,16.73-1.49,3-2.88,5.27-4.53,7.3-.02.03-.04.06-.05.09-.03.1,0,.22.08.29.03.02.06.04.09.05.1.03.21,0,.28-.09,1.68-2.07,3.09-4.37,4.6-7.41,2.67-5.36,5.06-11.02,7.09-16.79.17-.49.26-.77.4-1.18,3.37-2.48,6.8-5.2,10.36-8.23,5.85-4.97,10.42-9.68,14.04-14.72,3.03-4.22,5.48-7.86,7.67-11.42.08,0,.17,0,.24-.02.42-.13.79-.22,1.53-.38.02,0,.05,0,.1-.02,1.06-.22,1.55-.35,2.13-.58.68-.28,1.34-.77,2.21-1.57.11-.1.92-.87,1.14-1.07.17-.16,1.31-1.06,1.27-1.03.12-.1.23-.19.34-.28.8-.67,1.25-1.16,1.38-1.55.1-.34-.04-.62-.39-.73-.28-.09-.7-.1-1.31-.01-1.22.17-2.45.74-3.72,1.66-.97.7-1.85,1.5-3.05,2.7-.07.07-.19.18-.3.28,2.24-3.85,4.23-7.73,6.3-12.26,1.52-3.34,3.82-9.84,5.77-16.2,0,.02.01.03.02.05.15.27.4.49.67.58.09.03.18.04.28.04.91-.03,1.79-.42,2.64-1.14.7-.58,1.37-1.36,2.09-2.37.28-.39.55-.8.89-1.33.06-.09.67-1.04.78-1.2.05-.07.8-.96.84-1.01.07-.08.13-.16.19-.24.29-.36.51-.66.66-.9.09-.15.15-.28.19-.39.06-.18.05-.35-.08-.47-.06-.06-.13-.09-.22-.11-.26-.05-.63.09-1.2.35-.1.05-.2.1-.3.15-.21.11-.43.23-.66.35-.13.07-.4.23-.38.21-2.33,1.3-4.23,3-5.44,5.01-.12.19-.19.36-.33.72,0,0-.1.24-.13.33-.03.07-.09.16-.18.28.92-3.05,1.67-5.76,2.11-7.71.24-1.07.39-1.91.45-2.49.03-.31.03-.56,0-.73-.04-.2-.13-.36-.28-.41ZM73.94,24.17s-.03.06-.06.11c-.13.22-.34.5-.62.84-.06.07-.12.15-.19.23,0,0-.8.95-.87,1.05-.11.16-.44.67-.48.73-.05.08-.24.38-.31.47-.34.52-.61.92-.88,1.31-1.5,2.11-2.85,3.23-4.32,3.28-.15,0-.36-.15-.48-.35-.03-.06.01-.17.23-.47.16-.22.23-.31.28-.45.04-.1.07-.18.14-.35,0,0,.19-.47.28-.63,1.15-1.92,2.98-3.55,5.24-4.81-.02.01.25-.14.38-.21.22-.12.43-.23.64-.34.1-.05.2-.1.29-.14.27-.13.49-.22.66-.27.02,0,.02,0,.04,0ZM46.69,17.8s.02,0,.03.01c-.01.05-.02.1-.05.16-.03.07-.06.14-.09.21-.03.06-.08.16-.08.16-.03.07-.05.13-.11.26-.1.25-.15.36-.21.48-.13.25-.23.42-.35.57-1.2,1.52-3.1,1.87-4.28.66-.01-.01-.01-.02-.01-.01,0,0,0,0,0-.01.03-.06.11-.15.24-.24.07-.05.14-.11.24-.17.03-.02.34-.22.41-.26.11-.08.5-.36.51-.36.7-.5,1.05-.74,1.48-.97.55-.3,1.07-.5,1.61-.59,0,0,.01,0,.02,0,.03,0,.06,0,.1,0,.09,0,.19.01.28.03.11.02.2.04.27.06ZM37.39,18.17c.1.01.21.07.34.17.26.2.49.52.53.71.04.17.05.35.04.66,0,.01,0,.16,0,.19-.02.59-.05,1.16-.11,1.73-.02.23-.03.36-.04.87,0,.2,0,.32-.01.45-.04.77-.18,1.22-.49,1.49-.04-.03-.1-.07-.16-.16-.04-.05-.08-.1-.12-.16-.02-.03-.14-.2-.18-.25-.09-.12-.14-.26-.23-.57,0,0-.06-.22-.09-.3-.35-1.05-.52-1.79-.53-2.5-.01-.87.24-1.61.81-2.26.06-.07.14-.09.23-.08ZM56.4,30.65c-.12-.05-.24-.03-.34.03-.06.04-.12.09-.19.16-.09.1-.18.21-.32.42-.01.02-.03.04-.05.08-.14.2-.21.3-.28.38-.04.05-.07.08-.1.11,0,0-.02.01-.02.01-1.39.28-2.67,1.83-3.04,3.46,0,0-.05.25-.06.3-.03.13-.05.25-.06.37-.08.65.03,1.13.49,1.33.13.06.29,0,.35-.14.06-.14,0-.3-.13-.36-.17-.08-.24-.33-.18-.77.02-.18.04-.26.12-.61.24-1.06.92-2.08,1.72-2.64.33.92.48,1.57.42,2.16-.01.15.09.28.24.29.07,0,.13-.02.18-.05-.09.9-.25,1.75-.49,2.61-.04.15.04.29.18.33.14.04.29-.05.33-.19.5-1.79.66-3.51.57-5.71,0-.07-.04-.13-.09-.18.08-.1.15-.19.29-.39.03-.04.04-.06.06-.08.07-.1.11-.14.15-.2.04.2.08.46.13.79,0,.02.19,1.24.21,1.31.07.38.09.71.07,1.35,0,0,0,.29,0,.34,0,.22,0,.43.04.69,0,.07.04.29.04.3.01.11.02.2.03.28.03.45-.05.76-.33,1.13-.09.12-.07.29.04.38.11.09.28.07.37-.05.37-.49.49-.93.45-1.51,0-.09-.01-.18-.03-.3,0-.02-.03-.23-.04-.3-.03-.24-.04-.42-.03-.62,0-.05,0-.33,0-.33.02-.68,0-1.03-.08-1.47-.01-.06-.17-1.06-.19-1.23,0-.03-.11-.69-.15-.9-.02-.12-.04-.22-.06-.29-.01-.04-.02-.08-.03-.11,0-.02-.02-.04-.03-.06-.03-.05-.06-.09-.13-.12ZM41.65,27.01c-.08-.02-.16-.04-.26-.05-1.07-.09-2.04.45-3.12,1.49-.26.25-.48.5-.67.76-.13.17-.27.41-.38.6-.07.13-.11.24-.14.35-.04.17-.03.32.08.44.11.12.25.18.44.21.03,0,.16.02.18.03,1.78.32,2.62.06,3.73-1.31.32-.39.61-.9.72-1.34.15-.59-.04-1.03-.59-1.18ZM41.58,27.55c.19.07.21.23.15.51-.09.34-.34.79-.61,1.12-.98,1.21-1.63,1.41-3.23,1.12-.03,0-.05,0-.11-.02-.03,0-.05,0-.07-.01-.05,0-.06-.02-.08-.03.02-.05.04-.11.08-.19.09-.17.22-.38.33-.52.17-.23.38-.46.62-.69.97-.94,1.82-1.41,2.7-1.34.1,0,.18.02.24.05ZM55.2,32.38c.02.59.02,1.14,0,1.66-.07-.44-.21-.93-.43-1.53.14-.06.29-.11.43-.14ZM47.03,33.1c-.33.05-.33.05-.32.09-.01.02-.01.02-.02.03,0,0,0,.01-.01.02,0,.01-.01.02-.02.04-.01.03-.35.82-.39.91-.02.05-.04.09-.05.11,0,0,0,0,0,0-.03.03-.04.03-.22-.07-.05-.02-.07-.04-.1-.05-.29-.14-.53-.15-.78.03-.37.27-.5.63-.56,1.22-.21,2.06-.11,2.49.98,4.49.18.33.42.7.68.99.38.42.76.65,1.15.6,0,.04,0,.07,0,.12.02.14.08.33.25.79.09.25.29.58.52.81.34.36.74.49,1.13.24.21-.14.31-.34.25-.56-.03-.14-.1-.24-.23-.39,0,0-.02-.03-.04-.05.02,0,.05-.01.06-.01.17-.04.28-.08.39-.17.15-.13.23-.31.22-.54,0-.16-.2-.46-.51-.88-.13-.17-.25-.32-.35-.43-.03-.03-.05-.04-.07-.07.12-.14.23-.28.32-.43.04-.07.08-.16.12-.28.04-.12.07-.26.11-.43.02-.08.03-.16.05-.25.02-.09.06-.33.06-.34.24-1.39.07-2-.64-2.72-.01-.01-.42-.42-.55-.56-.23-.24-.42-.48-.62-.76-.04-.06-.07-.14-.28-.63,0-.02-.01-.03-.02-.04-.25-.58-.33-.75-.5-.82ZM47.13,33.52s0,0,0,0h0ZM32.84,29.21c-.24-.09-.5-.01-.71.27-.63.83-.68,2.96-.15,3.86.25.43.45.64.77.73.32.08.7-.11.9-.4.59-.86.56-2.01.09-3.27-.11-.29-.28-.63-.48-.87-.13-.16-.27-.27-.42-.32ZM46.95,33.95c.03.07.05.11.09.2,0,.01.01.03.02.04.01.03,0,.01.02.04-.03,0-.05-.01-.08-.01-.07,0-.13.02-.19.04.04-.08.02-.04.09-.21,0,0,.03-.07.05-.11ZM32.68,29.73s.1.06.18.15c.15.18.3.48.39.72.41,1.11.44,2.08-.03,2.76-.08.12-.25.2-.33.18-.14-.04-.27-.18-.45-.49-.42-.71-.38-2.6.11-3.24.05-.06.09-.09.13-.08ZM47.25,34.6c.03.07.11.27.14.31.21.3.42.57.67.82.14.15.55.56.56.56.3.3.44.51.52.79.1.34.1.79-.02,1.46,0,.01-.04.26-.06.34-.02.09-.03.17-.05.24-.06.27-.11.47-.15.54-.07.11-.16.22-.25.33-.79-1.1-1.3-2.14-1.59-3.37,0-.03-.05-.22-.07-.28-.03-.14-.06-.26-.08-.38-.04-.18-.06-.36-.07-.51-.04-.48.05-.7.23-.71.1,0,.18-.07.22-.16ZM56.08,37.92s-.09,0-.14,0c-.08.01-.16.04-.28.1-.01,0-.23.1-.24.11-.03.01-.15.06-.19.08-.08.03-.15.06-.22.08-.14.05-.26.09-.37.11-.16.03-.27.03-.33,0-.03-.01-.07-.09-.11-.24-.01-.05-.05-.22-.06-.24-.01-.05-.02-.09-.04-.12-.03-.08-.08-.14-.17-.18-.08-.04-.17-.03-.23.01-.03.02-.06.04-.08.06-.02.02-.03.04-.04.06-.01.02-.02.05-.04.08-.02.05-.04.1-.08.2-.02.04-.02.06-.03.09-.03-.05-.15-.23-.17-.26-.15-.23-.26-.37-.39-.45-.25-.17-.53-.07-.66.23-.18.41-.07.97.22,1.55.27.52.64.97.98,1.12.26.12.57.07.89-.07.29-.13.48-.33.79-.8,0-.01.02-.03.04-.05.2-.29.29-.41.4-.51.04-.03.09-.06.21-.11.01,0,.01,0,.02,0,.28-.12.41-.21.51-.42.06-.13.05-.27-.07-.38-.04-.03-.09-.05-.13-.06ZM46.31,34.86c-.05.19-.07.4-.05.66.01.18.04.37.08.57.03.13.05.26.09.4.01.06.06.24.07.27.31,1.32.87,2.45,1.72,3.63-.05.04-.08.09-.13.13-.33.28-.54.42-.77.47-.35.08-.92-.56-1.33-1.32-1.04-1.91-1.11-2.23-.92-4.18.04-.44.13-.68.34-.83.06-.04.12-.04.25.03.02.01.05.02.09.04.19.1.26.13.38.14.07,0,.13,0,.19-.02ZM52.68,38c.05.05.08.08.15.19.02.03.16.25.18.28.05.07.09.13.12.18.05.07.1.11.15.15.1.07.21.11.33.06.08-.03.12-.08.17-.15.01-.02.02-.05.04-.07.07.13.16.23.28.28.18.08.39.08.64.03.03,0,.07-.02.11-.03-.05.06-.08.11-.14.19-.02.03-.03.04-.04.05-.26.38-.4.54-.56.61-.19.09-.37.11-.47.06-.45-.2-1.02-1.29-.96-1.82ZM41.35,35.4c-.13-.05-.28-.06-.45-.04-.74.08-1.39.52-1.97,1.22-.45.54-.83,1.21-1.16,1.96-.03.07-.06.13-.13.27,0,0-.21.43-.26.62-.03.12-.04.37-.04.63,0,.4.03.58.17.68.28.21.63.32.94.23,1.62-.43,2.78-1.38,3.27-2.87.14-.44.25-1.07.23-1.57-.02-.58-.22-1-.61-1.14ZM41.16,35.92c.17.07.26.28.27.65.02.42-.08.99-.2,1.37-.42,1.29-1.43,2.12-2.89,2.51-.12.03-.29-.02-.44-.12,0,0,0,0,0-.02,0-.07-.02-.17-.02-.28,0-.21,0-.43.02-.48.04-.14.09-.26.22-.52,0,0,.1-.21.14-.29.72-1.64,1.62-2.73,2.7-2.85.08,0,.15,0,.21.02ZM48.71,41.04s.1.05.16.05c.03.04.06.07.1.12.11.15.22.31.3.44.04.06.07.12.09.15,0,0,0,0,0,0,0,.07-.02.09-.18.12-.01,0-.07.02-.09.02-.11.02-.19.05-.26.09-.12.07-.2.19-.22.34,0,.1.02.19.08.27.02.04.05.07.09.12.02.02.08.09.09.1.06.07.08.1.09.13-.13.08-.28.04-.47-.16-.17-.18-.33-.45-.4-.63-.12-.32-.15-.42-.17-.52.09-.01.17-.03.26-.07.12-.05.23-.13.34-.24.11-.11.15-.22.18-.35ZM28.58,37.7c-.41-.11-.8-.12-1.08.02-.27.13-.73.67-.73,1,0,.3.21.92.43,1.43.15.36.26.59.38.79.03.06.07.12.11.18.11.17.05.08.52.77.16.23.27.45.49.94.01.02,0,.02.02.04.22.49.34.72.51.98.23.34.5.59.83.74.39.18.74.06.96-.29.08-.12.14-.26.2-.43.06-.17.1-.36.14-.59.02-.12.04-.24.07-.4,0-.04,0-.05.02-.14.29-1.9-.26-3.53-1.7-4.52-.34-.23-.77-.43-1.18-.54ZM28.52,38.26c.32.1.67.26.94.44,1.25.86,1.74,2.28,1.47,3.99-.01.09-.02.1-.02.14-.02.15-.04.27-.06.38-.07.39-.16.66-.26.81-.09.13-.16.16-.3.09-.44-.2-.67-.55-1.08-1.46-.01-.02,0-.02-.02-.05-.24-.52-.36-.76-.54-1.02-.46-.68-.41-.59-.5-.75-.03-.06-.07-.11-.1-.16-.11-.19-.21-.4-.35-.74-.18-.43-.39-1.03-.38-1.21,0-.03.07-.15.17-.27.1-.12.22-.23.25-.24.16-.08.46-.05.79.04ZM37.65,43.65c-.08-.03-.18-.04-.29-.04-.02,0-.04,0-.07,0-.08,0-.11,0-.14,0-.82-.09-1.97.25-2.84.83-1.01.67-1.49,1.56-1.09,2.42.08.17.19.28.33.34.14.06.3.06.47.01.21-.06.37-.14.78-.39.25-.15.36-.22.49-.28,0,0,.02,0,.02,0,.46-.19.67-.3.95-.49.17-.12.66-.55,1.02-.91.23-.23.41-.44.53-.62.08-.11.13-.21.16-.3.05-.15.03-.31-.09-.42-.07-.07-.14-.11-.22-.14ZM37.39,44.16s-.01.02-.02.04c-.1.14-.26.33-.47.54-.33.33-.8.74-.94.84-.24.16-.43.25-.86.43-.01,0-.02,0-.03.01-.15.07-.29.14-.55.31-.36.22-.5.29-.64.33-.12.03-.15.02-.19-.07-.26-.56.08-1.19.9-1.73.77-.51,1.8-.82,2.48-.74.05,0,.1,0,.19.01.03,0,.04,0,.06,0,.04,0,.04,0,.06.01ZM61.42,56.43c.08.03.07.01.05.06-.08.25-.5.7-1.2,1.29-.1.09-.21.18-.33.27.06-.04-1.1.88-1.29,1.05-.23.2-1.04.98-1.15,1.08-.82.76-1.43,1.22-2.04,1.46-.54.22-1.01.34-2.03.55-.05.01-.08.02-.1.02-.6.12-.95.21-1.3.31.06-.1.13-.21.19-.31.1-.11.21-.22.34-.35.12-.11.24-.23.39-.36.12-.11.54-.48.51-.45.19-.17.32-.29.42-.4,1.17-1.18,2.04-1.96,2.98-2.64,1.21-.87,2.36-1.41,3.48-1.57.54-.07.89-.07,1.08-.01ZM35.18,48.44c-.07-.01-.15-.02-.24,0-.66.08-1.23.48-1.72,1.14-.37.49-.67,1.1-.92,1.77-.1.27-.18.55-.22.78-.03.15-.04.27-.03.38.01.17.08.32.24.38.22.1.42.09.77,0,0,0,.12-.03.14-.03.07-.01.14-.03.25-.04.01,0,.09-.01.11-.02.55-.09.83-.18,1.08-.46.25-.29.76-1.48.9-2.03.03-.13.05-.18.07-.28.03-.14.06-.28.07-.42.04-.3.03-.55-.05-.75-.08-.22-.24-.37-.45-.41ZM35.09,48.98s.03.03.05.07c.04.1.04.28.02.5-.02.2-.06.37-.12.62-.12.46-.59,1.59-.77,1.8-.13.15-.33.22-.76.29-.02,0-.1.01-.11.02-.12.02-.2.03-.28.05-.02,0-.15.03-.15.03-.18.04-.29.05-.37.04,0-.05,0-.11.02-.19.04-.19.11-.44.2-.68.54-1.45,1.28-2.44,2.2-2.55.04,0,.07,0,.09,0ZM27.94,47.25c-.19-.07-.39-.03-.51.17-.12.22-.04.45.19.88.03.05.06.11.09.17.03.05.3.51.32.55.03.06.28.69.35.87.31.75.57,1.23.9,1.65.42.52.93.86,1.57,1.01.44.11.67-.19.61-.62-.03-.25-.15-.58-.34-1.02-.04-.09-.09-.19-.13-.29-.09-.19-.36-.75-.4-.82-.43-.9-1.13-1.6-2.12-2.18-.04-.02-.07-.04-.18-.13-.02-.01-.03-.02-.04-.03-.13-.1-.22-.16-.32-.2ZM28.06,47.98c.05.04.11.08.15.11.9.53,1.53,1.15,1.91,1.95.04.08.31.64.4.82.05.1.09.19.13.28.17.39.27.68.3.86,0,0,0,0,0,0-.96-.25-1.48-.9-2.08-2.34-.07-.18-.32-.8-.35-.86-.03-.08-.35-.61-.35-.61-.03-.05-.06-.11-.09-.15-.01-.02-.02-.03-.03-.06ZM26.8,53.92c-.29-.11-.57-.13-.81-.04-.31.12-.55.42-.76.85-.14.28-.23.55-.35.94-.3.96-.36,1.96-.25,3.17,0,.08.01.15.02.3.02.32.03.47.07.66,0,.03.05.24.05.27.09.47.19.73.43.94.21.18.5.28.8.28.24,0,.48-.08.72-.23,1.11-.69,2.16-3.58,1.96-5.03-.06-.42-.47-1.03-1-1.51-.3-.28-.61-.48-.9-.59ZM26.67,54.46c.2.09.43.25.67.46.44.4.8.92.83,1.18.17,1.26-.8,3.93-1.71,4.49-.16.1-.31.15-.43.15-.19,0-.37-.06-.48-.16-.12-.1-.19-.27-.25-.63,0-.03-.05-.25-.05-.28-.03-.15-.04-.28-.06-.58,0-.16-.01-.23-.02-.32-.11-1.14-.05-2.07.22-2.96.25-.81.49-1.31.79-1.43.12-.05.29-.02.5.07ZM31.05,57.95c-.13-.06-.29,0-.35.14-.19.44-.28.8-.44,1.61-.11.58-.17.84-.27,1.14-.55,1.67-1.17,2.97-2.67,5.78-.8,1.49-1.13,2.13-1.53,2.96-.04.09-.08.19-.12.28-.02-.14-.07-.29-.16-.49t0,0c-.07-.15-.09-.21-.11-.28-.02-.09-.04-.17-.07-.33,0,0-.06-.31-.09-.42-.28-1.1-.52-1.87-.79-2.44-.28-.57-.73-1.06-1.22-1.29-.08-.04-.15-.06-.23-.09-.53-.15-1.06.03-1.47.57-.79,1.04-.7,2.72-.01,4.05.02.04.05.09.07.15.01.02.07.15.08.16.25.54.42.8.74.99.63.4,1.4.61,2.14.58.3,0,.59-.17.81-.4-.34.8-.66,1.62-.95,2.52-.14.43-.28.88-.42,1.34-.41,1.4-.7,2.57-1.29,5.08-.08.36-.1.41-.13.56-.03.15.05.29.19.33.14.03.29-.06.32-.21.04-.15.05-.2.13-.56.59-2.49.88-3.66,1.29-5.05.53-1.81,1.11-3.38,1.79-4.82.28-.58.58-1.18.99-1.95.03.04.07.08.12.11.15.07.26.07.51.06,0,0,.13,0,.17,0,1.04.06,2.32-.28,3.28-.9.71-.46,1.22-1.04,1.45-1.71.14-.4.19-.84.13-1.3-.04-.27-.21-.42-.47-.49-.09-.02-.18-.04-.29-.04-.23-.01-.51.02-.65.05-.59.15-1.13.42-1.66.84-.4.31-.72.62-1.31,1.24-.07.07-.13.13-.25.25,0,0,0,0,0,0-.02.02-.03.04-.06.06,1.18-2.24,1.77-3.51,2.26-5.03.11-.33.17-.6.29-1.21.15-.78.24-1.11.41-1.5.06-.14,0-.3-.13-.36ZM41.87,62.79s.01,0,.02,0c.09.04.2.11.34.19.11.07.23.15.35.23.08.06.15.11.17.12,1.04.91,1.64,2.49,1.44,3.86-.29,2.01-.91,4.27-1.73,6.38-.02.05-.06.14-.14.28-.03.06-.19.36-.24.46-.06.11-.1.21-.15.3,0,0,0,0,0-.01-.17-.68-.27-1.43-.35-2.44-.01-.17-.07-1.09-.08-1.13-.13-2.01-.13-3.9.02-5.7.01-.13.03-.82.03-.9,0-.22.02-.41.04-.59.05-.54.16-.91.29-1.07ZM32.37,64.19s.03.02.03.02c.13.99-.36,1.84-1.34,2.47-.87.56-2.03.87-2.96.82-.07,0-.12,0-.22,0,.01-.04.03-.06.05-.12.09-.24.13-.33.2-.43.12-.17.24-.3.53-.57,0,0,.2-.19.27-.27.57-.6.88-.9,1.25-1.19.48-.37.95-.61,1.46-.74.03,0,.1-.02.18-.03.11-.01.22-.01.31,0,.11,0,.19.02.24.05ZM22.99,65.1c.37.17.74.58.97,1.04.26.52.49,1.27.75,2.34.03.11.05.2.09.4,0,0,.05.25.08.35.03.11.06.2.14.38h0c.11.25.13.34.11.42-.09.24-.38.46-.62.47-.63.02-1.3-.16-1.85-.51-.2-.13-.33-.32-.54-.77,0-.02-.07-.14-.08-.16-.03-.06-.06-.12-.08-.17-.6-1.17-.68-2.62-.04-3.46.32-.42.67-.51,1.06-.32ZM42.55,74.57c-.09.2-.2.41-.29.6.03-.07.06-.13.09-.21.06-.12.12-.25.2-.39ZM30.41,74.11c-.75-.3-1.62.1-2.29.87-.43.5-.78,1-1.32,1.87-.39.63-.76,1.3-1.19,2.16-.32.64-.51,1.06-.67,1.52-.13.4-.18.68-.13.97.06.34.26.64.54.75.13.05.25.03.37-.03.07-.03.12-.07.22-.15.02-.01.03-.02.03-.02.04-.03.06-.05.08-.06.14-.09.27-.17.51-.3.03-.02.03-.02.06-.03.47-.27.69-.41.94-.59,1.17-.82,2.11-2.2,2.88-3.95.18-.42.36-.88.47-1.33.18-.73.16-1.25-.2-1.51-.1-.07-.2-.13-.31-.17ZM30.21,74.62c.07.03.14.07.21.11.11.08.12.42,0,.93-.1.41-.26.85-.43,1.24-.73,1.67-1.62,2.97-2.69,3.72-.24.17-.45.3-.9.56-.03.02-.44.26-.59.35-.04.03-.08.05-.13.09,0,0-.02.01-.03.03-.05.04-.08.06-.1.07-.08-.04-.16-.17-.19-.33-.03-.17,0-.37.11-.69.14-.43.32-.83.63-1.45.43-.85.79-1.51,1.17-2.12.53-.85.86-1.33,1.27-1.8.53-.61,1.17-.91,1.69-.72ZM17.19,81.31s-.09-.02-.14-.02c-.33,0-.61.21-.86.59-.16.23-.27.46-.41.77-.04.08-.07.15-.14.31,0,0-.22.48-.29.68-.4,1.33-.23,2.98.49,3.99.15.2.32.39.52.53.29.21.58.28.88.16.19-.08.32-.27.46-.56.04-.09.09-.19.13-.29.02-.06.08-.2.08-.2.04-.09.07-.16.15-.32,0,0,.25-.51.3-.73.19-.77.31-1.9.19-2.51-.05-.25-.27-.84-.49-1.3-.29-.61-.57-1-.87-1.09ZM17.04,81.83c.08,0,.32.32.55.81.2.43.41.97.45,1.18.1.51,0,1.57-.18,2.27-.04.17-.1.31-.26.62,0,0-.12.25-.17.34,0,0,0,.02-.01.03,0,0-.05.14-.07.19-.04.09-.07.18-.11.26-.04.09-.09.17-.13.22-.02.03-.03.05-.05.06,0,0,0,0,0,0-.2.08-.51-.15-.78-.52-.62-.86-.77-2.33-.41-3.51.05-.17.11-.3.25-.6,0,0,.11-.23.15-.33.27-.62.56-1.04.76-1.03ZM23.07,84.34s.07.05.1.08c.07.09.08.25.01.56,0,.04-.06.3-.07.36-.18,1-.64,1.68-1.62,2.49-.21.18-.34.21-.4.17-.09-.06-.16-.29-.16-.66,0-.8.47-1.99,1.03-2.62.13-.14.39-.31.64-.38.2-.06.36-.06.47,0Z"/>
  </g>
</svg>