<?xml version="1.0" encoding="UTF-8"?>
<svg id="_レイヤー_2" data-name="レイヤー 2" xmlns="http://www.w3.org/2000/svg" viewBox="0 0 18 26">
  <defs>
    <style>
      .cls-1 {
        fill: #333;
        stroke-width: 0px;
      }
    </style>
  </defs>
  <g id="PC">
    <path class="cls-1" d="M11.26,0c-.11.01-.22.04-.31.08-.24.11-.38.33-.38.62,0,.14.11.25.25.25.14,0,.25-.12.25-.26,0-.16.14-.23.49-.18s.75.21.89.35c.59.6,1.15,2.41,1.23,3.64.01.17.02.34.02.52,0,.96-.15,1.98-.44,3.1-.23.89-.52,1.73-1.01,3.04-.06.15-.52,1.4-.53,1.44-.4,1.09-.66,1.68-1.03,2.26-.08.12-.04.27.07.35,0,0,0,0,0,0-.08.07-.21.2-.27.25-.05.05-.1.09-.15.13-.04.03-.27.23-.33.29-.36.32-.57.59-.64.92-.03.14.06.27.19.3.13.03.27-.06.29-.2.04-.18.19-.38.48-.64.06-.06.29-.25.33-.29.05-.04.1-.09.15-.14.08-.08.38-.35.36-.33.43-.4.7-.62,1.02-.83.15-.1.28-.2.52-.37.02-.01.02-.01.04-.03.39-.29.58-.42.81-.55.2-.11.4-.19.79-.3.02,0,.34-.1.45-.14.07-.02.1-.04.23-.09.2-.08.29-.11.4-.12.76-.07,1.63.54,1.66,1.23,0,.13-.03.25-.14.52-.04.1-.06.13-.08.19-.1.28-.14.5-.08.73.04.15.1.26.23.46.09.13.12.18.14.24.28.62.39,1.17.3,1.7-.05.27-.28.62-.55.85-.8.68-2,.69-3.27.18-.58-.23-1.07-.49-1.95-.99-.03-.02-.2-.11-.22-.12-.37-.21-.58-.33-.81-.46-.12-.07-.27-.02-.34.11-.06.12-.02.28.1.34.23.12.43.24.8.45.02.01.18.1.22.12.89.51,1.41.78,2.01,1.02,1.42.57,2.8.56,3.77-.26.36-.3.65-.75.72-1.15.03-.16.04-.32.04-.49,0-.49-.13-.99-.38-1.52-.04-.09-.08-.15-.18-.31-.1-.16-.14-.23-.16-.31-.03-.11,0-.23.06-.42.02-.05.03-.08.07-.17.14-.34.19-.51.18-.73-.03-1.01-1.18-1.81-2.2-1.71-.17.02-.29.06-.54.15-.12.05-.15.06-.2.08-.1.03-.18.06-.36.11-.03,0-.05.01-.06.02-.42.13-.65.21-.89.34-.26.14-.45.28-.86.59-.02.01-.02.01-.04.03-.23.17-.36.26-.5.36-.19.12-.36.26-.55.41.26-.49.49-1.04.8-1.89.01-.03.47-1.29.53-1.44.49-1.32.78-2.18,1.02-3.09.31-1.16.47-2.22.46-3.23,0-.19,0-.37-.02-.55-.09-1.34-.68-3.26-1.38-3.96-.22-.23-.73-.44-1.18-.5-.13-.02-.25-.02-.36,0ZM9.84,7.98c-.48,0-.98.12-1.5.36-.09.04-.15.08-.3.18-.16.1-.23.15-.3.16-.12.03-.25,0-.47-.09-.03-.01-.06-.02-.12-.05-.34-.15-.49-.2-.72-.2-.99.02-1.79,1.18-1.71,2.22.01.17.05.3.14.55.04.12.06.15.07.21.03.1.05.19.11.37,0,.03.01.05.02.07.12.43.2.66.32.91.14.26.27.47.56.89t.03.04c.17.24.25.37.34.51.22.36.45.66.85,1.12,0,0,.24.28.31.36.05.06.09.11.14.16.03.04.22.28.28.35.31.37.57.59.89.66.13.03.27-.05.3-.19.03-.14-.05-.27-.19-.3-.18-.04-.37-.2-.62-.5-.06-.07-.25-.3-.28-.35-.04-.05-.09-.11-.14-.17-.07-.08-.31-.36-.31-.37-.38-.44-.6-.72-.8-1.05-.1-.15-.19-.29-.36-.53t-.03-.04c-.28-.41-.4-.6-.53-.83-.11-.21-.18-.41-.29-.81,0-.02-.09-.35-.13-.46-.02-.07-.04-.11-.08-.23-.08-.2-.1-.3-.11-.4-.06-.77.55-1.66,1.22-1.67.12,0,.24.03.51.15.06.03.09.04.13.06.31.13.53.18.78.12.15-.04.25-.09.46-.23.13-.09.18-.12.24-.14.61-.28,1.16-.38,1.67-.28.27.05.6.29.83.57.65.83.65,2.04.13,3.33-.23.58-.5,1.09-1,1.98-.02.03-.11.19-.12.22-.21.37-.33.58-.46.82-.07.12-.02.28.1.35.12.07.27.02.34-.1.12-.23.24-.44.45-.81.01-.02.1-.18.12-.22.52-.91.78-1.43,1.03-2.04.58-1.44.58-2.85-.2-3.84-.29-.37-.72-.68-1.12-.76-.16-.03-.32-.05-.48-.05ZM2.48,13.93c-.64.03-1.23.24-1.71.65-.36.3-.65.74-.72,1.15-.03.16-.04.32-.04.49,0,.49.13.99.38,1.52.04.09.08.15.18.31.1.16.15.23.16.31.03.11,0,.24-.06.43-.02.05-.03.08-.07.17-.14.34-.19.51-.18.73.03,1.01,1.18,1.81,2.2,1.72.17-.02.29-.06.54-.15.12-.05.15-.06.2-.08.1-.03.18-.06.36-.11.03,0,.05-.01.06-.02.42-.13.65-.21.89-.34.26-.14.45-.28.86-.59.02-.02.02-.01.04-.03.23-.17.36-.26.5-.36.35-.23.64-.47,1.09-.88-.01.01.28-.26.36-.33.05-.05.1-.09.15-.13.04-.03.26-.23.33-.29.36-.32.57-.59.64-.92.03-.14-.06-.27-.19-.3-.13-.03-.27.06-.3.19-.04.18-.19.38-.48.64-.06.06-.29.25-.34.29-.05.04-.1.09-.15.14-.08.08-.38.35-.36.33-.43.4-.7.62-1.02.83-.15.1-.28.19-.52.37-.02.01-.02.02-.04.03-.39.29-.58.42-.81.55-.2.11-.4.19-.79.3-.02,0-.34.1-.45.14-.06.02-.11.04-.23.09-.2.08-.29.11-.39.12-.76.07-1.63-.54-1.66-1.23,0-.13.03-.24.14-.52.04-.1.06-.14.08-.19.1-.28.14-.5.08-.73-.04-.15-.1-.26-.23-.46-.09-.13-.12-.18-.14-.24-.28-.62-.39-1.17-.3-1.7.05-.27.28-.62.55-.85.8-.68,1.99-.69,3.27-.18.58.23,1.07.49,1.95.99.03.02.2.11.22.13.37.21.58.33.81.45.12.07.27.02.34-.11.06-.12.02-.28-.1-.34-.23-.12-.43-.24-.8-.45-.02-.01-.18-.1-.22-.12-.89-.51-1.41-.78-2.01-1.02-.71-.29-1.41-.43-2.05-.39ZM9.11,17.2c-.1.02-.18.09-.2.19-.03.14.05.27.19.3.18.04.37.2.62.49.06.07.24.3.28.35.04.05.09.11.14.17.07.08.31.37.31.37.38.44.6.72.8,1.05.1.16.19.29.36.54.01.02.01.02.03.04.28.41.4.6.53.83.11.21.18.41.28.81,0,.02.1.35.13.46.02.07.04.11.08.24.08.2.1.3.11.4.06.77-.55,1.66-1.22,1.67-.12,0-.24-.04-.51-.16-.06-.03-.09-.04-.13-.06-.31-.13-.53-.18-.78-.12-.15.04-.25.1-.46.23-.13.09-.18.12-.24.14-.61.28-1.16.38-1.67.28-.27-.05-.6-.3-.83-.58-.65-.83-.65-2.04-.13-3.33.23-.58.5-1.09,1-1.98.02-.03.11-.19.12-.22.21-.37.33-.58.46-.82.07-.12.02-.28-.1-.34-.12-.07-.27-.02-.34.1-.12.23-.24.44-.45.81-.01.02-.1.18-.12.22-.52.91-.78,1.43-1.03,2.04-.58,1.44-.58,2.85.2,3.85.29.37.72.68,1.12.75.16.03.32.05.48.05.48,0,.98-.12,1.5-.36.09-.04.15-.08.3-.18.16-.1.23-.14.3-.16.12-.03.25,0,.47.09.03.01.06.03.12.05.34.15.49.2.72.19.99-.02,1.79-1.18,1.71-2.22-.01-.17-.05-.3-.14-.55-.04-.12-.06-.15-.07-.21-.03-.1-.06-.19-.11-.37,0-.03-.01-.05-.02-.07-.12-.43-.2-.66-.32-.91-.14-.26-.27-.47-.56-.89-.01-.02-.01-.02-.03-.04-.17-.24-.25-.37-.34-.51-.22-.36-.45-.66-.85-1.12,0,0-.24-.28-.31-.36-.05-.06-.09-.11-.14-.16-.03-.04-.22-.27-.28-.35-.31-.37-.57-.59-.89-.66-.03,0-.07,0-.1,0Z"/>
  </g>
</svg>