<?xml version="1.0" encoding="UTF-8"?>
<svg id="_レイヤー_2" data-name="レイヤー 2" xmlns="http://www.w3.org/2000/svg" viewBox="0 0 106 161">
  <defs>
    <style>
      .cls-1 {
        fill: #333;
        stroke-width: 0px;
      }
    </style>
  </defs>
  <g id="PC">
    <path class="cls-1" d="M15.1,15.16c-.58.35-1.1.73-1.55,1.17-2.84,2.75-4.54,6.43-5.4,11.03-.1.51-.14,1.01-.17,1.79,0,.09-.02.43-.01.4-.04,1.09-.09,1.62-.25,2.04-.31.8-.94,1.33-2.75,2.44-.06.03-.06.03-.12.07-1.81,1.11-2.64,1.76-3.39,2.87-3.39,5.07-.5,13.06,4.88,16.26.86.51,1.66.78,3.13,1.15.32.08.47.12.62.16.3.08.53.13.74.2.59.19,1.13.37,2.11.72.17.06.16.06.33.12,2.7.96,4.09,1.37,5.8,1.59,1.77.22,3.25.26,6.31.24.11,0,3.02,0,4.07.04,2.64.13,4.9-.02,8.96-.47.14-.02,3.15-.34,3.71-.39.37-.04,1.91-.15,2.24-.18,1.62-.14,2.84-.32,3.97-.67,1.14-.35,2.11-.86,2.88-1.55.63-.57.67-1.53.1-2.15-.57-.62-1.53-.68-2.16-.11-.4.37-.98.67-1.72.89-.88.27-1.91.43-3.33.55-.29.02-1.85.14-2.26.18-.58.05-3.06.32-3.29.35-.19.02-.32.04-.46.06-3.91.43-6.04.57-8.47.45-1.13-.06-2.08-.07-4.03-.06-.11,0-.11.01-.22.01-2.93.02-4.31-.02-5.9-.22-1.42-.18-2.67-.55-5.16-1.44-.17-.06-1.92-.67-2.55-.87-.27-.08-.55-.16-.89-.25-.16-.04-.33-.08-.65-.16-1.19-.3-1.79-.5-2.31-.82-4.01-2.38-6.22-8.48-3.91-11.93.41-.62,1.02-1.08,2.45-1.96.05-.03.04-.03.1-.07,2.4-1.47,3.36-2.28,4.01-3.95.33-.85.42-1.61.47-3.05,0,.03.01-.3.02-.39.02-.63.05-1.01.11-1.33.76-4.02,2.19-7.14,4.52-9.39,1.21-1.17,3.58-2.02,5.74-2.17,6.37-.42,12.33,3.8,16.86,10.86,1.84,2.87,3.41,5.85,5.5,10.3.34.72.57,1.23,1.22,2.64,1.22,2.63,1.82,3.9,2.56,5.4.37.76,1.28,1.06,2.04.69.76-.38,1.07-1.29.7-2.05-.73-1.48-1.32-2.73-2.53-5.34-.66-1.42-.89-1.92-1.23-2.65-2.14-4.56-3.76-7.65-5.69-10.66-5.07-7.9-11.95-12.76-19.63-12.25-2.11.14-4.37.79-6.11,1.85ZM56.96,2.96c-1.26,1-2.35,2.21-3.13,3.56-.5.86-.76,1.66-1.11,3.13-.01.06-.12.54-.14.62-.08.31-.14.54-.21.76-.18.59-.35,1.14-.69,2.12-.06.17-.05.17-.11.34-.92,2.72-1.32,4.11-1.51,5.83-.2,1.77-.22,3.25-.17,6.32,0,.11.04,3.03,0,4.09-.1,2.65.08,4.91.58,8.98.02.14.38,3.12.44,3.68.04.37.17,1.91.2,2.22.15,1.57.34,2.75.68,3.85.37,1.2.88,2.2,1.61,2.99.57.62,1.54.65,2.16.08s.66-1.55.08-2.17c-.39-.42-.69-1.01-.94-1.81-.26-.86-.43-1.86-.56-3.25-.03-.28-.16-1.83-.2-2.24-.06-.58-.36-3.05-.39-3.28-.02-.19-.04-.32-.06-.46-.48-3.92-.65-6.05-.56-8.49.04-1.13.04-2.08,0-4.03,0-.11,0-.12,0-.23-.05-2.93-.04-4.31.15-5.91.16-1.43.51-2.68,1.37-5.19.06-.17.65-1.93.84-2.56.08-.28.17-.57.25-.92.02-.1.12-.58.14-.64.29-1.2.48-1.78.79-2.31,2.33-4.05,8.39-6.35,11.87-4.1.62.41,1.1,1,1.99,2.43.03.05.03.05.06.1,1.49,2.38,2.33,3.33,4,3.95.85.32,1.61.4,3.05.42,0,0,.3,0,.38,0,.64.01,1.02.04,1.35.09,4.02.7,7.15,2.07,9.43,4.37,1.18,1.19,2.07,3.56,2.24,5.72.5,6.37-3.65,12.4-10.64,17.04-2.81,1.86-5.76,3.48-10.08,5.59-.75.37-6.63,3.21-8.12,3.98-.75.38-1.05,1.3-.67,2.05.38.75,1.3,1.06,2.06.68,1.47-.75,2.71-1.37,5.31-2.62,1.47-.71,2.01-.96,2.77-1.33,4.43-2.17,7.48-3.83,10.43-5.79,7.83-5.19,12.6-12.15,12-19.84-.22-2.82-1.37-5.86-3.12-7.62-2.78-2.81-6.47-4.44-11.07-5.23-.52-.09-1.01-.13-1.8-.14-.09,0-.39,0-.39,0-1.09-.02-1.63-.07-2.05-.23-.81-.3-1.34-.91-2.47-2.72-.03-.05-.03-.06-.07-.11-1.13-1.8-1.79-2.63-2.91-3.35-3.83-2.49-9.26-1.41-13.05,1.57ZM24.11,67.13c-7.83,5.19-12.6,12.16-11.99,19.85.22,2.82,1.36,5.85,3.11,7.62,2.78,2.81,6.48,4.45,11.08,5.24.52.09,1.01.12,1.8.14.09,0,.4,0,.39,0,1.09.02,1.62.08,2.04.24.81.3,1.34.91,2.47,2.72.03.05.04.05.07.1,1.13,1.8,1.79,2.64,2.91,3.37,5.11,3.32,13.05.3,16.18-5.14.5-.86.75-1.67,1.1-3.14.02-.06.13-.53.15-.62.08-.31.13-.55.2-.76.18-.59.36-1.13.7-2.12.06-.17.05-.17.11-.34.92-2.72,1.32-4.11,1.51-5.83.2-1.77.23-3.26.17-6.32,0-.11-.05-3.04-.01-4.1.1-2.65-.07-4.9-.57-8.97-.02-.14-.38-3.12-.44-3.68-.04-.37-.17-1.91-.2-2.22-.15-1.57-.34-2.75-.68-3.85-.37-1.2-.89-2.21-1.63-3-.57-.62-1.54-.64-2.16-.07-.62.58-.66,1.54-.09,2.16.39.42.71,1.02.95,1.81.27.86.42,1.87.56,3.25.03.28.16,1.83.2,2.24.06.58.36,3.05.39,3.28.02.19.04.32.06.46.48,3.93.65,6.05.56,8.49-.04,1.13-.04,2.08,0,4.03,0,.11,0,.1,0,.22.05,2.93.04,4.33-.14,5.92-.16,1.43-.51,2.68-1.37,5.19-.06.17-.65,1.93-.84,2.56-.08.27-.15.56-.24.91-.02.1-.14.58-.16.63-.29,1.2-.48,1.79-.79,2.32-2.33,4.04-8.39,6.35-11.86,4.09-.63-.4-1.1-1-1.99-2.42-.03-.05-.02-.06-.06-.1-1.49-2.38-2.33-3.33-4-3.95-.85-.32-1.61-.4-3.05-.42,0,0-.3,0-.38,0-.65-.01-1.02-.04-1.35-.09-4.03-.7-7.16-2.08-9.43-4.38-1.18-1.19-2.07-3.55-2.23-5.71-.5-6.37,3.64-12.41,10.63-17.05,2.81-1.86,5.76-3.46,10.09-5.58.75-.37,6.62-3.21,8.12-3.97.75-.38,1.05-1.32.67-2.07-.38-.75-1.3-1.05-2.06-.66-1.47.75-2.71,1.35-5.3,2.61-1.47.71-2.01.98-2.77,1.35-4.43,2.17-7.49,3.82-10.44,5.78ZM54.78,53.59c-.63.57-.68,1.53-.11,2.16.57.63,1.53.67,2.15.1.4-.37.98-.65,1.73-.88.88-.27,1.91-.44,3.33-.56.29-.03,1.84-.13,2.25-.17.59-.06,3.07-.32,3.3-.35.19-.02.34-.04.47-.05,3.91-.43,6.03-.56,8.47-.45,1.13.06,2.08.06,4.03.04.11,0,.11,0,.22,0,2.93-.02,4.31.02,5.9.22,1.42.18,2.67.54,5.16,1.42.17.06,1.92.68,2.56.88.27.08.53.16.87.25.16.04.34.09.66.17,1.19.3,1.78.5,2.3.81,4.01,2.38,6.22,8.48,3.91,11.93-.41.62-1.01,1.09-2.45,1.97-.05.03-.05.03-.1.06-2.4,1.47-3.36,2.28-4.01,3.95-.33.85-.42,1.61-.47,3.05,0-.03-.01.31-.01.4-.02.63-.05,1.01-.11,1.33-.76,4.02-2.19,7.13-4.52,9.38-1.2,1.16-3.58,2.03-5.73,2.18-6.37.42-12.33-3.8-16.86-10.86-1.84-2.87-3.41-5.87-5.5-10.32-.34-.72-.58-1.22-1.23-2.64-1.22-2.63-1.81-3.89-2.55-5.4-.37-.76-1.3-1.07-2.05-.69-.76.37-1.07,1.3-.69,2.06.73,1.48,1.32,2.72,2.52,5.33.66,1.42.89,1.92,1.23,2.65,2.14,4.56,3.77,7.66,5.7,10.67,5.07,7.9,11.95,12.76,19.63,12.25,2.82-.19,5.87-1.3,7.66-3.03,2.84-2.75,4.53-6.43,5.39-11.02.1-.51.14-1.01.17-1.79,0-.09.02-.42.02-.39.04-1.1.1-1.63.27-2.05.31-.8.93-1.33,2.75-2.44.05-.03.04-.04.1-.07,1.81-1.11,2.66-1.76,3.41-2.87,3.39-5.07.48-13.06-4.9-16.26-.86-.51-1.64-.78-3.11-1.15-.32-.08-.48-.12-.63-.15-.3-.08-.53-.15-.74-.21-.59-.18-1.12-.36-2.11-.71-.17-.06-.17-.07-.34-.13-2.7-.96-4.08-1.36-5.8-1.58-1.77-.22-3.25-.26-6.31-.24-.11,0-3.03,0-4.08-.05-2.64-.13-4.9.02-8.96.47-.13.01-3.13.34-3.7.39-.37.03-1.91.15-2.23.18-1.62.14-2.84.32-3.97.67-1.15.35-2.11.86-2.88,1.55ZM60.95,82.62c-.52.29-.84.88-.77,1.51,2.71,24.05,9.45,45.21,20.98,65,.75,1.28,1.56,2.55,2.4,3.75,2.55,3.61,5.43,6.65,7.95,7.73,1.97.85,4.43.22,6.25-1.17,1.83-1.39,3.02-3.54,2.5-5.73-.2-.82-1.02-1.32-1.84-1.12-.82.2-1.33,1.01-1.13,1.83.43,1.79-2.83,4.13-4.58,3.38-2.55-1.1-6.27-5.66-8.93-10.23-11.31-19.4-17.92-40.17-20.59-63.8-.09-.84-.85-1.44-1.69-1.34-.21.02-.4.08-.57.18Z"/>
  </g>
</svg>