<?xml version="1.0" encoding="UTF-8"?>
<svg id="_レイヤー_2" data-name="レイヤー 2" xmlns="http://www.w3.org/2000/svg" viewBox="0 0 65.15 75.15">
  <defs>
    <style>
      .cls-1 {
        stroke-width: 0px;
      }

      .cls-2 {
        fill: none;
        stroke: #000;
        stroke-linecap: round;
        stroke-linejoin: round;
        stroke-width: 1.15px;
      }
    </style>
  </defs>
  <g id="SP">
    <g>
      <path class="cls-2" d="M29.15,3.64s-9.2,2.33-13,6.58c-3.24,3.61-4.4,8.87-5.94,16.2-1.54,7.32-13,16.47-6.83,27.88,3.26,6.01-3.91,5.32-2.66,11.93"/>
      <path class="cls-2" d="M31.54,3.01c-1.39-3.38-2.39-2.26-2.39-2.26"/>
      <path class="cls-2" d="M34.2,5.02c3.41-3.63,3.91-2.51,3.91-2.51"/>
      <path class="cls-2" d="M34.88,4.29s11.13,3.02,13.65,4.97c3.84,2.96,7.68,9.66,7.54,14.55-.13,4.9,4.47,6.73,5.63,9.43,1,2.35,2.64,8.36.85,12.79-3.59,8.87,1.27,18.45,2.02,18.26"/>
      <path class="cls-2" d="M19.05,17.55s-4.92,8.38-2.78,8.26"/>
      <path class="cls-2" d="M32.31,15.29s2.28,4.38,9.08,4.88,2.28,3.5,8.08,3.38l5.8-.13"/>
      <path class="cls-2" d="M28.4,23.55s-3.78-1.87-4.8.99"/>
      <ellipse class="cls-1" cx="26.76" cy="33.25" rx=".75" ry="1.19"/>
      <ellipse class="cls-1" cx="41.09" cy="33.25" rx=".75" ry="1.19"/>
      <path class="cls-2" d="M39.26,22.94s3.66-1.15,5.17,1.61"/>
      <path class="cls-2" d="M31.54,38.95s3.91,2.89,5.3,0"/>
      <path class="cls-2" d="M16.13,27.86c-1.52.25,1.39,14.84,8.89,20.04,3.66,2.54,4.45,2.12,4.45,2.12"/>
      <path class="cls-2" d="M49.92,24.55c.12.06.29,2.64.37,5.76.1,3.65.04,8.01-.37,9.93-.75,3.54-7.46,7.11-10.03,8.49-1.41.75-1.79,1.42-.75,3.29"/>
      <path class="cls-2" d="M52.25,30.44s6.61,4.63-.73,8.51"/>
      <path class="cls-2" d="M14.61,31.18s-6.83,4.93,1.14,9.05"/>
      <path class="cls-2" d="M23.38,52.01c-5.32,3.44-8.2,2.79-12.34,13.04-.13.33-.25.65-.39.98-2.78,7.17-1.95,7.23-1.95,7.23"/>
      <path class="cls-2" d="M45.7,51.44s11.11,5.57,14.56,15.87c1.97,5.87,1.97,7.27,1.97,7.27"/>
    </g>
  </g>
</svg>