<?xml version="1.0" encoding="UTF-8"?>
<svg id="_レイヤー_2" data-name="レイヤー 2" xmlns="http://www.w3.org/2000/svg" viewBox="0 0 109 84">
  <defs>
    <style>
      .cls-1 {
        fill: #333;
        stroke-width: 0px;
      }
    </style>
  </defs>
  <g id="SP">
    <path class="cls-1" d="M94.45,0s-.09.02-.13.03l-3.25.1c-.27,0-.49.22-.5.49-.05,1.08-.62,2.01-1.42,2.34-1.04.43-2.19-.26-2.57-1.63-.02-.06-.14-.51-.16-.57,0-.01,0-.03-.02-.08,0,0-.01-.08-.02-.12-.05-.24-.27-.41-.51-.41l-3.73.02c-.29,0-.52.24-.52.52,0,1.47-.93,2.63-2.04,2.63-1.11,0-2.07-1.14-2.07-2.61,0-.29-.23-.51-.52-.51h-2.65s-1.49.02-1.49.02c-.28,0-.5.22-.52.49-.05,1.08-.61,2.01-1.42,2.34-1.04.43-2.19-.26-2.57-1.63-.02-.06-.14-.51-.16-.57,0-.01,0-.03-.01-.08,0,0-.02-.09-.02-.12-.05-.24-.26-.41-.51-.41l-3.73.02c-.29,0-.52.24-.52.52,0,1.47-.93,2.63-2.04,2.63-1.11,0-2.06-1.14-2.07-2.61,0-.29-.24-.51-.52-.51h-2.66s0,.01,0,.01h-1.55c-.28.01-.5.23-.52.51-.05,1.08-.62,2.01-1.42,2.34-1.04.43-2.19-.27-2.57-1.63-.02-.06-.14-.51-.16-.57,0-.01,0-.03-.02-.08,0,0-.01-.08-.02-.12-.05-.24-.26-.41-.51-.41l-3.52.02c-.09,0-.18.03-.25.08-.15.07-.26.21-.27.43-.05,1.08-.62,2.01-1.42,2.34-1.04.43-2.19-.27-2.57-1.63-.02-.06-.14-.51-.16-.57,0-.01,0-.03-.02-.08,0,0-.01-.08-.02-.12-.05-.24-.26-.41-.51-.41l-3.73.02c-.29,0-.52.23-.52.52,0,1.47-.93,2.63-2.04,2.63-1.11,0-2.07-1.14-2.07-2.61,0-.29-.23-.51-.52-.51h-2.11s-.55.02-.55.02h-1.49c-.28,0-.5.23-.52.5-.05,1.08-.62,2.01-1.42,2.34-1.04.43-2.19-.27-2.57-1.63-.02-.06-.14-.51-.16-.57,0-.01,0-.03-.01-.08,0,0-.02-.08-.02-.12-.05-.24-.26-.41-.51-.41l-3.73.02c-.29,0-.52.23-.52.52,0,1.47-.93,2.63-2.04,2.63-1.11,0-2.06-1.14-2.07-2.61,0-.29-.24-.52-.52-.52h-2.18s-.48.02-.48.02h-1.56c-.28,0-.5.23-.52.5-.05,1.08-.62,2.01-1.42,2.34-1.04.43-2.19-.27-2.57-1.63-.02-.06-.14-.51-.16-.57,0-.01,0-.03-.02-.08,0,0-.01-.08-.02-.12-.05-.24-.26-.41-.51-.41l-3.52.03C.24.62,0,.85,0,1.13c0,.39,0,.65.02.79,0,.1.02.14.03.2l-.02,2.3c0,.29.23.52.52.52,1.48,0,2.63.94,2.63,2.04,0,1.1-1.15,2.04-2.63,2.05-.29,0-.52.23-.52.52v3.71c0,.25.18.46.42.51.04,0,.07.01.12.02,0,0,.07,0,.08.01.06.02.51.14.57.15,1.37.37,2.08,1.51,1.65,2.55-.33.8-1.26,1.37-2.34,1.42-.28.01-.5.24-.5.52v2.02s0,2.16,0,2.16c0,.29.23.52.52.52,1.48,0,2.64.94,2.64,2.05,0,1.1-1.16,2.04-2.63,2.05-.23,0-.43.15-.5.36l-.05.18c-.02.06-.03.13-.02.19l.21,2.99c.02.27.25.48.52.48,1.48,0,2.64.94,2.64,2.05,0,1.1-1.16,2.04-2.63,2.05-.29,0-.52.23-.52.52v3.71c0,.25.18.46.42.5.04,0,.06.01.11.02,0,0,.07.01.09.02.06.02.51.14.57.15,1.37.37,2.08,1.51,1.66,2.54-.33.8-1.26,1.37-2.35,1.43-.28.01-.5.24-.5.52v1.55s0,.48,0,.48H.23s0,2.16,0,2.16c0,.29.23.52.52.52,1.48,0,2.64.94,2.64,2.04,0,1.1-1.16,2.04-2.63,2.05-.29,0-.52.24-.52.52v3.7c0,.25.18.46.42.51.04,0,.07.01.12.02,0,0,.07,0,.08.01.06.02.51.14.57.15,1.37.37,2.08,1.51,1.66,2.55-.33.8-1.26,1.37-2.35,1.42-.28.01-.5.24-.5.52v2.03s0,2.1,0,2.1c0,.29.23.51.52.51,1.48,0,2.64.94,2.64,2.05,0,1.1-1.16,2.04-2.63,2.05-.29,0-.52.23-.52.52v3.71c0,.25.18.46.42.51.04,0,.06,0,.11.02,0,0,.08.01.09.02.06.02.51.14.57.15,1.37.37,2.08,1.51,1.65,2.55-.33.8-1.26,1.37-2.35,1.42-.29.02-.51.26-.49.55l.11,1.96c-.06.12-.08.26-.03.4.08.23.29.36.52.34.02,0,.04,0,.06,0,.04,0,.08-.02.12-.03l3.24-.1c.27,0,.49-.22.5-.49.05-1.08.62-2.01,1.42-2.34,1.04-.43,2.19.27,2.57,1.63.02.06.14.51.16.56,0,.01,0,.03.02.09,0,0,.01.08.02.12.05.24.27.41.51.41l3.73-.02c.29,0,.52-.23.52-.52,0-1.47.93-2.63,2.04-2.63,1.11,0,2.07,1.14,2.07,2.61,0,.29.23.52.52.52l2.65-.02h1.49c.28-.01.51-.23.52-.5.05-1.08.61-2.01,1.42-2.34,1.04-.43,2.19.27,2.57,1.63.02.06.14.51.15.57,0,.01,0,.03.02.08,0,0,.01.08.02.12.05.24.27.41.51.41l3.73-.02c.29,0,.52-.24.52-.52,0-1.47.93-2.63,2.04-2.63,1.11,0,2.06,1.14,2.07,2.61,0,.29.24.51.52.51h2.65s1.56-.02,1.56-.02c.28,0,.5-.22.52-.49.05-1.08.62-2.01,1.42-2.34,1.04-.43,2.19.26,2.57,1.63.02.06.14.51.16.57,0,.01,0,.03.02.08,0,0,.01.09.02.12.05.24.26.41.51.41l3.52-.02c.09,0,.18-.03.25-.08.15-.07.26-.21.27-.43.05-1.08.62-2.01,1.42-2.34,1.04-.43,2.19.26,2.57,1.63.02.06.14.51.16.57,0,.01,0,.03.02.08,0,0,.01.09.02.12.05.24.26.41.51.41l3.73-.02c.29,0,.52-.24.52-.52,0-1.47.93-2.63,2.04-2.63,1.11,0,2.07,1.14,2.07,2.61,0,.29.23.51.52.51h2.66s0-.02.01-.02h1.47c.28,0,.51-.22.52-.5.05-1.08.61-2.01,1.42-2.34,1.04-.43,2.19.26,2.57,1.63.02.06.14.51.15.57,0,.01,0,.03.02.08,0,0,.01.09.02.12.05.24.27.41.51.41l3.73-.02c.29,0,.52-.23.52-.52,0-1.47.93-2.63,2.04-2.63,1.11,0,2.06,1.14,2.07,2.61,0,.29.24.51.52.51h2.66s0-.01,0-.01h1.55c.28,0,.5-.23.52-.51.05-1.08.62-2.01,1.42-2.34,1.04-.43,2.19.27,2.57,1.63.02.06.14.51.16.57,0,.01,0,.03.02.08,0,0,.01.08.02.12.05.24.26.41.51.41l3.52-.03c.29,0,.52-.23.52-.52,0-.39,0-.65-.02-.79,0-.1-.02-.14-.03-.19l.02-2.3c0-.29-.23-.52-.52-.52-1.48,0-2.64-.94-2.64-2.05,0-1.1,1.16-2.04,2.63-2.05.29,0,.52-.23.52-.52v-3.7c0-.25-.18-.46-.42-.51-.04,0-.07-.01-.12-.02,0,0-.07-.01-.08-.02-.06-.02-.51-.14-.57-.15-1.37-.37-2.08-1.51-1.66-2.55.33-.8,1.26-1.37,2.35-1.42.28-.01.5-.24.5-.52v-1.55s0-.47,0-.47v-2.16c0-.29-.23-.52-.52-.52-1.48,0-2.64-.94-2.64-2.04,0-1.1,1.16-2.05,2.63-2.05.23,0,.43-.15.5-.36l.05-.18c.02-.06.03-.13.02-.19l-.21-2.99c-.02-.27-.25-.48-.52-.48-1.48,0-2.64-.94-2.64-2.04,0-1.1,1.16-2.04,2.63-2.05.29,0,.52-.24.52-.52v-3.27c3.46-.05,6.75-1.01,9.76-2.61,1.08-.57,2.04-1.19,2.88-1.8.29-.22.55-.42.78-.6.14-.11.23-.19.28-.24.11-.1.16-.23.17-.36,0-.13-.04-.27-.13-.37-.19-.21-.52-.22-.74-.03,0,0-.17.14-.24.2-.21.17-.45.36-.73.57-.8.59-1.73,1.17-2.76,1.72-2.93,1.56-6.13,2.5-9.48,2.5-.24,0-.48-.02-.72-.03-.11-.03-.22-.06-.25-.06-1.37-.37-2.08-1.51-1.66-2.55.33-.8,1.26-1.37,2.35-1.43.28-.01.49-.24.49-.52v-1.66c3.47-.04,6.76-1.01,9.77-2.62,1.08-.57,2.04-1.19,2.88-1.8.29-.22.55-.42.78-.6.14-.11.23-.19.28-.24.11-.1.16-.22.17-.36,0-.13-.04-.26-.13-.37-.19-.21-.52-.23-.74-.04,0,0-.17.15-.24.21-.21.17-.45.36-.73.56-.8.59-1.73,1.18-2.76,1.72-2.87,1.53-6,2.45-9.28,2.49v-1.49c0-.29-.24-.51-.52-.51-1.48,0-2.64-.94-2.64-2.05,0-1.1,1.16-2.04,2.63-2.05.13,0,.26-.05.35-.14,3.53-.01,6.88-1,9.95-2.63,1.08-.57,2.04-1.19,2.88-1.8.29-.22.55-.42.78-.6.14-.11.23-.19.28-.23.11-.1.16-.23.17-.36s-.04-.27-.13-.37c-.19-.21-.52-.23-.74-.04,0,0-.17.15-.24.21-.21.17-.45.36-.73.56-.8.59-1.73,1.18-2.76,1.72-2.87,1.53-6,2.45-9.28,2.49v-3.04c0-.25-.18-.46-.42-.51-.04,0-.07,0-.12-.02,0,0-.07-.01-.08-.02-.06-.02-.51-.14-.57-.15-1.37-.37-2.08-1.51-1.66-2.55.02-.05.06-.09.09-.14.85.11,1.7.19,2.56.19,3.54,0,6.91-.99,9.98-2.62,1.08-.57,2.04-1.19,2.88-1.8.29-.22.55-.42.78-.6.14-.11.23-.19.28-.24.11-.1.16-.23.17-.36,0-.13-.04-.27-.13-.37-.19-.21-.52-.22-.74-.03,0,0-.17.14-.24.2-.21.17-.45.36-.73.57-.8.59-1.73,1.17-2.76,1.72-2.93,1.56-6.13,2.5-9.48,2.5-.54,0-1.08-.02-1.62-.07.39-.21.83-.35,1.32-.37.28-.01.5-.24.5-.52v-1.48s0-2.64,0-2.64c0-.29-.23-.52-.52-.52-1.48,0-2.64-.94-2.64-2.05,0-1.1,1.16-2.04,2.63-2.05.29,0,.52-.23.52-.52v-3.71c0-.25-.18-.46-.42-.51-.04,0-.07-.01-.12-.02,0,0-.07-.01-.09-.02-.06-.02-.51-.14-.57-.15-1.37-.37-2.07-1.51-1.65-2.55.33-.8,1.26-1.37,2.35-1.42.29-.02.51-.26.49-.54l-.1-1.95c.16-.31-.03-.76-.47-.76h-.07ZM93.96,1.07l.06,1.21c-1.25.21-2.3.95-2.74,2.01-.68,1.65.41,3.41,2.34,3.93.04.01.27.07.42.11v2.82c-1.76.21-3.15,1.47-3.15,3.04,0,1.57,1.39,2.82,3.16,3.03v2.17h0s0,1.02,0,1.02c-.88.14-1.65.56-2.19,1.15-1.45-.25-2.9-.7-4.33-1.33l.04-3.32v-8.37c0-.29-.25-.53-.54-.52-.02,0-1.41.04-1.91.06-1.23.03-2.45.05-3.59.06-1.86,0-3.34-.03-4.28-.11-.04,0-.08,0-.12-.01-1.36-.12-2.77-.18-4.17-.19-1.4-.01-2.81.03-4.17.1-.4.02-.77.05-1.08.07-.11,0-.36.03-.39.03l-8.86-.11-10.8.11h-9.84l-7.89-.11-11.81.11h-9.84c-.29,0-.52.23-.52.52v8.36s.02,1.28.03,1.72c.01.96.02,1.91.03,2.79,0,1.76,0,3.1-.06,3.83,0,.03,0,.03,0,.05-.07,1.16-.11,2.36-.12,3.56,0,1.2.02,2.4.06,3.56.01.34.05,1.1.06,1.17,0,.04,0,.07,0,.09l-.05,9.37s.1,16.04.1,16.14c0,.27,0,.57.01.9.01,1.17.02,2.35.01,3.45,0,1.52-.03,2.74-.07,3.55,0,.05,0,.11,0,.17-.12,2.28-.11,4.71-.04,7,.01.34.05,1.24.05,1.26.02.28.24.49.52.49l8.82-.03s.08,0,.14,0c.09,0,.19-.01.31-.02.34-.02.73-.04,1.16-.06,2.59-.11,5.32-.12,7.86.02.47.03.92.06,1.36.09,1,.08,2.47.11,4.3.11,1.18,0,2.44-.02,3.71-.05.5-.01,1.89-.05,1.9-.05l11.73-.4,7.95.4s4.42-.02,5.61-.02c1.8,0,3.25,0,4.23.02.98.01,2.44.01,4.24.01,1.18,0,15.46-.01,15.46-.01.3,0,.54-.25.52-.55,0-.01-.04-.72-.05-.98-.03-.78-.05-1.56-.04-2.29,0-.8.03-1.49.08-2.01.03-.28.06-.52.11-.69.02-.08.04-.14.06-.18,0-.01.01-.02.01-.03.43-.47.43-1.92.21-4.63-.04-.55-.1-1.13-.16-1.72-.06-.64-.13-1.26-.2-1.84-.02-.2-.08-.68-.09-.73l-.19-9.31.22-7.85c2.14.89,4.3,1.37,6.48,1.47.03,0,.04,0,.06.02v2.82c-1.76.21-3.15,1.46-3.15,3.04,0,1.58,1.41,2.84,3.19,3.04l.15,2.22c-1.78.2-3.18,1.46-3.18,3.04,0,1.57,1.39,2.82,3.16,3.03v2.17h0s0,1.09,0,1.09c-1.26.21-2.33.95-2.76,2.01-.68,1.65.41,3.41,2.35,3.93.04.01.27.07.42.11v2.82c-1.76.21-3.15,1.46-3.15,3.04,0,1.57,1.39,2.82,3.15,3.04l-.02,2.11s0,.04,0,.08c0,.02,0,.06,0,.11l-2.51.02c-.04-.16-.11-.38-.12-.42-.54-1.92-2.31-2.99-3.97-2.31-1.06.44-1.8,1.51-2.01,2.76h-1.57s0,.01-.01.01h-1.69c-.22-1.75-1.49-3.12-3.07-3.12-1.58,0-2.83,1.4-3.03,3.15h-2.83c-.04-.14-.11-.36-.12-.4-.54-1.92-2.31-2.99-3.97-2.31-1.07.44-1.8,1.51-2.01,2.76h-1.57s0,.01-.01.01h-1.62c-.22-1.75-1.49-3.12-3.07-3.12-1.58,0-2.83,1.4-3.04,3.16h-2.83c-.04-.14-.1-.36-.11-.41-.54-1.92-2.31-2.99-3.97-2.31-.87.36-1.51,1.13-1.83,2.08h-.02q-.17.19-.19.25c-.04.18-.04.18-.03.17v.27l-2.58.02c-.04-.16-.11-.37-.12-.42-.54-1.92-2.31-2.99-3.97-2.31-1.07.44-1.8,1.51-2.01,2.76h-1.1s-.48,0-.48,0h-1.7c-.22-1.75-1.49-3.12-3.07-3.12-1.58,0-2.83,1.4-3.03,3.16h-2.83c-.04-.14-.11-.36-.12-.41-.54-1.92-2.31-2.99-3.97-2.31-1.07.44-1.8,1.51-2,2.76h-1.02s-.55,0-.55,0h-1.63c-.22-1.75-1.49-3.12-3.07-3.11-1.58,0-2.83,1.4-3.04,3.15h-2.83c-.04-.14-.1-.36-.11-.41-.54-1.92-2.31-2.99-3.97-2.3-1.07.44-1.81,1.51-2.01,2.77l-2.42.07-.06-1.2c1.25-.21,2.3-.96,2.74-2.02.68-1.65-.41-3.41-2.34-3.93-.04-.01-.27-.07-.43-.11v-2.82c1.77-.21,3.15-1.46,3.15-3.04,0-1.57-1.39-2.83-3.16-3.04v-3.19c1.25-.21,2.33-.95,2.76-2.01.68-1.65-.41-3.41-2.35-3.94-.04-.01-.27-.07-.42-.11v-2.82c1.76-.21,3.15-1.46,3.15-3.04,0-1.57-1.39-2.82-3.16-3.03v-2.17s0-1.09,0-1.09c1.26-.21,2.33-.95,2.76-2.01.68-1.65-.41-3.41-2.35-3.93-.04-.01-.27-.07-.42-.11v-2.82c1.76-.21,3.15-1.47,3.15-3.04,0-1.58-1.41-2.84-3.19-3.04l-.16-2.22c1.78-.2,3.19-1.45,3.19-3.04,0-1.57-1.39-2.83-3.16-3.04v-3.25c1.25-.21,2.33-.95,2.76-2.01.68-1.65-.41-3.41-2.35-3.94-.04-.01-.27-.07-.42-.11v-2.82c1.76-.21,3.15-1.46,3.15-3.04,0-1.57-1.39-2.82-3.15-3.03l.02-2.11s0-.04,0-.08c0-.02,0-.06,0-.11l2.52-.02c.04.16.11.38.12.42.54,1.92,2.31,2.99,3.97,2.31,1.07-.44,1.8-1.51,2.01-2.76h1.57s1.7-.02,1.7-.02c.22,1.76,1.49,3.13,3.07,3.12,1.58,0,2.83-1.39,3.04-3.15h2.83c.04.14.11.36.12.41.54,1.92,2.31,2.99,3.97,2.31,1.07-.44,1.81-1.5,2.01-2.76h1.57s1.63-.02,1.63-.02c.22,1.76,1.49,3.13,3.07,3.12,1.58,0,2.83-1.4,3.04-3.15h2.83c.04.14.11.36.12.4.54,1.92,2.31,2.99,3.97,2.31.87-.36,1.51-1.13,1.83-2.08h.02q.17-.19.19-.25c.04-.18.04-.18.03-.17v-.27l2.58-.02c.04.15.11.37.12.41.54,1.92,2.31,2.99,3.97,2.31,1.06-.44,1.8-1.51,2.01-2.76h1.1s.48,0,.48,0c0,0,0,0,.01,0h1.69c.22,1.75,1.49,3.12,3.07,3.12,1.58,0,2.83-1.4,3.04-3.16h2.83c.04.14.11.36.12.41.54,1.92,2.31,2.99,3.97,2.31,1.07-.44,1.8-1.51,2-2.76h1.57s1.63-.01,1.63-.01c.22,1.75,1.49,3.13,3.07,3.12,1.58,0,2.83-1.4,3.04-3.16h2.83c.04.14.11.36.12.41.54,1.92,2.31,2.99,3.97,2.31,1.07-.44,1.81-1.51,2.01-2.77l2.41-.07ZM72.96,8.85c1.38.01,2.76.07,4.09.19.04,0,.08,0,.12.01.98.09,2.49.13,4.38.12,1.15,0,2.38-.03,3.61-.06.36,0,.94-.03,1.38-.04v7.83l-.03,2.84c-1.46-.74-2.9-1.68-4.33-2.86-2.43-2-5.27-3.15-8.44-3.57-1.02-.13-2.06-.19-3.11-.17-3.15.05-6.41.73-9.62,1.87-1.16.41-2.21.85-3.16,1.28-.33.15-.63.29-.88.42-.09.05-.3.16-.32.17-.25.14-.34.45-.2.7.14.25.45.34.71.2.01,0,.2-.11.29-.15.24-.12.52-.26.84-.41.92-.42,1.95-.85,3.07-1.25,4.14-1.46,8.34-2.15,12.24-1.65,2.98.39,5.64,1.47,7.92,3.34,1.64,1.35,3.3,2.42,4.98,3.23l-.02,2.02s0,.03,0,.05c0,.02.03.39.04.54.03.43.06.92.09,1.45.04.72.07,1.44.09,2.16-1.52-.76-3.02-1.73-4.51-2.96-2.43-2-5.27-3.15-8.44-3.56-1.02-.13-2.06-.19-3.11-.17-3.15.05-6.41.74-9.62,1.87-1.16.41-2.21.85-3.16,1.28-.33.15-.63.3-.88.42-.09.05-.3.16-.32.17-.25.14-.34.45-.2.7s.45.34.71.2c.01,0,.2-.11.29-.15.24-.12.52-.26.84-.41.92-.42,1.95-.85,3.07-1.25,4.14-1.46,8.34-2.15,12.24-1.65,2.98.39,5.64,1.46,7.92,3.34,1.71,1.4,3.45,2.5,5.2,3.32,0,.57.02,1.14.02,1.68-.01,1.38-.07,2.61-.19,3.63-.02.18-.03.48-.05.71-1.45-.74-2.9-1.68-4.32-2.85-2.43-2-5.27-3.15-8.44-3.56-1.02-.13-2.06-.19-3.11-.17-3.15.05-6.41.73-9.62,1.87-1.16.41-2.21.85-3.16,1.28-.33.15-.63.3-.88.43-.09.05-.3.16-.32.17-.25.14-.34.45-.2.7.14.25.45.34.71.2.01,0,.2-.11.29-.15.24-.12.52-.26.84-.41.92-.42,1.95-.85,3.07-1.24,4.14-1.46,8.34-2.15,12.24-1.65,2.98.39,5.64,1.46,7.92,3.33,1.62,1.33,3.27,2.39,4.93,3.2-.01.59-.02,1.23-.02,1.98,0,.93.02,1.92.05,2.93,0,.32.03.86.04,1.24-1.46-.75-2.91-1.69-4.35-2.87-2.43-2-5.27-3.15-8.44-3.57-1.02-.13-2.06-.19-3.11-.17-3.15.05-6.41.73-9.62,1.87-1.16.41-2.21.85-3.16,1.28-.33.15-.63.29-.88.42-.09.05-.3.16-.32.17-.25.14-.34.45-.2.7.14.25.45.34.71.2.01,0,.2-.11.29-.15.24-.12.52-.26.84-.41.92-.42,1.95-.85,3.07-1.25,4.14-1.46,8.34-2.15,12.24-1.65,2.98.39,5.64,1.46,7.92,3.33,1.65,1.35,3.32,2.43,5.01,3.24l-.24,8.28.19,9.37s0,.04,0,.06c0,0,.06.54.09.74.07.58.14,1.19.2,1.82.06.59.11,1.15.15,1.7.09,1.09.14,2.01.13,2.71,0,.38-.01.69-.04.92-.01.1-.03.18-.05.24,0,.02-.01.03-.01.03,0-.01.02-.03.04-.05-.42.42-.54,1.58-.54,3.61,0,.74.02,1.54.05,2.33,0,.12.01.25.02.46-.94,0-13.77.01-14.91.01-1.8,0-3.25,0-4.23-.01-.98-.01-2.44-.02-4.24-.02-1.18,0-5.58.02-5.58.02l-7.93-.4s-.03,0-.04,0c0,0-12.15.41-12.29.41-.41.01-.88.02-1.37.04-1.26.03-2.52.05-3.69.05-1.8,0-3.25-.03-4.21-.1-.45-.04-.91-.07-1.39-.09-2.59-.14-5.35-.13-7.97-.02-.44.02-.83.04-1.17.06-.12,0-.4.02-.4.02l-8.31.03c-.01-.29-.02-.54-.03-.75-.07-2.26-.07-4.66.04-6.91,0-.05,0-.11,0-.16.05-.83.06-2.07.07-3.61,0-1.11,0-2.3-.01-3.47,0-.33-.02-1.23-.02-1.24l-.09-15.78.05-9.39s0-.08,0-.12c0-.07-.04-.81-.05-1.15-.09-2.29-.09-4.73.06-7.02,0-.03,0-.03,0-.05.05-.76.06-2.11.06-3.89,0-.89-.01-1.84-.03-2.8,0-.44-.03-1.69-.03-1.71v-7.84h9.33l11.8-.11,7.88.11h9.85l10.79-.11,8.9.11s.04,0,.05,0c.02,0,.27-.02.38-.03.31-.02.67-.04,1.06-.06,1.34-.07,2.72-.11,4.1-.1ZM38.74,17.14c-.62.03-1.31.44-1.92,1.09-.8.85-1.3,1.94-1.27,2.9,0,.14.02.27.05.4.26,1.27.49,1.94,1,2.59.14.17.25.3.5.56,0,0,.32.34.44.48.11.14.28.2.44.19.03.03.06.07.09.1.01.27.22.48.49.5.35.02.68.16,1.31.56.03.02.05.03.11.07.65.41.98.58,1.42.7.18.05.38.06.62.06.71-.01,1.66-.24,2.55-.61,1.37-.56,2.33-1.31,2.46-2.17,0-.03.01-.07.03-.12,0-.03.05-.18.06-.2.08-.3.13-.56.12-.8,0-.25-.06-.48-.17-.73-.19-.41-.55-.75-1.09-1.03-.06-.03-.13-.05-.2-.06-.02,0-.04.01-.06.01.03-.16.07-.3.09-.47.01-.11.03-.21.06-.37.07-.33.09-.41.1-.58.03-.4-.05-.75-.28-1.12-.61-.97-1.28-1.18-1.93-.63-.06.06-.13.11-.2.19-.03.03-.15.16-.18.18-.24.24-.38.34-.53.36-.24.03-.27.01-.32-.17,0-.03-.02-.07-.03-.12,0-.03-.02-.14-.02-.14-.02-.08-.03-.14-.05-.2-.04-.12-.09-.22-.19-.31-.16-.15-.32-.26-.5-.33-.25-.1-.5-.13-.79-.11-.11.01-.22.03-.35.06-.07.01-.35.07-.36.07-.12.02-.23.08-.35.13.07-.19.03-.41-.13-.56-.29-.28-.64-.4-1.01-.38ZM38.8,18.18c.1,0,.18.03.24.08.08.07.17.11.27.13-.47.33-.9.77-1.18,1.26-.47.81-.69,1.55-.71,2.35-.01.45.02.77.13,1.63-.06-.06-.09-.1-.13-.14-.38-.48-.57-1.03-.8-2.16-.14-.67.27-1.64.97-2.39.47-.51.93-.75,1.22-.75ZM41.08,18.84c.12-.01.17,0,.24.03.04.02.08.05.13.09,0,0,.02.11.03.15.01.07.03.13.05.19.18.64.65,1.01,1.44.91.44-.06.75-.27,1.14-.66.03-.03.15-.15.18-.18.06-.06.1-.1.13-.13.02-.02.03-.02.04-.03.02.01.04.03.06.05.08.08.17.2.28.37.11.17.14.31.12.5,0,.1-.02.17-.08.44-.04.19-.06.31-.08.45-.28,2.29-1.69,3.7-3.87,3.71-.08,0-.16-.02-.33-.05-.01,0-.01,0-.03,0-.21-.05-.31-.07-.45-.08-.15-.01-.3,0-.47.01-.09.01-.17.02-.32.05-.35.05-.47.06-.54.04,0,0,0,0-.02-.02-.03-.05-.06-.15-.08-.31-.02-.19-.04-.37-.07-.61-.15-1.11-.17-1.31-.16-1.74.02-.63.18-1.2.57-1.87.33-.56.97-1.12,1.42-1.21,0,0,0,0,0,0,.34-.07.53-.1.65-.11ZM87.53,21.35c1.24.52,2.49.91,3.75,1.15-.61,1.63.47,3.34,2.37,3.85.04.01.27.07.42.11v2.6c-2.12-.1-4.23-.58-6.32-1.47-.02-.89-.06-1.79-.11-2.69-.03-.53-.06-1.03-.09-1.46-.01-.14-.04-.44-.04-.51l.02-1.59ZM45.46,22.56s.01.02.02.02c.35.19.55.38.64.57.1.21.09.42-.02.81,0,.01-.05.16-.06.21-.02.09-.04.16-.05.23-.06.38-.77.94-1.83,1.38-1,.41-2.09.61-2.51.5-.29-.08-.56-.22-1.07-.54.1.02.22.04.32.04,2.24-.01,3.85-1.25,4.55-3.22ZM37.44,25.61c-.07,0-.13.02-.2.04-.69.29-1.13.97-1.35,1.87-.17.7-.2,1.52-.09,2.14.2,1.11.63,2.18,1.28,3.29.5.84,1.02,1.57,1.98,2.81.06.08.5.65.59.76.16.2.56.74.56.74.64.84.93,1.22,1.31,1.68,1.91,2.31,3.79,4,7.82,7.25.03.02.1.08.17.14-2.56-1.28-4.97-2.37-7.38-3.31-1.92-.75-3.92-1.48-6.48-2.38-.3-.1-.54-.18-1.07-.36-1.05-.34-1.5-.5-2.05-.73-1.58-.69-3.13-1.68-4.81-3,.05-.25.07-.51.06-.77-.02-.37-.08-.65-.24-1.23l-.02-.06c-.12-.45-.35-.78-.85-1.36-.32-.37-.39-.45-.49-.61-.01-.02-.02-.03-.04-.05-.22-.34-.36-.54-.57-.73-.31-.27-.67-.41-1.1-.4-.08,0-.62.1-1.17.21-1.13.22-1.2.24-1.36.39-.11.11-.17.25-.2.4-.02.08-.02.13-.03.25,0,0,0,.02,0,.02-.01,0-.01,0-.03.01-.08.03-.17.07-.32.13-.02,0-.16.06-.2.07-.08.03-.15.05-.2.08-.19.08-.31.14-.41.24-.17.17-.21.39-.15.59,0,0,0,0,0,0-.11.08-.2.14-.27.24-.16.21-.21.48-.1.74.22.53.68.83,1.43,1.11.14.05.57.2.64.23.07.03.13.05.18.07.15.07.27.15.54.34,0,0,.24.18.34.24.54.35,2.23.69,3,.66,0,0,.36,0,.5,0,.15,0,.28-.02.39-.04,1.76,1.38,3.39,2.43,5.07,3.16.59.26,1.07.42,2.15.77.39.12.56.18.77.25-.08.07-.17.15-.24.25-.23.35-.39.87-.39,1.22.01.62.34,1.27.81,1.77.08.08.47.51.53.57-.47-.11-.99-.22-1.47-.35-.57-.15-1.35-.41-2.04-.63.06-.15.05-.32-.04-.46-.06-.09-.26-.39-.31-.47-.88-1.36-1.36-1.97-2.16-2.57-.51-.38-1-.59-1.48-.5-.16.03-.32.1-.48.2-.27.18-.41.45-.36.76.02.1.05.2.11.29.02.03.04.06.06.09.01.02.06.1.07.1.24.37.87,1,1.54,1.59-.41-.13-.67-.22-.93-.29-.07-.02-.14-.02-.2-.02-.2.02-.38.16-.44.37-.08.28.08.56.36.64.75.21,1.35.41,2.7.86,0,0,2.4.79,3.35,1.03,2.14.56,4.31,1.02,7.54,1.66-.91.18-1.57.61-2.53,1.55-.22.21-.43.45-.65.72.01-.01-.11.11-.17.19-.07.09-.13.18-.18.27-.06.12-.1.24-.11.36-.03.35.18.67.65.77.49.1,1.02-.17,1.77-.73.14-.11.29-.22.45-.35.26-.21.98-.83,1.05-.89.02-.02.02-.01.04-.03.3-.23.44-.34.62-.44.03-.02.08-.03.19-.06t.02,0c.34-.1.51-.17.69-.38.15-.17.16-.39.08-.58.61.12,1.15.2,2.26.37.01,0,2.26.34,3.1.53,1.11.25,2.01.49,3.97,1.07.01,0,1,.29,1.38.4.28.08.56-.08.64-.35,0-.02,0-.05,0-.08.03-.06.05-.12.06-.19.01-.02.03-.02.04-.04.14-.25.04-.56-.21-.7-.11-.06-.54-.29-.88-.47-.02-.01-.03-.03-.05-.04-.93-.8-1.77-1.5-3.35-2.79-.07-.05-.35-.29-.43-.35-3.83-3.1-5.68-4.76-7.47-6.89.16-.11.27-.28.32-.48.05-.18.05-.37.04-.67,0-.03,0-.06,0-.11-.01-.2-.02-.28-.01-.34,0-.05,0-.09,0-.14,0-.63-.15-1.15-.53-2.09-.18-.46-.18-.44-.23-.59-.02-.05-.15-.51-.19-.65-.18-.55-.37-.9-.73-1.07-.12-.06-.25-.07-.37-.04s-.23.08-.32.17c-.09.1-.15.2-.19.34-.05.16-.08.35-.1.59-.03.32-.03.78-.02.9.06.55.16,1.06.28,1.53-.27-.36-.53-.69-.56-.73-1.93-2.49-2.73-3.86-3.06-5.65-.21-1.13.15-2.6.82-2.88.26-.11.39-.41.28-.68-.08-.2-.28-.32-.48-.32ZM87.76,28.72c1.5.6,3.01,1,4.53,1.21-.83.56-1.37,1.41-1.36,2.39,0,1.57,1.39,2.83,3.16,3.04v.98c-2.2-.1-4.4-.61-6.57-1.57.02-.4.04-.81.06-1.08.12-1.06.18-2.31.19-3.73,0-.4,0-.82-.01-1.24ZM24.5,32.39c.26,0,.42.15.74.64.02.03.04.05.06.08.13.2.21.29.56.7.4.46.57.71.64.96t.02.06c.1.35.11.51.14.7-.19-.37-.43-.72-.77-1.1,0,0-.62-.67-.8-.88-.1-.11-.39-.48-.44-.54-.17-.2-.32-.35-.5-.5-.01-.01-.03-.02-.05-.04.14-.02.34-.06.36-.06.02,0,.04,0,.06-.01ZM22.99,32.68c0,.17.07.34.23.44.09.06.17.12.25.18.13.11.23.22.37.37.04.05.34.41.45.54.2.24.84.92.82.9.39.44.62.78.76,1.21-.66-.04-1.86-.28-2.15-.48-.07-.05-.14-.1-.27-.19,0,0,0,0-.02-.01-.32-.24-.49-.35-.74-.46-.07-.03-.15-.06-.24-.09-.09-.03-.52-.18-.63-.23-.35-.13-.55-.25-.68-.38.03-.02.06-.04.09-.06.11-.09.2-.18.25-.32.04-.1.05-.2.04-.3.09-.03.19-.07.21-.08.41-.15.61-.24.77-.39.13-.11.19-.25.23-.41.01-.06.02-.13.02-.2.02,0,.02,0,.04-.01.06-.01.15-.03.22-.04ZM41.34,34.99s.02.05.03.07c.31.78.44,1.2.44,1.63,0-.02-.02-.06-.03-.09-.19-.43-.33-1-.44-1.61ZM32.02,35.28c-.11,0-.23,0-.35.03-.58.12-.93.49-.97,1.01-.02.32.05.6.22,1.05.15.39.37.77.65,1.12.54.68.87.99,1.44,1.23.53.23,1.02-.28,1.03-.76,0-.28-.05-.47-.21-.86,0,0-.08-.2-.1-.26-.03-.08-.2-.72-.27-.94-.25-.79-.57-1.3-1.11-1.54-.11-.05-.22-.07-.33-.08ZM87.49,35.88c2.18.91,4.38,1.4,6.6,1.49v1.23c-1.26.21-2.33.95-2.76,2.01-.4.98-.17,1.99.47,2.76-1.41-.25-2.82-.69-4.21-1.31v-.1s-.05-1.23-.06-1.66c-.03-1-.05-1.99-.05-2.91,0-.58,0-1.04.01-1.53ZM31.94,36.31c.18.09.37.38.53.9.06.18.23.83.27.94.01.05.04.11.06.15-.12-.13-.24-.25-.41-.47-.21-.27-.38-.56-.5-.85-.12-.31-.17-.49-.16-.6,0-.02,0-.02,0-.02.01-.01.05-.03.14-.05.03,0,.05,0,.06,0ZM28.64,41.42c.12.04.27.12.43.25.44.33.8.76,1.21,1.3-.65-.53-1.33-1.16-1.64-1.56ZM36.7,42.11c1.87.66,3.52,1.27,5.04,1.86,3.16,1.24,6.34,2.74,9.9,4.61-1-.28-1.8-.5-2.59-.67-.87-.19-1.57-.3-3.15-.54-.01,0-1.81-.28-2.49-.41-2.08-.41-3.6-.71-4.96-1-.04-.11-.1-.21-.2-.28-.59-.39-.99-1.04-1.27-1.98-.03-.1-.05-.23-.08-.52,0-.07-.03-.24-.03-.29-.04-.32-.09-.57-.16-.78ZM60.35,42.22c-.11.02-.22.07-.33.16-.18.15-.46.44-.88.91-.02.02-.59.66-.57.64-.17.19-.27.3-.31.34-.5.49-.76.97-1.21,2.04-.02.06-.04.09-.05.12-.17.4-.27.63-.39.86-.08.15-.16.27-.37.53,0,0-.27.37-.37.52-.42.69-.85,1.52-1.22,2.32-.23.5-.34.73-.88,1.86-.83,1.74-1.25,2.66-1.67,3.72-.09.23-.16.45-.26.81,0,.03-.09.33-.13.47,0,0-.01.02-.02.03-.02.04-.04.07-.05.12-.06.19-.03.41.15.57.2.19.43.19.64.11.09-.03.17-.08.26-.15,0,0,.01-.02.02-.02-.08.47-.04.81.25,1.08.19.18.41.2.63.14.11-.03.22-.08.34-.15.15-.09.31-.22.52-.39-.02.16-.05.38-.05.42,0,.01-.02.11-.03.15-.01.06-.02.11-.02.16-.02.11-.02.21-.01.31.03.24.13.45.42.54.22.07.43,0,.59-.12.08-.06.15-.14.22-.23.03-.03.03-.05.07-.11,0-.01.01-.02.02-.02.24-.25.42-.49.74-.94.05-.07.08-.11.1-.14.11-.16.2-.28.28-.39.3-.4.51-.77.86-1.47.02-.03.04-.07.07-.13.19-.37.28-.56.4-.77.09-.17.2-.32.4-.59.02-.03.03-.03.05-.07.11-.16.18-.26.26-.38,1.72,2.03,3.23,4.13,4.5,6.33.82,1.42,1.33,2.39,1.76,3.41.4.95.67,1.79.8,2.61.06.4.07.74.03,1.52,0,0-.03.61-.03.84,0,.29.23.52.52.52.29,0,.52-.24.52-.52,0-.21,0-.39.02-.79,0,0,.01-.31.01-.68s0-.81-.05-1.05c-.15-.9-.44-1.82-.87-2.84-.45-1.06-.98-2.07-1.82-3.52-1.37-2.37-2.99-4.63-4.87-6.8.06-.14.15-.38.25-.61,3.23,2.98,6.2,5.98,7.52,7.81.59.82,1.01,1.64,1.23,2.43.07.28.36.44.64.36.28-.07.44-.36.37-.63-.25-.93-.72-1.85-1.38-2.76-1.38-1.92-4.41-4.98-7.71-8.02-.08-.07-.17-.1-.26-.12.22-.54.46-1.12.53-1.27.31-.74.63-1.38,1.27-2.63.55-1.06.72-1.4.97-1.93,0,0,.11-.2.13-.24.02-.04.16-.28.16-.29.09-.17.16-.3.21-.4.03-.06.06-.11.08-.16.01-.03.02-.06.03-.09,0-.03.02-.06.02-.09.02-.1.01-.2-.06-.33-.12-.23-.34-.34-.58-.34-.14,0-.27.03-.41.08-.17.06-.36.17-.6.31.04-.13.09-.31.12-.42.09-.34.16-.64.21-.93,0-.01,0-.02.02-.11,0-.02.01-.04.02-.06.03-.14.04-.24.03-.36-.03-.31-.25-.57-.61-.56-.18,0-.32.07-.48.19,0-.04,0-.1,0-.14-.07-.36-.37-.59-.7-.53ZM35.64,42.34c.07.1.13.31.18.69,0,.04.02.21.03.28.04.34.06.51.12.69.01.05.03.08.05.13-.01-.01-.07-.07-.08-.08-.31-.32-.51-.74-.52-1.08,0-.05.02-.15.05-.27.04-.13.1-.26.16-.35,0,0,0,0,0,0ZM24.77,42.57c-.72.06-1.44.28-2.11.64-.47.26-.87.69-1.02,1.15-.21.64.07,1.24.77,1.57.57.27,1.23.17,1.99-.18.32-.14.64-.33,1.01-.57.15-.1.85-.55.99-.64.04-.02.09-.05.2-.09,0,0,0,0,0,0,.36-.15.52-.24.69-.48.19-.27.14-.56-.03-.79-.1-.14-.25-.25-.4-.31-.66-.27-1.39-.37-2.11-.31ZM24.84,43.6c.35-.03.69,0,1.03.07-.17.1-.86.56-1,.65-.34.21-.63.37-.89.5-.51.23-.89.29-1.12.18-.24-.11-.27-.18-.23-.31.06-.19.28-.43.53-.57.53-.29,1.11-.47,1.68-.52ZM59.82,44.08s-.02.07-.02.08c0,.01,0,.01,0,.03,0,.01,0,.02-.01.05,0,.02,0,.03,0,.09-.03.11-.03.11.37.49.23.07.38,0,.55-.11.04-.03.09-.08.13-.12-.05.17-.08.3-.2.66,0,0-.05.14-.08.22-.02.05-.03.09-.04.13-.04.12-.06.23-.06.33-.02.25.03.46.28.61.19.11.36.11.54.05.09-.03.18-.07.28-.12.06-.03.14-.08.22-.12-.23.48-.39.81-.91,1.82-.65,1.27-.97,1.93-1.3,2.7-.15.37-1.1,2.65-1.27,3.06-.11.25-.24.46-.56.9-.03.03-.03.03-.05.07-.22.3-.34.48-.46.69-.13.23-.24.42-.43.82-.03.07-.05.1-.06.13-.32.64-.51.98-.76,1.31-.09.12-.18.24-.3.42-.02.03-.05.07-.1.14.01-.13.03-.26.04-.35,0-.08.01-.14.02-.19,0-.03,0-.06,0-.09,0-.24-.02-.27-.22-.42-.15-.11-.31-.12-.46-.09-.07.02-.13.04-.19.08-.08.04-.16.09-.25.17-.07.05-.16.12-.26.21-.05.04-.33.27-.35.29-.02.02-.03.02-.05.04.03-.1.07-.25.07-.27.02-.06.03-.1.04-.14.03-.11.05-.2.06-.29.02-.13.02-.24,0-.36-.05-.22-.19-.4-.42-.47-.18-.06-.32-.02-.46.06.41-1.02.82-1.92,1.62-3.61.54-1.14.65-1.37.89-1.87.35-.76.77-1.56,1.17-2.21.07-.12.14-.22.31-.44,0,0,.35-.47.46-.68.14-.27.25-.52.43-.95.01-.03.02-.06.05-.12.39-.95.61-1.34.98-1.7.07-.06.17-.18.36-.39-.02.02.33-.37.48-.53ZM32.7,46.03c-.72.06-1.44.28-2.11.64-.47.26-.87.69-1.01,1.15-.21.64.07,1.24.77,1.57.57.27,1.23.17,1.99-.18.32-.14.64-.33,1.01-.57.15-.1.85-.55.99-.64.04-.02.09-.05.2-.09,0,0,0,0,0,0,.36-.15.52-.24.69-.48.19-.27.14-.56-.03-.79-.1-.14-.25-.25-.4-.32-.66-.27-1.38-.37-2.1-.31ZM32.77,47.06c.35-.03.69,0,1.03.07-.17.1-.86.56-1,.65-.34.21-.63.37-.89.5-.51.23-.89.29-1.12.18-.24-.11-.27-.18-.23-.31.06-.19.28-.43.53-.57.53-.29,1.11-.47,1.68-.52ZM48.29,48.9c-.9-.06-2.74.74-3.52,1.41-.27.23-.55.56-.74.86-.12.19-.2.37-.23.54-.06.3.02.59.29.77.4.26.91.17,1.62-.11.16-.06.32-.13.49-.21.16-.08.32-.16.47-.24.06-.03.3-.17.3-.17.16-.09.28-.15.58-.3.16-.08.23-.11.32-.15.07-.03.13-.06.28-.12.38-.15.55-.24.75-.42.08-.07.11-.09.15-.13.29-.27.48-.52.5-.82,0-.1,0-.2-.04-.32-.08-.25-.26-.42-.5-.5-.14-.05-.27-.07-.45-.07-.04,0-.23,0-.26,0ZM40.72,49.1c-.25.21-.47.4-.61.52-.09.07-.16.13-.24.19.32-.31.6-.53.86-.71ZM48.22,49.93s.02,0,.03,0c-.02.02-.02.02-.05.05-.08.07-.19.13-.45.24-.17.07-.25.1-.36.15-.08.04-.15.08-.3.15-.32.15-.46.22-.64.32,0,0-.23.13-.28.16-.15.08-.29.15-.43.22-.15.07-.29.14-.43.19-.07.03-.12.03-.19.06.11-.13.21-.27.32-.37.59-.51,2.19-1.2,2.78-1.16ZM61.12,51.31c-.2.02-.38.15-.45.35-.02.07-.03.14-.03.21.02.2.15.38.36.45,1.74.58,3.26,1.21,4.71,2,2.62,1.41,4.94,3.08,6.87,4.98.06.06.25.25.28.28,1.2,1.18,1.78,1.82,2.31,2.62.39.59.64,1.14,1.1,2.32.02.05.26.66.35.88.02.05.03.11.05.28.01.12.02.17.03.24.05.28.33.47.61.41.28-.05.47-.32.41-.61,0-.04-.01-.08-.02-.17-.03-.26-.05-.38-.12-.54-.09-.21-.16-.4-.31-.78-.02-.05-.01-.04-.03-.09-.48-1.25-.76-1.85-1.2-2.52-.58-.88-1.2-1.56-2.45-2.79-.03-.03-.23-.22-.28-.28-2-1.97-4.41-3.7-7.11-5.16-1.51-.82-3.08-1.48-4.88-2.07-.07-.02-.14-.03-.21-.02Z"/>
  </g>
</svg>